<svg width="383" height="70" viewBox="0 0 383 70" fill="none" xmlns="http://www.w3.org/2000/svg">
<g filter="url(#filter0_dd)">
<path d="M6 10C6 5.58172 9.58172 2 14 2H369C373.418 2 377 5.58172 377 10V52C377 56.4183 373.418 60 369 60H14C9.58173 60 6 56.4183 6 52V10Z" fill="#38BDF8"/>
<path d="M95.0206 41.3111L94.8097 32.0682H92.7514L92.5469 41.3111H95.0206ZM93.7805 28.0795C93.0007 28.0795 92.3679 28.706 92.3743 29.4858C92.3679 30.2528 93.0007 30.8793 93.7805 30.8793C94.5348 30.8793 95.1804 30.2528 95.1868 29.4858C95.1804 28.706 94.5348 28.0795 93.7805 28.0795ZM98.3859 38H106.951V36.0121H100.757V32.4389H106.459V30.451H100.757V26.897H106.9V24.9091H98.3859V38ZM109.757 38H112.071V32.0298C112.071 30.8217 112.877 30.0036 113.874 30.0036C114.852 30.0036 115.523 30.6619 115.523 31.6719V38H117.792V31.8764C117.792 30.7706 118.45 30.0036 119.569 30.0036C120.502 30.0036 121.244 30.5533 121.244 31.7678V38H123.564V31.4098C123.564 29.2173 122.298 28.054 120.496 28.054C119.07 28.054 117.984 28.7571 117.549 29.8501H117.447C117.07 28.7379 116.117 28.054 114.794 28.054C113.477 28.054 112.493 28.7315 112.084 29.8501H111.969V28.1818H109.757V38ZM126.451 41.6818H128.765V36.4531H128.861C129.226 37.169 129.986 38.1726 131.674 38.1726C133.988 38.1726 135.72 36.3381 135.72 33.1037C135.72 29.831 133.937 28.054 131.667 28.054C129.935 28.054 129.213 29.0959 128.861 29.8054H128.727V28.1818H126.451V41.6818ZM128.721 33.0909C128.721 31.1861 129.539 29.9524 131.028 29.9524C132.569 29.9524 133.361 31.2628 133.361 33.0909C133.361 34.9318 132.556 36.2741 131.028 36.2741C129.552 36.2741 128.721 34.9957 128.721 33.0909ZM138.241 38H140.555V28.1818H138.241V38ZM139.405 26.7884C140.14 26.7884 140.741 26.2259 140.741 25.5355C140.741 24.8388 140.14 24.2763 139.405 24.2763C138.663 24.2763 138.063 24.8388 138.063 25.5355C138.063 26.2259 138.663 26.7884 139.405 26.7884ZM147.821 38.1918C150.11 38.1918 151.682 37.0732 152.091 35.3665L149.931 35.1236C149.618 35.9545 148.851 36.3892 147.853 36.3892C146.358 36.3892 145.367 35.4048 145.348 33.7237H152.187V33.0142C152.187 29.5689 150.116 28.054 147.7 28.054C144.888 28.054 143.053 30.1186 143.053 33.1484C143.053 36.2294 144.862 38.1918 147.821 38.1918ZM145.354 32.1641C145.424 30.9112 146.351 29.8565 147.732 29.8565C149.062 29.8565 149.956 30.8281 149.969 32.1641H145.354ZM154.557 38H162.617V36.0824H157.632V35.9993L162.451 29.7607V28.1818H154.723V30.0994H159.619V30.1825L154.557 36.5298V38ZM168.157 38.1982C169.698 38.1982 170.618 37.4759 171.04 36.6513H171.117V38H173.341V31.429C173.341 28.8338 171.226 28.054 169.353 28.054C167.288 28.054 165.703 28.9744 165.192 30.7642L167.352 31.071C167.582 30.3999 168.234 29.8246 169.366 29.8246C170.439 29.8246 171.028 30.3743 171.028 31.3395V31.3778C171.028 32.0426 170.331 32.0746 168.599 32.2599C166.694 32.4645 164.872 33.0334 164.872 35.245C164.872 37.1754 166.285 38.1982 168.157 38.1982ZM168.758 36.4979C167.793 36.4979 167.103 36.0568 167.103 35.2067C167.103 34.3182 167.876 33.9474 168.912 33.8004C169.519 33.7173 170.733 33.5639 171.034 33.321V34.478C171.034 35.571 170.152 36.4979 168.758 36.4979ZM185.56 38.1918C187.848 38.1918 189.42 37.0732 189.829 35.3665L187.669 35.1236C187.356 35.9545 186.589 36.3892 185.592 36.3892C184.096 36.3892 183.105 35.4048 183.086 33.7237H189.925V33.0142C189.925 29.5689 187.854 28.054 185.438 28.054C182.626 28.054 180.791 30.1186 180.791 33.1484C180.791 36.2294 182.6 38.1918 185.56 38.1918ZM183.092 32.1641C183.163 30.9112 184.089 29.8565 185.47 29.8565C186.8 29.8565 187.695 30.8281 187.707 32.1641H183.092ZM194.737 24.9091H192.423V38H194.737V24.9091ZM202.661 38H204.975V32.228C204.975 30.9815 205.915 30.0994 207.187 30.0994C207.577 30.0994 208.062 30.1697 208.261 30.2337V28.1051C208.05 28.0668 207.685 28.0412 207.43 28.0412C206.305 28.0412 205.365 28.6804 205.007 29.8182H204.905V28.1818H202.661V38ZM214.28 38.1918C216.568 38.1918 218.141 37.0732 218.55 35.3665L216.389 35.1236C216.076 35.9545 215.309 36.3892 214.312 36.3892C212.816 36.3892 211.826 35.4048 211.806 33.7237H218.646V33.0142C218.646 29.5689 216.575 28.054 214.159 28.054C211.346 28.054 209.512 30.1186 209.512 33.1484C209.512 36.2294 211.321 38.1918 214.28 38.1918ZM211.813 32.1641C211.883 30.9112 212.81 29.8565 214.191 29.8565C215.52 29.8565 216.415 30.8281 216.428 32.1641H211.813ZM225.426 38.1918C227.893 38.1918 229.466 36.728 229.632 34.6442H227.42C227.222 35.6989 226.462 36.3061 225.445 36.3061C224.001 36.3061 223.067 35.098 223.067 33.0909C223.067 31.1094 224.02 29.9205 225.445 29.9205C226.558 29.9205 227.241 30.6364 227.42 31.5824H229.632C229.472 29.4538 227.81 28.054 225.413 28.054C222.537 28.054 220.722 30.1314 220.722 33.1293C220.722 36.1016 222.492 38.1918 225.426 38.1918ZM236.355 38.1918C239.231 38.1918 241.059 36.1655 241.059 33.1293C241.059 30.0866 239.231 28.054 236.355 28.054C233.478 28.054 231.65 30.0866 231.65 33.1293C231.65 36.1655 233.478 38.1918 236.355 38.1918ZM236.368 36.3381C234.776 36.3381 233.996 34.919 233.996 33.1229C233.996 31.3267 234.776 29.8885 236.368 29.8885C237.934 29.8885 238.713 31.3267 238.713 33.1229C238.713 34.919 237.934 36.3381 236.368 36.3381ZM243.563 38H245.877V32.228C245.877 30.9815 246.817 30.0994 248.089 30.0994C248.479 30.0994 248.965 30.1697 249.163 30.2337V28.1051C248.952 28.0668 248.587 28.0412 248.332 28.0412C247.207 28.0412 246.267 28.6804 245.909 29.8182H245.807V28.1818H243.563V38ZM251.24 38H253.554V32.228C253.554 30.9815 254.494 30.0994 255.766 30.0994C256.156 30.0994 256.641 30.1697 256.839 30.2337V28.1051C256.629 28.0668 256.264 28.0412 256.008 28.0412C254.883 28.0412 253.944 28.6804 253.586 29.8182H253.484V28.1818H251.24V38ZM258.917 38H261.231V28.1818H258.917V38ZM260.08 26.7884C260.815 26.7884 261.416 26.2259 261.416 25.5355C261.416 24.8388 260.815 24.2763 260.08 24.2763C259.339 24.2763 258.738 24.8388 258.738 25.5355C258.738 26.2259 259.339 26.7884 260.08 26.7884ZM267.794 38.1726C269.481 38.1726 270.242 37.169 270.606 36.4531H270.747V38H273.022V24.9091H270.702V29.8054H270.606C270.254 29.0959 269.532 28.054 267.8 28.054C265.531 28.054 263.747 29.831 263.747 33.1037C263.747 36.3381 265.48 38.1726 267.794 38.1726ZM268.439 36.2741C266.911 36.2741 266.106 34.9318 266.106 33.0909C266.106 31.2628 266.899 29.9524 268.439 29.9524C269.928 29.9524 270.747 31.1861 270.747 33.0909C270.747 34.9957 269.916 36.2741 268.439 36.2741ZM280.311 38.1918C283.187 38.1918 285.015 36.1655 285.015 33.1293C285.015 30.0866 283.187 28.054 280.311 28.054C277.434 28.054 275.606 30.0866 275.606 33.1293C275.606 36.1655 277.434 38.1918 280.311 38.1918ZM280.323 36.3381C278.732 36.3381 277.952 34.919 277.952 33.1229C277.952 31.3267 278.732 29.8885 280.323 29.8885C281.889 29.8885 282.669 31.3267 282.669 33.1229C282.669 34.919 281.889 36.3381 280.323 36.3381ZM290.351 24.9091H287.877L288.082 34.152H290.14L290.351 24.9091ZM289.111 38.1406C289.865 38.1406 290.511 37.5142 290.517 36.7344C290.511 35.9673 289.865 35.3409 289.111 35.3409C288.331 35.3409 287.698 35.9673 287.705 36.7344C287.698 37.5142 288.331 38.1406 289.111 38.1406Z" fill="white"/>
</g>
<defs>
<filter id="filter0_dd" x="0" y="0" width="383" height="70" filterUnits="userSpaceOnUse" color-interpolation-filters="sRGB">
<feFlood flood-opacity="0" result="BackgroundImageFix"/>
<feColorMatrix in="SourceAlpha" type="matrix" values="0 0 0 0 0 0 0 0 0 0 0 0 0 0 0 0 0 0 127 0" result="hardAlpha"/>
<feOffset dy="4"/>
<feGaussianBlur stdDeviation="3"/>
<feColorMatrix type="matrix" values="0 0 0 0 0 0 0 0 0 0 0 0 0 0 0 0 0 0 0.1 0"/>
<feBlend mode="normal" in2="BackgroundImageFix" result="effect1_dropShadow"/>
<feColorMatrix in="SourceAlpha" type="matrix" values="0 0 0 0 0 0 0 0 0 0 0 0 0 0 0 0 0 0 127 0" result="hardAlpha"/>
<feOffset dy="2"/>
<feGaussianBlur stdDeviation="2"/>
<feColorMatrix type="matrix" values="0 0 0 0 0 0 0 0 0 0 0 0 0 0 0 0 0 0 0.06 0"/>
<feBlend mode="normal" in2="effect1_dropShadow" result="effect2_dropShadow"/>
<feBlend mode="normal" in="SourceGraphic" in2="effect2_dropShadow" result="shape"/>
</filter>
</defs>
</svg>
