<svg width="597" height="597" viewBox="0 0 597 597" fill="none" xmlns="http://www.w3.org/2000/svg">
<path d="M539.378 69.0371C540.034 64.2611 533.3 60.3328 528.238 59.9268C525.85 59.7358 523.306 60.094 521.074 59.306C516.118 57.5747 514.136 51.1748 509.301 49.1331C505.719 47.6048 501.528 48.9659 498.017 50.733C494.507 52.5002 491.009 54.7091 487.152 54.924C483.749 55.1508 480.048 53.8852 477.063 55.5449C474.842 56.7389 473.684 59.3418 471.642 60.8582C469.491 62.1951 466.998 62.8756 464.466 62.8163C461.973 62.7517 459.49 63.1568 457.147 64.0103C454.89 65.0491 453.016 67.4371 453.493 69.8848L539.378 69.0371Z" fill="#EAEAEA"/>
<path d="M192.604 74.6011C193.631 67.1267 183.052 60.9895 175.172 60.3448C171.387 60.0463 167.47 60.6194 163.888 59.3776C156.139 56.6672 153.035 46.6496 145.477 43.4616C139.817 41.0736 133.31 43.1989 127.83 45.9571C122.349 48.7152 116.928 52.1897 110.791 52.536C105.466 52.8823 99.687 50.9002 95.0185 53.5031C91.544 55.4494 89.7291 59.4731 86.5292 61.8611C83.3292 64.2491 79.3652 64.6551 75.425 64.87C71.4848 65.0849 67.5087 65.1208 63.9745 66.7446C60.4403 68.3684 57.503 72.1057 58.2433 75.9265L192.604 74.6011Z" fill="#F5F5F5"/>
<path d="M466.854 117.012C467.857 109.717 457.565 103.711 449.827 103.09C446.138 102.791 442.317 103.353 438.819 102.135C431.249 99.496 428.216 89.7171 420.837 86.6127C415.309 84.2247 408.957 86.362 403.596 89.0007C398.235 91.6395 392.945 95.0901 386.963 95.4722C381.77 95.8065 376.11 93.8842 371.561 96.4154C368.17 98.3139 366.391 102.218 363.203 104.535C360.015 106.851 356.158 107.269 352.361 107.472C348.564 107.675 344.636 107.711 341.174 109.299C337.711 110.887 334.857 114.54 335.574 118.266L466.854 117.012Z" fill="#F5F5F5"/>
<path d="M453.23 555.676C428.025 544.046 417.733 515.915 413.936 489.647C413.291 485.254 411.99 480.752 413.375 476.513C414.76 472.275 419.13 468.836 423.369 469.97C426.879 470.914 428.968 474.436 431.333 477.218C434.486 480.933 438.625 483.681 443.273 485.146C446.305 486.089 449.899 486.34 452.371 484.346C455.75 481.6 455.26 476.334 454.46 472C452.956 463.929 451.455 455.857 449.959 447.786C449.147 443.464 448.347 439.034 448.956 434.652C449.565 430.27 451.857 425.948 455.774 424.049C459.69 422.151 465.218 423.619 466.854 427.703C467.333 429.468 467.696 431.263 467.941 433.076C468.382 434.855 469.576 436.658 471.379 436.885C473.182 437.111 474.711 435.547 475.785 434.043C479.475 428.861 481.492 422.688 483.331 416.563C485.17 410.438 486.913 404.217 490.089 398.712C493.265 393.208 498.22 388.42 504.417 386.952C510.614 385.483 517.862 388.146 520.524 393.948C523.187 399.751 520.739 406.617 517.754 412.252C513.312 420.628 507.682 428.318 501.038 435.082C499.702 436.163 498.748 437.645 498.316 439.308C497.898 442.365 501.146 444.741 504.178 445.183C507.593 445.672 511.044 444.717 514.495 444.502C517.945 444.287 521.874 445.123 523.724 448.084C526.303 452.192 523.426 457.505 520.333 461.218C514.124 468.625 506.683 474.906 498.34 479.785C495.355 481.528 492.191 483.152 489.982 485.851C487.773 488.549 486.961 492.728 489.062 495.498C491.164 498.268 495.331 498.543 498.555 497.325C501.779 496.107 504.453 493.743 507.414 491.988C512.966 488.668 520.739 487.689 525.479 492.155C528.596 495.092 529.658 499.761 529.061 504.023C528.337 508.276 526.757 512.338 524.417 515.963C516.883 528.882 506.28 540.094 493.373 547.365C480.466 554.637 467.845 558.231 453.207 555.723" fill="#EAEAEA"/>
<path d="M457.039 538.1C458.823 523.1 461.463 508.215 464.944 493.516C465.851 489.6 466.743 485.739 467.618 481.934C468.514 478.137 469.385 474.364 470.472 470.735C472.578 463.766 475.065 456.918 477.922 450.222C480.609 443.81 483.379 437.828 486.018 432.252C488.656 426.676 491.247 421.506 493.791 416.945C497.785 409.672 502.353 402.729 507.45 396.181C509.241 393.865 510.698 392.122 511.689 390.94L512.883 389.614C513.003 389.457 513.139 389.313 513.289 389.184C513.187 389.357 513.071 389.521 512.942 389.674L511.868 391.047C510.913 392.241 509.48 394.032 507.749 396.384C502.754 402.982 498.263 409.947 494.316 417.219C491.809 421.816 489.277 426.974 486.651 432.55C484.024 438.126 481.289 444.12 478.627 450.52C475.807 457.197 473.348 464.021 471.26 470.961C470.185 474.543 469.314 478.316 468.43 482.125C467.547 485.934 466.663 489.791 465.767 493.695C462.283 508.364 459.624 523.217 457.803 538.184" fill="#E0E0E0"/>
<path d="M470.699 470.663C470.387 470.098 470.135 469.501 469.946 468.884C469.505 467.69 468.92 466.042 468.227 463.929C466.83 459.726 465.123 453.851 463.248 447.368C461.374 440.885 459.583 435.046 458.138 430.879C457.421 428.789 456.812 427.106 456.395 425.948C456.133 425.358 455.937 424.741 455.809 424.109C456.162 424.648 456.455 425.225 456.681 425.828C457.195 426.951 457.875 428.61 458.675 430.676C460.263 434.819 462.15 440.646 464.024 447.141C465.899 453.636 467.511 459.332 468.8 463.762L470.281 468.788C470.489 469.396 470.629 470.025 470.699 470.663Z" fill="#E0E0E0"/>
<path d="M524.56 450.245C523.856 450.528 523.129 450.747 522.387 450.902C520.978 451.296 518.936 451.833 516.417 452.586C511.414 454.054 504.572 456.323 497.134 459.165C489.695 462.006 483.069 464.872 478.34 467.081C475.952 468.167 474.066 469.099 472.752 469.732C472.089 470.103 471.394 470.415 470.675 470.663C471.283 470.208 471.93 469.809 472.609 469.469C473.887 468.741 475.749 467.726 478.09 466.568C482.77 464.18 489.385 461.266 496.835 458.401C503.197 455.951 509.681 453.831 516.262 452.048C518.793 451.356 520.859 450.854 522.291 450.604C523.034 450.41 523.794 450.29 524.56 450.245Z" fill="#E0E0E0"/>
<path d="M457.541 536.954C457.348 536.774 457.179 536.569 457.039 536.345L455.714 534.494C454.58 532.882 453.004 530.518 451.081 527.569C447.249 521.599 442.21 513.348 436.753 504.095C431.297 494.841 426.377 486.471 422.676 480.501L418.258 473.445C417.781 472.669 417.387 472.036 417.064 471.511C416.904 471.297 416.779 471.059 416.694 470.806C416.887 470.987 417.056 471.191 417.196 471.415L418.509 473.266C419.703 474.866 421.219 477.242 423.142 480.191C426.974 486.089 432.013 494.412 437.47 503.677C442.926 512.942 447.857 521.277 451.571 527.258L455.977 534.315L457.171 536.249C457.327 536.465 457.452 536.702 457.541 536.954Z" fill="#E0E0E0"/>
<path d="M527.318 499.785C527.111 499.96 526.882 500.109 526.638 500.226L524.608 501.325L517.145 505.325C510.841 508.692 502.184 513.456 492.621 518.733C483.057 524.011 474.352 528.691 467.976 531.927C464.788 533.551 462.185 534.84 460.383 535.688L458.293 536.667C458.057 536.797 457.804 536.894 457.541 536.954C457.745 536.774 457.974 536.626 458.221 536.512L460.239 535.414L467.714 531.414C474.018 528.047 482.675 523.282 492.238 518.005C501.802 512.728 510.495 508.047 516.871 504.871C520.071 503.247 522.662 501.958 524.465 501.11L526.554 500.131C526.794 499.986 527.051 499.87 527.318 499.785Z" fill="#E0E0E0"/>
<path d="M564.475 255.994L541.563 237.164L541.431 247.349L477.516 246.549L477.301 263.277L541.228 264.065L541.109 273.88L564.475 255.994Z" fill="#EAEAEA"/>
<path d="M530.411 283.062L515.617 270.919L515.533 277.486L474.269 276.972L474.137 287.766L515.402 288.279L515.318 294.619L530.411 283.062Z" fill="#EAEAEA"/>
<path d="M44.3093 131.4C44.3093 131.4 30.9843 135.543 43.569 164.151C56.1538 192.759 65.1804 207.135 65.1804 207.135C65.1804 207.135 67.3177 213.726 61.8372 214.419C56.3568 215.111 44.5004 212.52 41.6945 219.015C38.793 225.666 43.4258 232.496 53.2404 238.8C63.0551 245.104 84.0815 259.635 85.968 260.961C87.8545 262.286 89.55 265.367 85.968 266.441C82.386 267.516 55.2464 268.769 56.6195 281.569C57.9926 294.369 88.2246 307.395 91.4962 308.876C94.7678 310.356 95.4961 311.837 95.0782 313.652C94.6603 315.467 85.5262 315.037 77.8846 315.706C70.243 316.374 61.4074 318.511 62.8163 325.831C64.2252 333.15 81.6457 349.364 125.824 356.278L146.516 358.2L158.802 341.293C182.885 303.622 182.288 279.826 177.727 273.928C173.166 268.029 165.787 273.199 160.175 278.512C154.563 283.826 148.856 290.942 147.232 290.023C145.608 289.103 144.999 287.635 146.038 284.148C147.077 280.662 157.381 249.427 148.689 239.97C139.996 230.514 121.143 249.904 117.907 251.91C114.672 253.916 113.514 250.573 113.776 248.328C114.039 246.083 117.048 220.639 118.839 209.117C120.63 197.595 118.624 189.631 111.675 187.339C104.953 185.13 99.0423 195.697 94.8872 199.374C90.732 203.052 87.162 197.01 87.162 197.01C87.162 197.01 82.386 180.76 69.3117 152.39C56.2374 124.021 44.0228 131.495 44.0228 131.495" fill="#EAEAEA"/>
<path d="M147.304 363.084C137.752 342.212 121.442 304.828 107.257 272.805C93.0723 240.782 80.2129 211.828 70.7803 190.909L59.5925 166.145L56.5598 159.411C56.2254 158.647 55.9628 158.074 55.7837 157.644C55.6046 157.214 55.5329 157.035 55.5329 157.035C55.5329 157.035 55.6523 157.238 55.8434 157.62C56.0344 158.002 56.309 158.611 56.6672 159.351C57.4075 160.903 58.4582 163.148 59.8194 166.038C62.5536 171.841 66.4342 180.282 71.1982 190.718C80.7502 211.589 93.6693 240.531 107.842 272.542C122.015 304.554 138.289 341.974 147.722 362.892" fill="#E0E0E0"/>
<path d="M58.1239 223.278C58.6126 223.394 59.0885 223.558 59.5448 223.767C60.4522 224.114 61.7298 224.651 63.3178 225.344C66.4819 226.717 70.8042 228.723 75.5324 231.015L87.6276 236.985L91.3052 238.764C91.7704 238.952 92.2146 239.188 92.6305 239.469C92.1374 239.36 91.6571 239.2 91.1977 238.991C90.3022 238.645 89.0127 238.096 87.4366 237.403C84.2844 235.934 79.998 233.881 75.222 231.636L63.0909 225.785L59.4134 224.03C58.955 223.832 58.5221 223.579 58.1239 223.278Z" fill="#E0E0E0"/>
<path d="M94.123 238.167C93.9558 238.096 97.705 228.997 102.481 217.869C107.257 206.741 111.269 197.726 111.436 197.798C111.603 197.87 107.854 206.968 103.078 218.096C98.302 229.224 94.326 238.239 94.123 238.167Z" fill="#E0E0E0"/>
<path d="M113.681 288.315C113.934 287.882 114.239 287.482 114.588 287.121L117.239 283.897C119.472 281.187 122.54 277.414 125.764 273.151C128.988 268.889 131.806 264.901 133.812 262.011L136.2 258.585C136.468 258.155 136.78 257.755 137.131 257.391C136.934 257.868 136.69 258.324 136.403 258.752C135.901 259.6 135.209 260.805 134.194 262.334C132.295 265.295 129.537 269.319 126.289 273.605C123.042 277.892 119.925 281.629 117.597 284.279C116.403 285.605 115.472 286.667 114.791 287.372C114.45 287.719 114.079 288.035 113.681 288.315Z" fill="#E0E0E0"/>
<path d="M78.1592 281.999C78.6315 281.971 79.1055 282.007 79.5681 282.106L83.3889 282.632C86.6008 283.097 91.0425 283.826 95.9379 284.602C100.833 285.378 105.263 286.166 108.463 286.751L112.248 287.479C112.718 287.546 113.179 287.666 113.621 287.838C113.158 287.856 112.694 287.828 112.236 287.754L108.427 287.229C105.203 286.763 100.762 286.035 95.8662 285.259C90.9708 284.483 86.5411 283.683 83.3412 283.097L79.5681 282.369C79.0855 282.302 78.6126 282.177 78.1592 281.999Z" fill="#E0E0E0"/>
<path d="M89.8007 328.458C90.405 328.458 91.0082 328.51 91.6037 328.613L96.4991 329.269C100.63 329.854 106.326 330.69 112.606 331.657C118.887 332.625 124.546 333.544 128.689 334.236L133.549 335.096C134.15 335.17 134.743 335.306 135.316 335.502C134.712 335.502 134.108 335.45 133.513 335.347L128.618 334.69C124.486 334.117 118.791 333.269 112.511 332.302C106.23 331.335 100.571 330.416 96.4274 329.723L91.5678 328.863C90.9663 328.79 90.3741 328.654 89.8007 328.458Z" fill="#E0E0E0"/>
<path d="M134.277 335.036C134.605 334.476 134.981 333.945 135.4 333.448L138.611 329.245C141.31 325.663 145.035 320.78 148.987 315.24C152.939 309.7 156.402 304.601 158.874 300.912L161.799 296.506C162.159 295.953 162.558 295.426 162.993 294.93C162.73 295.527 162.418 296.102 162.062 296.649C161.429 297.724 160.497 299.264 159.303 301.151C156.915 304.936 153.525 310.094 149.56 315.646C145.596 321.198 141.811 326.069 139.017 329.556C137.608 331.287 136.462 332.684 135.638 333.627C135.228 334.137 134.773 334.609 134.277 335.036Z" fill="#E0E0E0"/>
<path d="M443.547 506.256C444.743 506.782 445.82 507.543 446.715 508.495C447.609 509.447 448.303 510.57 448.753 511.796C449.642 514.264 449.957 516.902 449.672 519.51C449.254 524.536 446.568 529.694 443.619 533.837C439.285 530.255 438.114 523.891 437.72 520.608C437.1 515.414 439.141 505.659 443.547 506.28" fill="#06B6D4"/>
<path d="M448.789 541.861C448.447 540.441 448.489 538.956 448.908 537.557C449.328 536.158 450.11 534.895 451.177 533.897C452.263 532.921 453.534 532.171 454.913 531.692C456.293 531.212 457.755 531.012 459.212 531.103C459.882 531.078 460.549 531.199 461.167 531.456C461.786 531.714 462.341 532.103 462.794 532.596C463.135 533.125 463.329 533.735 463.358 534.364C463.388 534.993 463.251 535.619 462.962 536.178C462.352 537.287 461.463 538.217 460.383 538.876C456.801 541.264 452.884 542.96 448.705 541.849" fill="#06B6D4"/>
<path d="M443.846 557.395C443.858 557.05 443.898 556.707 443.965 556.368C444.072 555.64 444.216 554.697 444.395 553.562C444.767 550.449 445.642 547.417 446.986 544.583C448.387 541.748 450.517 539.337 453.159 537.599C453.965 537.102 454.827 536.702 455.726 536.405C455.972 536.318 456.223 536.247 456.478 536.19C456.645 536.19 456.741 536.13 456.741 536.19C455.54 536.642 454.388 537.214 453.302 537.897C450.755 539.665 448.701 542.052 447.332 544.834C446.007 547.639 445.106 550.624 444.657 553.694C444.443 554.888 444.263 555.819 444.12 556.476C444.058 556.79 443.966 557.098 443.846 557.395Z" fill="#374151"/>
<path d="M442.652 513.754C442.669 513.905 442.669 514.057 442.652 514.208C442.652 514.542 442.723 514.972 442.771 515.498C442.867 516.62 442.986 518.244 443.117 520.274C443.368 524.285 443.643 529.826 443.81 535.975C443.977 542.124 443.989 547.664 443.953 551.688C443.953 553.694 443.953 555.329 443.87 556.464C443.87 556.989 443.87 557.419 443.87 557.753C443.885 557.904 443.885 558.056 443.87 558.207C443.87 558.207 443.87 558.052 443.87 557.753C443.87 557.455 443.87 556.989 443.87 556.464C443.87 555.27 443.87 553.67 443.87 551.688C443.87 547.664 443.786 542.136 443.619 535.987C443.452 529.837 443.225 524.297 443.034 520.285C442.938 518.315 442.867 516.703 442.807 515.509C442.807 514.972 442.807 514.542 442.807 514.208C442.741 514.062 442.69 513.91 442.652 513.754Z" fill="#374151"/>
<path d="M441.577 545.133C440.972 542.11 439.656 539.275 437.738 536.862C435.819 534.449 433.353 532.528 430.544 531.258C429.112 530.626 427.261 530.243 426.127 531.33C424.992 532.417 425.315 534.291 425.936 535.736C427.266 538.721 429.45 541.245 432.212 542.992C434.974 544.738 438.191 545.629 441.458 545.551" fill="#06B6D4"/>
<path d="M431.38 535.999C431.693 536.09 431.997 536.21 432.288 536.357C432.639 536.508 432.982 536.68 433.315 536.87C433.765 537.103 434.203 537.358 434.628 537.634C435.094 537.945 435.619 538.279 436.132 538.697C436.646 539.115 437.195 539.569 437.756 540.07C438.925 541.199 439.963 542.457 440.849 543.819C441.717 545.189 442.422 546.656 442.95 548.189C443.179 548.862 443.367 549.547 443.511 550.243C443.653 550.841 443.757 551.447 443.822 552.058C443.887 552.565 443.927 553.075 443.941 553.586C443.974 553.984 443.974 554.383 443.941 554.78C443.949 555.104 443.925 555.428 443.869 555.747C443.786 555.747 443.869 554.35 443.571 552.165C443.475 551.616 443.392 550.971 443.225 550.386C443.058 549.801 442.866 549.073 442.64 548.38C442.101 546.874 441.396 545.432 440.538 544.082C439.664 542.749 438.651 541.513 437.517 540.392C437.021 539.904 436.499 539.441 435.953 539.007C435.452 538.578 434.938 538.243 434.485 537.921C432.634 536.607 431.344 536.106 431.38 535.999Z" fill="#374151"/>
<path d="M85.3113 527.748C86.4098 523.474 83.6039 519.187 80.5353 516.083C77.4667 512.978 73.634 510.208 72.0101 506.113C69.3594 499.474 72.9176 490.889 68.4281 485.349C65.67 482.137 60.894 481.051 58.5657 477.6C57.4772 475.676 56.7565 473.567 56.4404 471.379C53.9332 460.349 48.506 450.196 40.7273 441.983C40.2043 451.81 42.3366 461.597 46.9003 470.317C48.7271 473.803 50.9718 477.194 51.5808 481.063C52.5599 487.379 49.0376 493.874 50.5898 500.071C52.3569 507.163 60.3209 511.904 60.7029 519.175C61.0134 525.336 55.6404 530.757 56.0463 536.918C56.3686 539.535 57.3055 542.039 58.7806 544.225C63.5566 552.153 70.5534 557.61 81.18 557.431L94.1827 557.885L85.3113 527.748Z" fill="#06B6D4"/>
<g opacity="0.3">
<path opacity="0.3" d="M85.3113 527.748C86.4098 523.474 83.6039 519.187 80.5353 516.083C77.4667 512.978 73.634 510.208 72.0101 506.113C69.3594 499.474 72.9176 490.889 68.4281 485.349C65.67 482.137 60.894 481.051 58.5657 477.6C57.4772 475.676 56.7565 473.567 56.4404 471.379C53.9332 460.349 48.506 450.196 40.7273 441.983C40.2043 451.81 42.3366 461.597 46.9003 470.317C48.7271 473.803 50.9718 477.194 51.5808 481.063C52.5599 487.379 49.0376 493.874 50.5898 500.071C52.3569 507.163 60.3209 511.904 60.7029 519.175C61.0134 525.336 55.6404 530.757 56.0463 536.918C56.3686 539.535 57.3055 542.039 58.7806 544.225C63.5566 552.153 70.5534 557.61 81.18 557.431L94.1827 557.885L85.3113 527.748Z" fill="black"/>
</g>
<path d="M96.8095 558.231C97.9988 558.412 99.2104 558.388 100.392 558.159C101.832 557.939 103.248 557.58 104.618 557.085C106.509 556.432 108.276 555.467 109.848 554.231C110.795 553.473 111.535 552.487 111.997 551.365C112.387 550.108 112.592 548.801 112.606 547.485C112.629 546.079 112.733 544.676 112.917 543.282C113.164 541.797 113.704 540.377 114.505 539.103C116.033 536.404 118.576 533.849 119.4 530.196C120.224 526.542 119.651 522.709 119.042 518.805C118.433 514.901 117.848 510.65 119.352 506.578C120.857 502.507 123.603 498.841 125.024 494.256C126.445 489.671 125.776 484.645 126.086 479.737C126.175 477.243 126.747 474.79 127.77 472.514C128.833 470.221 130.289 468.048 131.424 465.624C133.74 460.729 134.146 455.177 134.779 449.732C135.081 446.986 135.392 444.2 135.71 441.374C135.902 438.546 136.386 435.745 137.155 433.016C138.032 430.275 139.069 427.588 140.259 424.968C140.878 423.611 141.386 422.206 141.776 420.766C141.991 419.285 142.13 417.795 142.193 416.3C142.334 413.295 142.219 410.283 141.847 407.297C141.489 404.3 140.952 401.327 140.653 398.318C140.653 398.139 140.653 397.96 140.653 397.793L140.582 397.196L140.056 397.459C137.296 398.864 134.898 400.886 133.047 403.369C131.247 405.795 129.8 408.464 128.749 411.297C126.576 416.885 125.8 422.736 124.701 428.324C123.603 433.912 122.23 439.404 119.364 444.049C117.931 446.365 116.212 448.478 114.696 450.747C113.087 452.946 111.986 455.474 111.472 458.15C110.708 463.654 113.74 468.49 113.108 473.349C112.802 475.746 111.988 478.05 110.72 480.107C109.526 482.185 108.153 484.107 106.839 486.077C105.498 487.96 104.327 489.958 103.341 492.047C102.426 494.108 101.888 496.316 101.753 498.567C101.43 502.949 102.051 507.104 101.753 511.032C101.367 514.798 100.239 518.45 98.4334 521.778C96.8692 524.978 95.114 527.879 93.6574 530.685C92.929 532.082 92.2484 533.455 91.6873 534.828C91.143 536.151 90.7427 537.528 90.4933 538.936C90.0997 541.393 90.0675 543.895 90.3977 546.362C90.736 549.798 92.0215 553.071 94.1111 555.819C94.4265 556.246 94.778 556.646 95.1618 557.013C95.4213 557.282 95.7096 557.523 96.0215 557.729C96.4991 558.088 96.7618 558.255 96.7618 558.255C95.8611 557.505 95.0444 556.661 94.326 555.735C92.2957 552.989 91.0569 549.739 90.744 546.339C90.4459 543.904 90.5022 541.438 90.9112 539.019C91.1631 537.643 91.5635 536.298 92.1052 535.007C92.6544 533.67 93.2992 532.309 94.0872 530.924C95.5678 528.142 97.3349 525.264 98.9348 522.041C100.747 518.668 101.879 514.972 102.266 511.163C102.6 507.151 102.003 502.984 102.326 498.698C102.467 496.521 102.993 494.387 103.878 492.394C104.842 490.332 105.998 488.365 107.329 486.519C108.642 484.597 110.039 482.663 111.257 480.549C112.576 478.413 113.423 476.019 113.74 473.528C114.361 468.335 111.352 463.475 112.14 458.365C112.642 455.799 113.706 453.377 115.257 451.272C116.737 449.051 118.481 446.938 119.937 444.562C122.898 439.786 124.331 434.186 125.406 428.574C126.48 422.963 127.292 417.16 129.43 411.691C130.451 408.933 131.862 406.336 133.621 403.978C135.386 401.592 137.684 399.65 140.331 398.306L139.722 397.972C139.722 398.139 139.722 398.318 139.722 398.498C140.056 401.542 140.594 404.527 140.916 407.488C141.287 410.43 141.403 413.398 141.262 416.36C141.205 417.81 141.074 419.257 140.868 420.694C140.488 422.079 140.001 423.432 139.411 424.742C138.202 427.39 137.153 430.11 136.271 432.885C135.492 435.645 135 438.477 134.803 441.338C134.492 444.132 134.194 446.914 133.883 449.696C133.262 455.165 132.856 460.621 130.636 465.361C129.537 467.749 128.08 469.887 127.054 472.263C125.999 474.624 125.407 477.165 125.31 479.749C125.024 484.764 125.68 489.671 124.319 494.077C122.958 498.483 120.14 502.184 118.707 506.387C117.275 510.59 117.812 515.02 118.433 518.9C119.054 522.781 119.687 526.626 118.851 530.088C118.015 533.551 115.627 536.058 114.075 538.876C113.261 540.223 112.718 541.715 112.475 543.27C112.304 544.685 112.213 546.108 112.2 547.533C112.199 548.811 112.01 550.082 111.639 551.306C111.199 552.361 110.506 553.292 109.621 554.016C108.096 555.25 106.378 556.222 104.535 556.894C103.183 557.398 101.788 557.778 100.368 558.028C99.4921 558.182 98.6058 558.266 97.717 558.279C97.12 558.219 96.8095 558.231 96.8095 558.231Z" fill="#374151"/>
<path d="M137.895 405.041C137.843 405.168 137.803 405.3 137.776 405.435C137.692 405.745 137.597 406.127 137.489 406.629C137.226 407.655 136.928 409.196 136.438 411.13C135.949 413.064 134.743 415.237 133.74 417.924C132.737 420.61 131.627 423.679 130.647 427.142C129.668 430.604 128.773 434.461 127.854 438.592C127.068 442.998 125.665 447.271 123.686 451.284C122.624 453.398 121.43 455.535 120.475 457.875C119.539 460.274 118.909 462.781 118.6 465.338C117.956 470.622 117.027 475.867 115.818 481.051L108.475 511.092C106.159 520.309 104.069 528.608 102.302 535.604C100.535 542.601 99.2094 548.165 98.2184 552.141C97.7647 554.04 97.4184 555.556 97.1558 556.643C97.0483 557.12 96.9647 557.514 96.8931 557.837C96.8797 557.972 96.8797 558.108 96.8931 558.243C96.9534 558.12 97.0014 557.992 97.0364 557.861C97.1319 557.55 97.2393 557.168 97.3707 556.667C97.6692 555.58 98.0751 554.088 98.5647 552.201C99.6035 548.237 101.084 542.649 102.899 535.724C104.714 528.799 106.863 520.453 109.239 511.259C111.615 502.065 114.015 491.868 116.666 481.206C117.857 476.001 118.77 470.736 119.4 465.433C119.689 462.939 120.295 460.491 121.203 458.15C122.122 455.869 123.304 453.744 124.367 451.607C126.66 447.368 127.603 442.819 128.522 438.711C129.442 434.604 130.253 430.736 131.197 427.273C132.14 423.81 133.155 420.73 134.158 418.067C135.161 415.405 136.259 413.184 136.737 411.19C137.214 409.196 137.429 407.679 137.644 406.641C137.728 406.151 137.788 405.769 137.847 405.447C137.879 405.314 137.895 405.177 137.895 405.041Z" fill="#374151"/>
<path d="M99.102 558.267C107.603 553.228 110.039 537.897 106.493 528.679C102.947 519.462 96.7498 511.02 95.7468 501.217C95.0066 493.647 97.4901 485.898 95.7468 478.531C93.3588 468.561 83.6397 460.836 83.8068 450.58C83.8785 444.837 87.15 439.416 86.8874 433.673C86.565 426.628 81.1562 421.04 77.801 414.831C72.6788 405.279 72.3444 394.092 70.637 383.441C68.9296 372.791 64.8222 361.364 55.3777 356.134C53.9807 365.173 51.6047 371.37 52.3449 383.596C52.6196 387.99 57.7299 396.42 58.4224 406.067C58.8403 411.835 59.1269 417.602 59.4851 423.369C59.8433 429.136 60.1895 434.7 62.2074 439.953C63.7476 443.977 66.2192 447.643 67.3655 451.798C69.5266 459.606 66.6849 468.084 68.4281 476C69.9087 482.71 74.5533 488.489 75.4966 495.295C76.8339 504.847 70.637 514.781 73.8131 523.951C75.3772 528.476 79.1025 532.106 80.1651 536.787C80.9771 540.369 80.0816 544.249 80.8338 547.891C82.0278 553.753 93.2156 558.314 99.1975 557.944" fill="#06B6D4"/>
<path d="M57.6344 365.066C57.6184 365.236 57.6184 365.408 57.6344 365.579C57.6344 365.961 57.7538 366.451 57.8254 367.06C58.0284 368.373 58.2433 370.283 58.6851 372.767C59.1269 375.25 60.4403 378.068 61.4671 381.459C62.494 384.85 63.6283 388.731 64.5835 393.089C65.5387 397.447 66.3625 402.271 67.2222 407.417C68.0819 412.563 69.0013 418.258 71.5684 423.667C72.7624 426.377 74.0996 429.1 75.1504 432.025C76.1297 434.999 76.7314 438.083 76.9414 441.207C77.4157 447.842 78.2487 454.446 79.4368 460.991C82.0278 474.388 84.5113 487.164 86.768 498.782L93.132 529.575C94.9588 538.291 96.4394 545.359 97.4662 550.315C97.9916 552.703 98.3975 554.601 98.6602 555.938C98.8035 556.547 98.911 557.025 99.0065 557.395C99.102 557.765 99.1259 557.896 99.1498 557.885C99.143 557.716 99.123 557.548 99.0901 557.383C99.0184 557.001 98.9348 556.511 98.8274 555.902C98.5766 554.553 98.2184 552.655 97.7647 550.243C96.7856 545.276 95.3767 538.195 93.6932 529.455C92.0096 520.715 89.8604 510.232 87.5441 498.638C85.2277 487.045 82.8158 474.257 80.2487 460.884C79.0613 454.359 78.2243 447.774 77.7413 441.159C77.5173 437.974 76.8956 434.829 75.8906 431.798C74.8519 428.849 73.5026 426.115 72.3086 423.44C69.7535 418.115 68.846 412.551 67.9386 407.381C67.0312 402.211 66.2073 397.363 65.1924 392.993C64.3075 389.06 63.2235 385.175 61.9447 381.352C60.8701 377.949 59.5567 375.167 59.0314 372.731C58.506 370.295 58.2791 368.361 58.0284 367.071C57.9209 366.463 57.8254 365.973 57.7538 365.603C57.7368 365.419 57.6967 365.239 57.6344 365.066Z" fill="#374151"/>
<path d="M321.186 557.873H155.017C134.934 557.789 118.003 540.667 118.003 520.584L119.77 102.075C119.79 97.2888 120.755 92.5537 122.609 88.1412C124.463 83.7286 127.17 79.7254 130.574 76.361C133.979 72.9967 138.013 70.3373 142.448 68.5355C146.882 66.7337 151.628 65.8248 156.414 65.861L323.347 66.6371C328.121 66.6575 332.844 67.6181 337.247 69.4642C341.65 71.3103 345.645 74.0056 349.006 77.3963C352.367 80.787 355.027 84.8065 356.834 89.2253C358.641 93.6442 359.559 98.3757 359.537 103.15L357.77 521.671C357.75 526.451 356.787 531.181 354.937 535.589C353.086 539.997 350.385 543.996 346.986 547.359C343.588 550.722 339.56 553.381 335.133 555.185C330.706 556.989 325.967 557.902 321.186 557.873Z" fill="#0A2961"/>
<path d="M323.419 82.5412L291.049 82.386C288.919 82.4268 286.892 83.3107 285.413 84.8439C283.933 86.3772 283.122 88.4345 283.157 90.5649V96.4394C283.192 98.5697 282.381 100.627 280.902 102.16C279.422 103.694 277.395 104.577 275.265 104.618L212.174 104.332C211.118 104.304 210.079 104.068 209.115 103.639C208.15 103.209 207.28 102.593 206.554 101.827C205.828 101.061 205.259 100.159 204.882 99.1731C204.504 98.1872 204.325 97.1365 204.353 96.0812V90.2067C204.408 88.0742 203.613 86.0072 202.145 84.4602C200.676 82.9131 198.653 82.0124 196.52 81.9562H185.142L156.808 81.8248C153.464 81.8107 150.149 82.4554 147.054 83.7223C143.958 84.9891 141.143 86.8532 138.768 89.2082C136.393 91.5631 134.505 94.3628 133.212 97.4473C131.919 100.532 131.247 103.841 131.233 107.185L129.501 515.689C129.486 519.033 130.129 522.347 131.394 525.442C132.66 528.537 134.523 531.353 136.877 533.728C139.231 536.103 142.03 537.991 145.114 539.284C148.198 540.577 151.506 541.25 154.85 541.264L321.449 542.028C324.795 542.045 328.111 541.403 331.209 540.137C334.306 538.872 337.124 537.008 339.5 534.653C341.877 532.297 343.765 529.496 345.058 526.41C346.352 523.324 347.024 520.014 347.036 516.668L348.767 108.117C348.796 101.364 346.142 94.8768 341.388 90.0807C336.635 85.2847 330.171 82.5728 323.419 82.5412Z" fill="#F5F5F5"/>
<path d="M252.71 464.776C252.519 469.708 252.34 474.328 252.185 478.185H276.065L273.139 463.487L252.71 464.776Z" fill="#F5F5F5"/>
<path d="M155.447 470.926L155.65 478.185H249.797C249.952 474.114 250.131 469.588 250.31 464.932L155.447 470.926Z" fill="#F5F5F5"/>
<path d="M274.393 463.403L277.33 478.185H321.461L320.923 460.466L274.393 463.403Z" fill="#F5F5F5"/>
<path d="M255.098 256.853L263.444 208.484L241.594 206.86V256.853H255.098Z" fill="#F5F5F5"/>
<path d="M153.477 444.073L129.764 453.362L129.692 470.161L154.181 468.621L153.477 444.073Z" fill="#F5F5F5"/>
<path d="M153.369 440.299L152.068 395.25H152.056V379.37L130.062 381.698L129.776 449.517L153.357 440.276L153.369 440.299Z" fill="#F5F5F5"/>
<path d="M152.056 343.896L130.242 341.018L130.086 378.092L152.056 375.764V343.896Z" fill="#F5F5F5"/>
<path d="M314.667 380.038L313.747 392.945L287.981 395.727L289.975 405.936L319.216 403.727L318.786 389.089L321.114 379.381L314.667 380.038Z" fill="#F5F5F5"/>
<path d="M268.22 407.572L288.769 406.032L284.291 383.095L266.358 384.91L268.22 407.572Z" fill="#F5F5F5"/>
<path d="M268.423 409.96L269.987 429.076L272.781 455.308L273.916 461.039L320.852 458.078L319.288 406.127L268.423 409.96Z" fill="#F5F5F5"/>
<path d="M187.637 319.682L189.44 322.786L153.25 343.872V394.02L191.458 391.322L265.068 383.835L262.382 351.036L192.043 341.842L192.509 338.26L262.083 347.347L257.522 291.79L188.652 298.428L188.425 296.04L257.319 289.414L254.931 260.423H188.652L130.54 271.038L130.253 337.412L152.283 340.29L187.637 319.682ZM156.951 389.244C156.951 389.244 157.226 347.944 156.951 346.403L186.491 330.69L190.324 387.131L156.951 389.244Z" fill="#F5F5F5"/>
<path d="M312.243 380.277L285.485 382.975L287.515 393.375L311.503 390.784L312.243 380.277Z" fill="#F5F5F5"/>
<path d="M253.044 455.929C252.961 458.102 252.877 460.263 252.806 462.376L272.722 461.123L271.695 455.977L253.044 455.929Z" fill="#F5F5F5"/>
<path d="M210.144 256.853L213.654 240.949H240.4V206.777L156.784 200.58V232.663L130.671 238.573L130.552 267.384L188.377 256.853H210.144Z" fill="#F5F5F5"/>
<path d="M265.94 161.775L265.223 158.85L297.151 146.217L276.387 104.523C275.992 104.587 275.593 104.619 275.193 104.618L239.994 104.451L240.949 162.802L265.94 161.775Z" fill="#F5F5F5"/>
<path d="M314.32 139.423V82.4934L291.049 82.386C288.919 82.4268 286.892 83.3107 285.413 84.8439C283.933 86.3772 283.122 88.4345 283.157 90.5649V96.4394C283.156 97.7511 282.847 99.0442 282.253 100.214C281.66 101.384 280.8 102.398 279.742 103.174L300.518 144.892L314.32 139.423Z" fill="#F5F5F5"/>
<path d="M194.3 141.859L191.601 81.9323H185.142L159.889 81.8129L149.143 135.412L194.3 141.859ZM188.545 87.9978L189.404 136.809L155.841 131.901L163.184 87.9978H188.545Z" fill="#F5F5F5"/>
<path d="M195.518 142.086V142.599C195.518 147.268 195.661 155.733 195.732 164.688L239.707 162.897L238.8 104.451L212.186 104.332C211.13 104.304 210.091 104.068 209.127 103.639C208.162 103.209 207.292 102.593 206.566 101.827C205.84 101.061 205.271 100.159 204.894 99.1731C204.516 98.1872 204.336 97.1365 204.365 96.0812V90.2067C204.42 88.0742 203.625 86.0073 202.157 84.4602C200.688 82.9131 198.665 82.0124 196.532 81.9562H192.819L195.506 142.086H195.518Z" fill="#F5F5F5"/>
<path d="M145.584 134.922L156.235 81.8606C149.583 81.973 143.24 84.6873 138.566 89.4215C133.893 94.1556 131.26 100.533 131.233 107.185L131.113 133.644L131.233 132.868L145.584 134.922Z" fill="#F5F5F5"/>
<path d="M153.202 200.317L130.839 198.658L130.683 234.896L153.202 229.809V200.317Z" fill="#F5F5F5"/>
<path d="M145.346 136.044L131.113 134.003L130.862 192.676L133.931 192.903L145.346 136.044Z" fill="#F5F5F5"/>
<path d="M190.515 439.619L190.897 392.504L153.262 395.166L154.599 441.314L190.515 439.619Z" fill="#F5F5F5"/>
<path d="M197.44 428.741L250.74 454.269C251.385 437.553 251.934 422.031 251.934 420.992H253.128L253.701 419.87C254.453 420.252 254.453 420.252 254.059 431.619C253.832 437.959 253.522 446.401 253.2 454.854H271.516L268.805 429.255L265.223 385.077L195.601 392.098L197.44 428.741Z" fill="#F5F5F5"/>
<path d="M328.051 350.558L327.443 344.35L263.576 350.988L266.262 383.716L321.413 378.152L328.051 350.558Z" fill="#F5F5F5"/>
<path d="M240.4 244.531H216.532L213.81 256.853H240.4V244.531Z" fill="#F5F5F5"/>
<path d="M318.189 248.686L258.429 244.555L256.041 258.668L258.561 289.306L321.58 283.253L318.189 248.686ZM260.626 258.644L263.838 249.737L315.741 253.021L318.798 278.5L262.441 285.187L260.626 258.644Z" fill="#F5F5F5"/>
<path d="M324.386 312.721L321.759 285.629L258.704 291.694L261.08 320.529L324.386 312.721Z" fill="#F5F5F5"/>
<path d="M154.253 471.009L129.788 472.549L129.692 470.961L129.656 478.185H154.456L154.253 471.009Z" fill="#F5F5F5"/>
<path d="M348.326 125.967L348.684 126.874L348.767 108.117C348.796 101.364 346.142 94.8767 341.388 90.0807C336.635 85.2847 330.171 82.5727 323.419 82.5411H315.479V138.982L348.326 125.967Z" fill="#F5F5F5"/>
<path d="M250.668 455.571L196.282 429.518L194.359 392.169L192.091 392.408L191.697 440.753L154.623 442.508V443.595L155.339 468.514L250.37 462.544C250.489 460.215 250.585 457.887 250.668 455.571ZM156.951 445.589L208.843 441.947L242.597 457.612L156.951 462.245V445.589Z" fill="#F5F5F5"/>
<path d="M332.863 188.652L335.096 175.518C315.586 168.557 314.237 148.211 314.297 142.086L301.557 147.125L320.732 185.607L332.863 188.652Z" fill="#F5F5F5"/>
<path d="M263.277 347.418L289.796 344.66L284.578 321.234L261.367 324.099L263.277 347.418Z" fill="#F5F5F5"/>
<path d="M318.273 208.89L268.746 208.878L264.638 208.568L259.038 241.009L317.831 245.068L316.47 230.967L322.261 210.144L318.273 208.89Z" fill="#F5F5F5"/>
<path d="M317.067 202.98L317.688 187.458L298.225 148.378L268.041 160.318L278.417 202.98H317.067ZM297.043 153.178L314.882 187.112L312.303 197.679L281.784 196.485L274.154 164.39L297.043 153.178Z" fill="#F5F5F5"/>
<path d="M324.768 389.71L325.687 420.109L347.144 418.903L347.215 420.097L325.723 421.303L326.81 457.696L347.108 456.418L347.251 458.794L326.881 460.084L327.431 478.185H347.203L347.633 376.707L327.407 378.749L324.768 389.71Z" fill="#F5F5F5"/>
<path d="M194.335 143.077L148.892 136.546L137.525 193.165L194.538 197.392C194.765 188.652 194.622 161.942 194.335 143.077Z" fill="#F5F5F5"/>
<path d="M269.08 202.92H275.957L266.226 162.957L240.937 163.996L241.546 200.878L269.08 202.92Z" fill="#F5F5F5"/>
<path d="M195.697 197.476L240.34 200.783L239.743 164.044L195.816 165.835C195.816 178.264 195.888 191.518 195.697 197.476Z" fill="#F5F5F5"/>
<path d="M324.732 316.291L285.76 321.091L291.002 344.541L327.096 340.78L324.732 316.291Z" fill="#F5F5F5"/>
<path d="M335.299 174.324L337.795 159.506L348.541 160.342L348.684 128.451L315.503 141.585C314.822 163.96 328.923 171.852 335.299 174.324Z" fill="#F5F5F5"/>
<path d="M322.523 231.505L323.873 245.486L348.182 247.17L348.302 218.371L327.956 211.935L322.523 231.505Z" fill="#F5F5F5"/>
<path d="M334.081 351.036L327.705 377.579L347.633 375.561L347.753 347.74C341.639 346.129 336.302 344.815 333.425 344.254L334.081 351.036Z" fill="#F5F5F5"/>
<path d="M320.637 203.362L348.326 212.114L348.397 196.365L321.198 189.333L320.637 203.362Z" fill="#F5F5F5"/>
<path d="M333.126 340.553C335.359 340.887 339.586 341.747 347.812 343.956L348.075 283.062L327.777 285.02L333.126 340.553Z" fill="#F5F5F5"/>
<path d="M327.478 282.68L348.039 280.697L348.159 250.764L324.219 249.104L327.478 282.68Z" fill="#F5F5F5"/>
<path d="M337.592 175.017C341.484 176.195 345.11 177.118 348.469 177.787V162.683L339.717 162.002L337.592 175.017Z" fill="#F5F5F5"/>
<path d="M335.192 189.249L348.409 192.676L348.469 179.016C345.042 178.336 341.305 177.405 337.389 176.199L335.192 189.249Z" fill="#F5F5F5"/>
<path d="M347.251 458.794L347.108 456.406L326.81 457.684L325.723 421.291L347.215 420.097L347.144 418.903L325.652 420.097L324.768 389.71L327.407 378.749L347.633 376.707V375.513L327.705 377.531L334.081 351.036L333.425 344.254C336.302 344.815 341.639 346.129 347.753 347.741V344.015C339.526 341.854 335.299 340.947 333.066 340.612L327.693 285.115L347.991 283.157V280.769L327.431 282.751L324.171 249.176L348.051 250.836V247.254L323.741 245.57L322.392 231.588L327.825 212.019L348.123 218.454V212.198L320.434 203.458L320.995 189.416L348.194 196.449V192.759L334.977 189.333L337.174 176.282C341.138 177.476 344.827 178.419 348.254 179.1V177.906C344.895 177.237 341.269 176.314 337.377 175.136L339.562 162.121L348.314 162.802V160.414L337.568 159.578L335.299 174.324C328.923 171.936 314.822 164.02 315.503 141.585L348.684 128.451V126.934L348.326 126.027L315.515 139.005V82.5651H314.321V139.495L300.494 144.964L279.718 103.245C278.732 103.956 277.59 104.419 276.387 104.594L297.151 146.289L265.223 158.802L265.94 161.727L240.866 162.754L239.994 104.451H238.8L239.755 162.85L195.78 164.641C195.709 155.638 195.613 147.22 195.565 142.552V142.086L192.867 81.9801H191.673L194.371 141.907L149.202 135.423L159.948 81.8248H156.868C156.677 81.8248 156.486 81.8248 156.295 81.8248L145.584 134.922L131.256 132.868L131.137 133.644V134.062L145.37 136.104L133.955 192.962L130.886 192.735V198.705L153.25 200.365V229.857L130.731 234.943V238.621L156.844 232.711V200.592L240.424 206.789V240.949H213.678L210.144 256.853H188.377L130.552 267.372V271.038L188.652 260.435H254.895L257.283 289.426L188.425 296.112L188.652 298.5L257.522 291.873L262.083 347.43L192.509 338.344L192.043 341.926L262.382 351.12L265.068 383.835L191.434 391.274L153.226 393.972V343.872L189.416 322.762L187.613 319.658L152.283 340.29L130.254 337.377V340.959L152.056 343.872V375.74L130.086 378.128V381.71L152.08 379.322V395.214L153.381 440.264L129.8 449.505V453.35L153.513 444.061L154.217 468.609L129.728 470.149V470.949L129.824 472.537L154.289 470.997L154.492 478.161H155.686L155.483 470.902L250.346 464.932C250.167 469.588 249.988 474.113 249.833 478.185H252.221C252.376 474.34 252.555 469.708 252.746 464.776L273.223 463.487L276.148 478.185H277.342L274.405 463.403L320.971 460.466L321.508 478.185H327.478L347.251 458.794ZM252.853 462.376C252.925 460.263 253.009 458.102 253.092 455.929H271.743L272.769 461.075L252.853 462.376ZM273.963 461.039L272.769 455.308L269.987 429.04L268.423 409.936L319.288 406.103L320.852 458.054L273.963 461.039ZM285.533 382.975L312.303 380.277L311.55 390.784L287.563 393.375L285.533 382.975ZM284.339 383.095L288.817 406.032L268.268 407.572L266.405 384.886L284.339 383.095ZM319.264 403.739L289.975 405.96L287.981 395.751L313.747 392.969L314.655 380.062L321.114 379.405L318.798 389.089L319.264 403.739ZM284.638 321.234L289.855 344.66L263.277 347.454L261.367 324.135L284.638 321.234ZM291.061 344.541L285.82 321.09L324.792 316.314L327.18 340.803L291.061 344.541ZM317.891 245.068L259.098 241.009L264.698 208.568L268.805 208.878H318.344L322.261 210.144L316.47 230.967L317.891 245.068ZM314.309 142.002C314.249 148.152 315.598 168.497 335.108 175.434L332.863 188.652L320.732 185.524L301.557 147.041L314.309 142.002ZM298.237 148.355L317.688 187.458L317.067 202.98H278.417L268.041 160.366L298.237 148.355ZM266.262 162.957L275.957 202.98H269.08L241.546 200.938L240.937 164.056L266.262 162.957ZM239.779 164.044L240.376 200.783L195.732 197.476C195.924 191.506 195.888 178.264 195.732 165.835L239.779 164.044ZM148.928 136.582L194.371 143.113C194.598 161.978 194.801 188.712 194.574 197.428L137.561 193.201L148.928 136.582ZM263.48 208.52L255.122 256.889H241.594V206.86L263.48 208.52ZM216.532 244.531H240.412V256.853H213.81L216.532 244.531ZM255.994 258.668L258.382 244.555L318.141 248.686L321.485 283.253L258.465 289.306L255.994 258.668ZM321.759 285.629L324.386 312.721L261.104 320.529L258.716 291.694L321.759 285.629ZM263.576 351.036L327.443 344.397L328.052 350.606L321.413 378.199L266.262 383.716L263.576 351.036ZM268.805 429.243L271.516 454.842H253.128C253.45 446.389 253.761 437.947 253.988 431.607C254.382 420.24 254.382 420.24 253.63 419.858L253.056 420.98H251.862C251.862 421.971 251.349 437.577 250.668 454.257L197.392 428.73L195.506 392.038L265.128 385.017L268.805 429.243ZM190.885 392.551L190.515 439.667L154.599 441.362L153.262 395.214L190.885 392.551ZM154.659 443.666V442.58L191.733 440.825L192.127 392.48L194.395 392.241L196.318 429.589L250.704 455.642C250.621 457.959 250.525 460.287 250.442 462.603L155.411 468.573L154.659 443.666Z" fill="white"/>
<path d="M208.843 441.947L156.951 445.589V462.245L242.609 457.6L208.843 441.947Z" fill="#EBEBEB"/>
<path d="M315.741 253.021L263.838 249.737L260.626 258.644L262.382 285.187L318.738 278.501L315.741 253.021Z" fill="#EBEBEB"/>
<path d="M129.657 462.376L129.537 507.247V516.393C129.702 523.008 132.437 529.299 137.163 533.931C141.888 538.563 148.233 541.172 154.85 541.204L321.449 541.969C324.795 541.986 328.111 541.343 331.209 540.078C334.306 538.812 337.124 536.948 339.5 534.593C341.877 532.238 343.765 529.437 345.059 526.351C346.352 523.265 347.024 519.954 347.036 516.608L347.203 462.376H129.657Z" fill="#EBEBEB"/>
<path d="M189.404 136.809L188.545 87.9978H163.196L155.841 131.901L189.404 136.809Z" fill="#EBEBEB"/>
<path d="M312.303 197.619L314.882 187.052L297.043 153.119L274.154 164.378L281.784 196.473L312.303 197.619Z" fill="#EBEBEB"/>
<path d="M156.951 346.355C157.226 347.896 156.951 389.196 156.951 389.196L190.383 387.083L186.551 330.642L156.951 346.355Z" fill="#EBEBEB"/>
<path d="M268.232 379.895L266.465 354.296L323.693 346.941V351.358L316.768 374.892L268.232 379.895Z" fill="#EBEBEB"/>
<path d="M321.58 445.087L320.864 428.371L270.56 430.759C269.242 430.823 267.929 430.543 266.752 429.947L195.41 394.02C194.597 393.609 193.908 392.99 193.411 392.227C192.914 391.464 192.627 390.583 192.58 389.674L182.873 201.344C182.852 200.902 182.926 200.461 183.088 200.049C183.251 199.637 183.499 199.265 183.816 198.956C184.131 198.652 184.506 198.416 184.917 198.264C185.329 198.111 185.767 198.046 186.204 198.073L216.771 200.341V166.909H220.353V200.795C220.355 201.229 220.267 201.66 220.094 202.058C219.922 202.457 219.668 202.816 219.35 203.111C219.03 203.407 218.653 203.633 218.243 203.777C217.832 203.921 217.396 203.979 216.962 203.947L186.407 201.678L196.103 389.53C196.117 389.809 196.204 390.079 196.355 390.313C196.505 390.548 196.715 390.739 196.962 390.868L268.316 426.891C268.934 427.21 269.627 427.359 270.322 427.321L321.043 424.861C321.461 424.837 321.879 424.898 322.273 425.04C322.667 425.181 323.028 425.401 323.335 425.685C323.643 425.965 323.892 426.303 324.068 426.681C324.245 427.058 324.344 427.466 324.362 427.882L325.09 444.992L321.58 445.087Z" fill="white"/>
<path d="M306.858 146.384C306.858 147.763 306.449 149.112 305.683 150.258C304.917 151.405 303.828 152.299 302.553 152.827C301.279 153.354 299.877 153.492 298.525 153.223C297.172 152.954 295.93 152.29 294.954 151.315C293.979 150.34 293.315 149.097 293.046 147.745C292.777 146.392 292.915 144.99 293.443 143.716C293.971 142.442 294.864 141.353 296.011 140.587C297.158 139.82 298.506 139.411 299.885 139.411C300.801 139.41 301.709 139.589 302.555 139.939C303.402 140.289 304.171 140.802 304.819 141.45C305.467 142.098 305.981 142.867 306.33 143.714C306.68 144.561 306.86 145.468 306.858 146.384Z" fill="#06B6D4"/>
<g opacity="0.6">
<path opacity="0.6" d="M303.482 152.32C306.76 150.3 307.781 146.004 305.76 142.726C303.74 139.447 299.445 138.427 296.166 140.447C292.887 142.467 291.867 146.763 293.887 150.042C295.908 153.32 300.203 154.34 303.482 152.32Z" fill="white"/>
</g>
<path d="M304.47 146.146C304.472 147.065 304.202 147.964 303.693 148.729C303.184 149.495 302.46 150.092 301.611 150.445C300.763 150.799 299.828 150.892 298.927 150.714C298.025 150.537 297.196 150.095 296.545 149.446C295.895 148.797 295.451 147.969 295.271 147.068C295.091 146.167 295.182 145.232 295.533 144.383C295.884 143.533 296.48 142.807 297.244 142.296C298.008 141.786 298.906 141.513 299.825 141.513C301.055 141.513 302.235 142.001 303.105 142.869C303.976 143.737 304.467 144.916 304.47 146.146Z" fill="#06B6D4"/>
<path d="M323.084 447.643L322.225 428.085C322.219 427.945 322.185 427.808 322.126 427.682C322.067 427.555 321.983 427.441 321.88 427.347C321.777 427.253 321.656 427.18 321.525 427.132C321.393 427.085 321.254 427.063 321.114 427.07L268.65 429.84L262.334 350.272L254.322 258.62V258.537L263.289 209.583C263.451 208.69 263.921 207.882 264.617 207.3C265.312 206.717 266.19 206.397 267.098 206.395L314.535 206.24C315.397 206.238 316.225 205.909 316.853 205.32C317.48 204.73 317.86 203.923 317.914 203.064L318.726 189.93C318.83 188.251 318.501 186.573 317.771 185.058L299.24 146.396L300.327 145.883L318.858 184.545C319.673 186.247 320.039 188.13 319.92 190.013L319.108 203.147C319.03 204.308 318.514 205.395 317.666 206.191C316.817 206.986 315.699 207.43 314.535 207.434L267.098 207.589C266.468 207.588 265.859 207.809 265.376 208.213C264.893 208.617 264.569 209.178 264.459 209.798L255.516 258.668L263.408 350.129L269.641 428.55L320.983 425.888C321.279 425.867 321.575 425.907 321.855 426.006C322.134 426.104 322.39 426.259 322.607 426.461C322.829 426.658 323.009 426.899 323.137 427.168C323.264 427.436 323.335 427.728 323.347 428.025L324.207 447.595L323.084 447.643Z" fill="#06B6D4"/>
<path d="M326.344 446.055C326.346 446.646 326.173 447.225 325.846 447.717C325.519 448.21 325.053 448.595 324.507 448.822C323.961 449.049 323.36 449.109 322.78 448.995C322.2 448.88 321.667 448.595 321.248 448.177C320.83 447.759 320.546 447.226 320.431 446.646C320.316 446.066 320.376 445.465 320.604 444.919C320.831 444.373 321.215 443.907 321.708 443.58C322.201 443.252 322.78 443.079 323.371 443.081C323.761 443.081 324.148 443.158 324.509 443.308C324.87 443.457 325.197 443.676 325.473 443.952C325.749 444.228 325.968 444.556 326.118 444.917C326.267 445.277 326.344 445.664 326.344 446.055Z" fill="#06B6D4"/>
<path d="M268.889 390.975C268.925 391.526 268.798 392.075 268.522 392.554C268.247 393.032 267.836 393.418 267.341 393.663C266.846 393.908 266.29 394.001 265.742 393.93C265.195 393.859 264.681 393.628 264.265 393.265C263.849 392.902 263.549 392.424 263.405 391.892C263.26 391.359 263.276 390.795 263.452 390.272C263.627 389.748 263.954 389.289 264.39 388.951C264.826 388.612 265.353 388.411 265.904 388.372C266.271 388.346 266.64 388.393 266.988 388.51C267.337 388.627 267.66 388.812 267.937 389.054C268.215 389.295 268.441 389.59 268.605 389.919C268.768 390.249 268.865 390.608 268.889 390.975Z" fill="#06B6D4"/>
<path d="M266.358 393.339C265.021 393.431 263.776 394.05 262.896 395.06C262.016 396.07 261.573 397.388 261.665 398.724L271.742 398.032C271.651 396.695 271.032 395.45 270.022 394.57C269.012 393.69 267.694 393.248 266.358 393.339Z" fill="#06B6D4"/>
<path d="M306.142 361.304H281.354C280.35 361.304 279.388 361.703 278.678 362.413C277.968 363.123 277.569 364.086 277.569 365.089V380.611C277.569 381.108 277.667 381.6 277.858 382.058C278.048 382.517 278.327 382.933 278.679 383.284C279.03 383.634 279.447 383.912 279.907 384.101C280.366 384.29 280.858 384.386 281.354 384.384H281.856V388.098L286.154 384.384H306.142C306.638 384.386 307.13 384.29 307.589 384.101C308.048 383.912 308.466 383.634 308.817 383.284C309.169 382.933 309.448 382.517 309.638 382.058C309.829 381.6 309.927 381.108 309.927 380.611V365.089C309.927 364.086 309.528 363.123 308.818 362.413C308.108 361.703 307.145 361.304 306.142 361.304Z" fill="#06B6D4"/>
<g opacity="0.4">
<path opacity="0.4" d="M306.142 361.304H281.354C280.35 361.304 279.388 361.703 278.678 362.413C277.968 363.123 277.569 364.086 277.569 365.089V380.611C277.569 381.108 277.667 381.6 277.858 382.058C278.048 382.517 278.327 382.933 278.679 383.284C279.03 383.634 279.447 383.912 279.907 384.101C280.366 384.29 280.858 384.386 281.354 384.384H281.856V388.098L286.154 384.384H306.142C306.638 384.386 307.13 384.29 307.589 384.101C308.048 383.912 308.466 383.634 308.817 383.284C309.169 382.933 309.448 382.517 309.638 382.058C309.829 381.6 309.927 381.108 309.927 380.611V365.089C309.927 364.086 309.528 363.123 308.818 362.413C308.108 361.703 307.145 361.304 306.142 361.304Z" fill="white"/>
</g>
<path d="M289.223 373.507V375.537H288.387V373.483L285.999 369.651H286.906L288.793 372.755L290.679 369.651H291.515L289.223 373.507Z" fill="white"/>
<path d="M291.336 373.304C291.327 372.842 291.455 372.387 291.705 371.998C291.955 371.609 292.315 371.303 292.74 371.119C293.164 370.936 293.634 370.883 294.089 370.967C294.543 371.051 294.963 371.269 295.293 371.593C295.623 371.917 295.85 372.331 295.944 372.784C296.038 373.237 295.994 373.708 295.82 374.136C295.645 374.564 295.347 374.931 294.963 375.189C294.579 375.447 294.127 375.584 293.664 375.585C293.359 375.6 293.053 375.551 292.767 375.442C292.481 375.334 292.221 375.167 292.002 374.953C291.783 374.739 291.611 374.482 291.497 374.198C291.382 373.914 291.327 373.61 291.336 373.304ZM295.157 373.304C295.135 373.009 295.027 372.727 294.847 372.493C294.666 372.259 294.42 372.083 294.14 371.988C293.86 371.893 293.558 371.883 293.272 371.959C292.986 372.034 292.728 372.192 292.532 372.414C292.335 372.635 292.208 372.909 292.167 373.202C292.125 373.494 292.171 373.793 292.298 374.06C292.425 374.327 292.628 374.551 292.882 374.703C293.136 374.855 293.429 374.929 293.724 374.916C293.93 374.919 294.134 374.878 294.324 374.796C294.513 374.714 294.682 374.593 294.821 374.44C294.96 374.288 295.065 374.108 295.129 373.912C295.193 373.716 295.215 373.509 295.193 373.304H295.157Z" fill="white"/>
<path d="M301.282 371.083V375.537H300.518V374.916C300.343 375.15 300.113 375.338 299.849 375.463C299.584 375.588 299.294 375.646 299.002 375.632C298.742 375.659 298.48 375.627 298.234 375.539C297.989 375.451 297.766 375.309 297.583 375.123C297.399 374.938 297.26 374.713 297.175 374.467C297.09 374.22 297.061 373.957 297.091 373.698V371.131H297.891V373.603C297.891 374.474 298.333 374.916 299.085 374.916C299.279 374.928 299.472 374.897 299.652 374.826C299.832 374.754 299.994 374.644 300.127 374.502C300.259 374.361 300.359 374.192 300.418 374.007C300.477 373.823 300.495 373.628 300.47 373.435V371.131L301.282 371.083Z" fill="white"/>
<path d="M159.172 485.445C159.344 485.445 159.483 484.643 159.483 483.654C159.483 482.664 159.344 481.863 159.172 481.863C159.001 481.863 158.862 482.664 158.862 483.654C158.862 484.643 159.001 485.445 159.172 485.445Z" fill="#374151"/>
<path d="M159.172 492.609C159.344 492.609 159.483 491.807 159.483 490.818C159.483 489.828 159.344 489.027 159.172 489.027C159.001 489.027 158.862 489.828 158.862 490.818C158.862 491.807 159.001 492.609 159.172 492.609Z" fill="#374151"/>
<path d="M159.172 499.773C159.344 499.773 159.483 498.971 159.483 497.982C159.483 496.992 159.344 496.191 159.172 496.191C159.001 496.191 158.862 496.992 158.862 497.982C158.862 498.971 159.001 499.773 159.172 499.773Z" fill="#374151"/>
<path d="M159.172 506.937C159.344 506.937 159.483 506.135 159.483 505.146C159.483 504.156 159.344 503.354 159.172 503.354C159.001 503.354 158.862 504.156 158.862 505.146C158.862 506.135 159.001 506.937 159.172 506.937Z" fill="#374151"/>
<path d="M159.172 513.098C159.344 513.098 159.483 512.52 159.483 511.808C159.483 511.096 159.344 510.519 159.172 510.519C159.001 510.519 158.862 511.096 158.862 511.808C158.862 512.52 159.001 513.098 159.172 513.098Z" fill="#374151"/>
<path d="M164.247 519.235C164.249 518.454 164.07 517.683 163.725 516.982C163.381 516.282 162.879 515.67 162.259 515.195C161.639 514.72 160.918 514.394 160.152 514.244C159.385 514.093 158.595 514.121 157.841 514.326C157.088 514.531 156.391 514.907 155.807 515.424C155.222 515.942 154.765 516.588 154.471 517.312C154.177 518.035 154.054 518.817 154.111 519.595C154.169 520.374 154.405 521.129 154.802 521.802C154.993 522.136 155.244 522.363 155.483 522.709L158.432 526.614C158.518 526.727 158.629 526.82 158.756 526.883C158.883 526.947 159.024 526.98 159.166 526.98C159.309 526.98 159.449 526.947 159.576 526.883C159.704 526.82 159.815 526.727 159.901 526.614L162.79 522.781C163.07 522.461 163.333 522.126 163.578 521.778C164.021 521.004 164.252 520.127 164.247 519.235ZM159.172 521.444C158.731 521.444 158.299 521.313 157.932 521.067C157.565 520.822 157.278 520.473 157.109 520.065C156.94 519.657 156.896 519.208 156.982 518.775C157.068 518.342 157.281 517.944 157.593 517.632C157.906 517.32 158.303 517.107 158.737 517.021C159.17 516.935 159.619 516.979 160.027 517.148C160.435 517.317 160.783 517.603 161.029 517.97C161.274 518.338 161.405 518.769 161.405 519.211C161.405 519.803 161.17 520.371 160.751 520.79C160.332 521.208 159.764 521.444 159.172 521.444Z" fill="#455A64"/>
<path d="M287.981 521.444C287.981 521.611 262.238 521.754 230.502 521.754C198.765 521.754 173.023 521.611 173.023 521.444C173.023 521.277 198.753 521.133 230.502 521.133C262.25 521.133 287.981 521.277 287.981 521.444Z" fill="#374151"/>
<path d="M242.597 516.405C242.597 516.572 227.003 516.715 207.78 516.715C188.557 516.715 172.951 516.572 172.951 516.405C172.951 516.238 188.533 516.094 207.78 516.094C227.027 516.094 242.597 516.226 242.597 516.405Z" fill="#06B6D4"/>
<path d="M191.804 527.151C188.746 527.458 185.671 527.562 182.598 527.461C179.522 527.562 176.443 527.458 173.381 527.151C176.443 526.837 179.522 526.733 182.598 526.841C185.671 526.733 188.746 526.836 191.804 527.151Z" fill="#374151"/>
<path d="M164.247 479.654C164.249 478.873 164.07 478.102 163.725 477.401C163.381 476.7 162.879 476.089 162.259 475.614C161.639 475.139 160.918 474.813 160.152 474.662C159.385 474.512 158.595 474.54 157.841 474.745C157.088 474.949 156.391 475.325 155.807 475.843C155.222 476.361 154.765 477.007 154.471 477.73C154.177 478.454 154.054 479.236 154.111 480.014C154.169 480.793 154.405 481.548 154.802 482.221C154.993 482.543 155.244 482.782 155.483 483.128L158.432 487.021C158.518 487.134 158.629 487.227 158.756 487.29C158.883 487.354 159.024 487.387 159.166 487.387C159.309 487.387 159.449 487.354 159.576 487.29C159.704 487.227 159.815 487.134 159.901 487.021L162.79 483.188C163.053 482.874 163.3 482.548 163.53 482.209C163.993 481.436 164.24 480.554 164.247 479.654ZM159.172 481.863C158.731 481.863 158.299 481.732 157.932 481.486C157.565 481.241 157.278 480.892 157.109 480.484C156.94 480.076 156.896 479.627 156.982 479.194C157.068 478.761 157.281 478.363 157.593 478.051C157.906 477.739 158.303 477.526 158.737 477.44C159.17 477.354 159.619 477.398 160.027 477.567C160.435 477.736 160.783 478.022 161.029 478.389C161.274 478.756 161.405 479.188 161.405 479.63C161.405 480.222 161.17 480.79 160.751 481.209C160.332 481.627 159.764 481.863 159.172 481.863Z" fill="#06B6D4"/>
<path d="M312.255 481.863C312.255 482.042 281.08 482.173 242.633 482.173C204.186 482.173 173.023 482.042 173.023 481.863C173.023 481.683 204.186 481.552 242.633 481.552C281.08 481.552 312.255 481.695 312.255 481.863Z" fill="#374151"/>
<path d="M271.516 476.824C271.516 477.003 249.451 477.134 222.239 477.134C195.028 477.134 172.951 477.003 172.951 476.824C172.951 476.645 195.016 476.513 222.239 476.513C249.462 476.513 271.516 476.657 271.516 476.824Z" fill="#06B6D4"/>
<path d="M227.397 487.57C227.397 487.737 215.314 487.88 200.401 487.88C185.488 487.88 173.381 487.737 173.381 487.57C173.381 487.403 185.476 487.259 200.401 487.259C215.326 487.259 227.397 487.403 227.397 487.57Z" fill="#374151"/>
<path d="M511.569 195.123L506.125 183.004C498.434 182.377 491.256 178.896 486.001 173.246C480.746 167.596 477.794 160.185 477.726 152.469C477.657 144.753 480.477 137.29 485.63 131.547C490.784 125.804 497.899 122.197 505.578 121.433C513.256 120.669 520.942 122.805 527.126 127.42C533.31 132.035 537.544 138.796 538.997 146.375C540.45 153.953 539.016 161.8 534.977 168.375C530.938 174.95 524.586 179.776 517.169 181.906L511.569 195.123Z" fill="white"/>
<path d="M511.569 195.123C511.975 194.121 513.623 190.133 517.038 181.846L517.181 182.061H515.987L517.181 181.727C522.373 180.218 527.076 177.369 530.817 173.464C531.937 172.298 532.951 171.036 533.849 169.691C534.303 168.999 534.781 168.294 535.234 167.566L536.428 165.25C538.206 161.484 539.196 157.394 539.336 153.233C539.476 149.071 538.763 144.924 537.243 141.047C535.722 137.171 533.425 133.646 530.492 130.689C527.56 127.732 524.054 125.406 520.19 123.854C515.752 122.06 510.951 121.352 506.184 121.788C501.331 122.177 496.641 123.715 492.501 126.277C488.561 128.763 485.224 132.095 482.734 136.032C480.369 139.747 478.853 143.938 478.293 148.307C477.29 156.176 479.345 164.13 484.036 170.527C486.058 173.203 488.473 175.558 491.2 177.512C495.613 180.582 500.756 182.439 506.113 182.897H506.256V182.981C509.563 190.598 511.139 194.204 511.557 195.159C511.116 194.216 509.468 190.646 505.981 183.1L506.101 183.183C500.674 182.777 495.453 180.935 490.973 177.846C488.177 175.891 485.7 173.514 483.63 170.802C478.83 164.315 476.713 156.229 477.719 148.223C478.282 143.768 479.819 139.492 482.221 135.698C484.786 131.575 488.283 128.112 492.431 125.586C496.578 123.06 501.26 121.543 506.101 121.155C510.947 120.744 515.822 121.493 520.321 123.34C524.636 125.095 528.509 127.782 531.664 131.209C534.635 134.47 536.875 138.33 538.231 142.528C540.693 150.099 540.172 158.324 536.775 165.524C536.369 166.312 535.951 167.088 535.581 167.912C535.211 168.736 534.637 169.357 534.172 170.061C533.257 171.424 532.217 172.699 531.067 173.87C527.262 177.806 522.477 180.658 517.205 182.133V181.834H517.468L517.372 182.061C513.73 190.168 511.999 194.132 511.569 195.123Z" fill="#0A2961"/>
<path d="M521.778 151.041C521.783 149.251 521.375 147.485 520.585 145.878C519.796 144.272 518.646 142.87 517.226 141.781C515.806 140.691 514.154 139.945 512.398 139.599C510.642 139.252 508.83 139.316 507.103 139.785C505.375 140.254 503.78 141.115 502.44 142.301C501.1 143.487 500.052 144.967 499.377 146.625C498.702 148.282 498.419 150.073 498.55 151.858C498.681 153.643 499.222 155.374 500.131 156.915C500.573 157.668 501.134 158.205 501.695 158.993L508.441 167.936C508.637 168.196 508.89 168.406 509.181 168.551C509.473 168.696 509.793 168.772 510.119 168.772C510.444 168.772 510.765 168.696 511.056 168.551C511.347 168.406 511.6 168.196 511.796 167.936L518.435 159.136C519.038 158.424 519.6 157.679 520.118 156.903C521.188 155.134 521.761 153.109 521.778 151.041ZM510.16 156.104C509.146 156.106 508.154 155.807 507.31 155.245C506.466 154.683 505.808 153.883 505.418 152.947C505.029 152.011 504.927 150.98 505.124 149.985C505.321 148.99 505.809 148.076 506.527 147.359C507.244 146.642 508.157 146.154 509.152 145.957C510.147 145.76 511.178 145.862 512.114 146.251C513.051 146.64 513.85 147.299 514.412 148.143C514.974 148.987 515.273 149.979 515.271 150.993C515.269 151.667 515.135 152.334 514.875 152.955C514.615 153.577 514.236 154.141 513.758 154.616C513.28 155.091 512.713 155.466 512.089 155.722C511.466 155.977 510.798 156.107 510.125 156.104H510.16Z" fill="#06B6D4"/>
<path d="M424.443 138.504C425.518 134.528 428.515 132.534 432.419 131.232C434.383 130.584 436.474 130.418 438.516 130.751C440.557 131.084 442.488 131.904 444.144 133.143C446.341 134.803 448.06 137.238 450.663 138.146C454.95 139.638 459.977 136.426 464.096 138.349C465.33 138.92 466.327 139.903 466.915 141.13C467.503 142.356 467.645 143.749 467.317 145.069C466.989 146.389 466.212 147.553 465.118 148.362C464.025 149.171 462.684 149.573 461.326 149.501C464.12 150.528 464.991 154.515 463.356 157.011C461.72 159.506 458.365 160.438 455.427 159.888C452.523 159.179 449.868 157.689 447.75 155.578C445.541 153.584 443.547 151.328 441.183 149.525C438.885 147.583 435.977 146.513 432.968 146.504C428.933 146.719 425.482 149.763 423.679 153.369C421.876 156.975 421.47 161.118 421.291 165.142C421.112 169.166 420.992 173.261 419.798 177.082C419.655 177.536 419.44 178.037 418.987 178.181C418.342 178.384 417.793 177.691 417.458 177.082C413.785 170.26 411.485 162.784 410.688 155.077C410.234 150.611 410.354 146.384 412.802 142.623C415.249 138.862 421.458 136.104 424.503 138.468" fill="#0A2961"/>
<path d="M416.706 157.202L414.64 202.395C414.294 210.084 415.345 221.499 427.524 221.499C438.091 220.711 441.207 210.836 441.529 203.661C441.684 200.258 441.816 197.416 441.852 197.07C441.852 197.07 453.41 196.52 454.759 185.13C455.415 179.649 455.833 168.235 456.096 157.918C456.236 152.557 454.347 147.341 450.808 143.312C447.268 139.284 442.338 136.739 437.004 136.188L435.905 136.068C424.025 135.507 416.897 145.298 416.706 157.202Z" fill="#FFBE9D"/>
<path d="M441.84 196.855C436.572 196.392 431.562 194.367 427.452 191.04C427.452 191.04 430.079 199.589 441.529 199.78L441.84 196.855Z" fill="#EB996E"/>
<path d="M453.123 166.348C453.083 166.773 452.879 167.165 452.552 167.44C452.226 167.714 451.805 167.85 451.38 167.817C451.172 167.811 450.968 167.763 450.779 167.677C450.59 167.591 450.42 167.469 450.279 167.317C450.138 167.164 450.028 166.985 449.957 166.79C449.886 166.595 449.854 166.388 449.863 166.181C449.906 165.756 450.111 165.365 450.436 165.089C450.761 164.813 451.181 164.673 451.607 164.7C451.815 164.706 452.02 164.754 452.21 164.841C452.4 164.927 452.571 165.051 452.712 165.205C452.853 165.358 452.963 165.538 453.033 165.735C453.104 165.931 453.134 166.14 453.123 166.348Z" fill="#374151"/>
<path d="M453.016 163.208C452.789 163.399 451.666 162.36 449.911 162.181C448.156 162.002 446.795 162.73 446.628 162.503C446.46 162.277 446.795 162.038 447.392 161.691C448.204 161.247 449.134 161.063 450.054 161.166C450.945 161.267 451.781 161.648 452.442 162.253C452.98 162.718 453.123 163.124 453.016 163.208Z" fill="#374151"/>
<path d="M435.929 165.118C435.89 165.541 435.687 165.931 435.363 166.205C435.04 166.48 434.621 166.617 434.198 166.587C433.99 166.582 433.785 166.536 433.595 166.451C433.405 166.365 433.235 166.243 433.093 166.09C432.952 165.938 432.843 165.758 432.772 165.562C432.701 165.367 432.67 165.159 432.682 164.951C432.718 164.526 432.92 164.133 433.244 163.856C433.568 163.579 433.988 163.441 434.413 163.471C434.622 163.477 434.827 163.524 435.017 163.611C435.207 163.698 435.377 163.821 435.518 163.975C435.66 164.128 435.769 164.309 435.84 164.505C435.91 164.701 435.941 164.91 435.929 165.118Z" fill="#374151"/>
<path d="M435.81 161.703C435.595 161.894 434.461 160.856 432.718 160.677C430.974 160.497 429.589 161.238 429.422 160.999C429.255 160.76 429.589 160.533 430.186 160.187C430.999 159.742 431.928 159.559 432.849 159.662C433.738 159.768 434.572 160.148 435.237 160.748C435.81 161.19 435.929 161.62 435.81 161.703Z" fill="#374151"/>
<path d="M440.777 175.339C441.726 175.139 442.698 175.067 443.667 175.124C444.12 175.124 444.55 175.124 444.658 174.79C444.74 174.33 444.686 173.857 444.502 173.428C444.192 172.306 443.881 171.136 443.547 169.846C442.222 164.82 441.326 160.7 441.529 160.653C441.732 160.605 442.962 164.641 444.275 169.667C444.586 170.861 444.896 172.055 445.171 173.249C445.382 173.824 445.382 174.454 445.171 175.028C445.091 175.179 444.977 175.309 444.838 175.408C444.699 175.508 444.539 175.574 444.371 175.602C444.117 175.636 443.86 175.636 443.607 175.602C442.656 175.626 441.707 175.538 440.777 175.339Z" fill="#374151"/>
<path d="M437.004 154.909C436.789 155.363 435.07 154.909 432.992 154.993C430.915 155.077 429.195 155.399 428.968 154.993C428.873 154.778 429.207 154.36 429.924 153.966C430.873 153.494 431.92 153.249 432.98 153.25C434.043 153.237 435.094 153.474 436.049 153.942C436.753 154.277 437.088 154.695 437.004 154.909Z" fill="#374151"/>
<path d="M452.908 158.086C452.562 158.456 451.404 157.906 449.959 157.739C448.514 157.572 447.26 157.739 447.022 157.274C446.914 157.059 447.153 156.689 447.726 156.366C448.489 155.982 449.353 155.844 450.198 155.972C451.05 156.073 451.848 156.441 452.478 157.023C452.944 157.477 453.063 157.906 452.908 158.086Z" fill="#374151"/>
<path d="M416.706 165.715C416.527 165.608 409.148 162.575 408.575 170.372C408.002 178.169 415.942 177.142 415.966 176.915C415.99 176.688 416.706 165.715 416.706 165.715Z" fill="#FFBE9D"/>
<path d="M413.781 173.787C413.781 173.787 413.637 173.87 413.399 173.954C413.238 174.02 413.065 174.055 412.891 174.055C412.717 174.055 412.545 174.02 412.384 173.954C411.904 173.597 411.529 173.12 411.296 172.57C411.063 172.02 410.981 171.418 411.058 170.825C411.082 170.153 411.262 169.494 411.584 168.903C411.674 168.665 411.821 168.452 412.013 168.283C412.204 168.115 412.434 167.995 412.682 167.936C412.84 167.906 413.003 167.933 413.143 168.011C413.283 168.09 413.39 168.216 413.446 168.366C413.542 168.593 413.446 168.748 413.518 168.76C413.59 168.772 413.697 168.652 413.661 168.318C413.625 168.123 413.529 167.943 413.387 167.805C413.286 167.716 413.169 167.648 413.042 167.605C412.915 167.562 412.78 167.545 412.646 167.554C412.323 167.596 412.016 167.718 411.753 167.91C411.49 168.102 411.28 168.357 411.142 168.652C410.758 169.306 410.541 170.044 410.509 170.802C410.426 171.492 410.545 172.191 410.853 172.814C411.16 173.437 411.642 173.958 412.24 174.312C412.445 174.387 412.664 174.415 412.881 174.395C413.098 174.374 413.307 174.305 413.494 174.193C413.757 173.978 413.805 173.799 413.781 173.787Z" fill="#EB996E"/>
<path d="M458.711 155.793C456.13 156.176 453.495 155.943 451.021 155.113C448.548 154.283 446.306 152.879 444.478 151.017C441.959 148.378 440.192 144.772 436.837 143.34C435.688 142.899 434.463 142.69 433.233 142.727C432.003 142.764 430.793 143.045 429.673 143.555C427.439 144.588 425.44 146.067 423.798 147.901C425.386 153.871 423.225 160.199 421.088 166.038C420.919 166.709 420.533 167.305 419.99 167.733C418.998 168.342 417.685 167.649 416.969 166.718C415.944 165.145 415.4 163.307 415.405 161.429C415.032 157.182 415.511 152.903 416.813 148.844C418.137 144.766 420.628 141.167 423.977 138.492C428.292 135.279 433.687 133.87 439.022 134.564C444.328 135.291 449.268 137.677 453.135 141.381C455.005 142.994 456.445 145.045 457.326 147.351" fill="#0A2961"/>
<path d="M441.314 180.294C441.075 180.995 440.737 181.658 440.311 182.264C440.096 182.567 439.818 182.821 439.497 183.008C439.176 183.196 438.819 183.312 438.449 183.351C438.052 183.349 437.662 183.249 437.314 183.06C436.966 182.87 436.671 182.596 436.455 182.264C436.041 181.587 435.849 180.798 435.905 180.007C435.905 179.291 436.264 178.443 436.968 178.36C437.267 178.346 437.563 178.412 437.828 178.551L441.553 180.055" fill="#EB996E"/>
<path d="M439.822 183.339C439.151 183.379 438.479 183.294 437.84 183.088C437.192 182.828 436.658 182.345 436.335 181.727C436.173 181.35 436.089 180.943 436.089 180.533C436.089 180.122 436.173 179.716 436.335 179.339C436.425 179.14 436.537 178.951 436.67 178.778C436.813 178.622 436.789 178.634 436.944 178.658C437.1 178.682 437.338 178.813 437.541 178.885C437.744 178.957 437.959 179.064 438.15 179.136C438.95 179.458 439.667 179.745 440.276 179.972C440.917 180.277 441.602 180.483 442.305 180.581C441.751 180.139 441.131 179.788 440.467 179.542C439.882 179.255 439.177 178.933 438.389 178.575L437.792 178.312C437.572 178.201 437.344 178.106 437.111 178.025C436.932 177.972 436.741 177.972 436.562 178.025C436.396 178.097 436.251 178.213 436.144 178.36C435.973 178.574 435.833 178.811 435.726 179.064C435.525 179.538 435.431 180.05 435.452 180.564C435.472 181.078 435.607 181.581 435.846 182.037C436.043 182.404 436.311 182.729 436.635 182.991C436.959 183.253 437.332 183.449 437.732 183.566C438.26 183.712 438.817 183.712 439.344 183.566C439.667 183.494 439.846 183.375 439.822 183.339Z" fill="#374151"/>
<path d="M509.91 504.799L518.614 530.04C518.614 530.04 547.186 529.682 549.252 534.184L500.907 552.822L485.743 514.041L509.91 504.799Z" fill="#06B6D4"/>
<path d="M502.853 533.718C502.443 534.04 502.166 534.502 502.075 535.015C501.985 535.529 502.088 536.058 502.364 536.5C502.669 536.921 503.123 537.209 503.634 537.304C504.145 537.4 504.673 537.296 505.11 537.013C505.543 536.671 505.835 536.181 505.93 535.637C506.025 535.093 505.915 534.533 505.623 534.064C505.258 533.657 504.749 533.407 504.204 533.367C503.658 533.327 503.118 533.5 502.698 533.849" fill="#E0E0E0"/>
<g opacity="0.6">
<path opacity="0.6" d="M500.907 552.822L499.534 548.858L546.398 532.524C546.398 532.524 548.918 532.631 549.252 534.243L500.907 552.822Z" fill="white"/>
</g>
<path d="M519.295 529.491C519.378 529.73 518.244 530.291 517.372 531.497C516.501 532.703 516.274 533.885 516.011 533.885C515.748 533.885 515.593 532.381 516.668 530.936C517.742 529.491 519.271 529.252 519.295 529.491Z" fill="#374151"/>
<path d="M525.181 529.634C525.324 529.849 524.453 530.637 523.987 531.951C523.521 533.264 523.748 534.399 523.509 534.482C523.27 534.566 522.602 533.288 523.151 531.664C523.7 530.04 525.085 529.408 525.181 529.634Z" fill="#374151"/>
<path d="M530.399 534.59C530.196 534.733 529.42 533.67 529.527 532.202C529.635 530.733 530.542 529.73 530.721 529.885C530.9 530.04 530.47 530.996 530.399 532.273C530.327 533.551 530.626 534.482 530.399 534.59Z" fill="#374151"/>
<path d="M516.68 523.963C516.68 524.214 515.486 524.309 514.16 524.906C512.835 525.503 511.975 526.339 511.772 526.184C511.569 526.029 512.25 524.799 513.79 524.106C515.33 523.414 516.727 523.724 516.68 523.963Z" fill="#374151"/>
<path d="M332.553 501.48L332.016 502.184L321.544 515.808L308.589 524.691L325.938 558.123H345.042C345.042 558.123 343.669 553.526 334.475 551.15L333.866 532.811L350.367 514.686" fill="#06B6D4"/>
<g opacity="0.6">
<path opacity="0.6" d="M308.589 524.727L325.938 558.147L345.042 558.171L342.893 555.294L327.359 554.434L311.347 522.841L308.589 524.727Z" fill="white"/>
</g>
<path d="M334.32 542.792C334.177 542.995 333.126 542.362 331.598 542.41C330.069 542.458 329.043 543.055 328.887 542.864C328.732 542.673 329.795 541.586 331.586 541.563C333.377 541.539 334.535 542.649 334.32 542.792Z" fill="#374151"/>
<path d="M334.057 538.243C333.866 538.387 333.007 537.252 331.49 536.954C329.974 536.655 328.744 537.348 328.625 537.157C328.505 536.966 328.78 536.751 329.317 536.452C330.038 536.084 330.863 535.971 331.656 536.131C332.45 536.292 333.166 536.716 333.687 537.336C334.069 537.813 334.141 538.195 334.057 538.243Z" fill="#374151"/>
<path d="M334.177 532.405C333.974 532.512 333.317 531.402 331.992 530.948C330.666 530.494 329.46 530.948 329.365 530.697C329.269 530.446 329.556 530.339 330.093 530.136C330.797 529.889 331.563 529.889 332.266 530.136C332.972 530.386 333.573 530.865 333.974 531.497C334.32 531.999 334.32 532.357 334.177 532.405Z" fill="#374151"/>
<path d="M339.299 527.879C339.072 527.951 338.535 526.864 337.353 526.1C336.171 525.336 334.965 525.217 334.965 524.978C334.965 524.739 336.374 524.429 337.818 525.396C339.263 526.363 339.526 527.843 339.299 527.879Z" fill="#374151"/>
<g opacity="0.6">
<path opacity="0.6" d="M323.837 524.166C323.837 524.615 323.704 525.053 323.454 525.426C323.205 525.799 322.851 526.09 322.436 526.262C322.022 526.434 321.566 526.478 321.126 526.391C320.685 526.303 320.281 526.087 319.964 525.77C319.647 525.453 319.431 525.049 319.343 524.608C319.256 524.168 319.3 523.712 319.472 523.298C319.644 522.883 319.935 522.529 320.308 522.28C320.681 522.03 321.119 521.897 321.568 521.897C322.17 521.897 322.747 522.136 323.172 522.562C323.598 522.987 323.837 523.564 323.837 524.166Z" fill="white"/>
</g>
<path d="M396.169 363.931L455.236 450.496L487.164 526.196L514.208 511.736L486.865 435.929L446.699 356.302L396.169 363.931Z" fill="#0A2961"/>
<path d="M371.776 356.302L361.925 425.983L321.604 513.91L345.615 527.879L396.898 440.729L425.362 356.302H371.776Z" fill="#0A2961"/>
<path d="M345.615 527.879C345.67 527.732 345.742 527.592 345.83 527.461C345.985 527.163 346.212 526.757 346.499 526.267C347.108 525.181 347.991 523.629 349.114 521.659C351.43 517.635 354.749 511.868 358.857 504.763L391.19 449.159L397.22 438.819V438.879L414.951 385.495C417.196 378.808 419.01 373.423 420.276 369.674L421.733 365.412L422.127 364.313C422.166 364.185 422.218 364.061 422.282 363.943C422.257 364.076 422.225 364.208 422.186 364.337L421.84 365.448L420.479 369.746L415.345 385.626C410.915 399.118 404.754 417.864 397.805 439.082L391.775 449.422C379.095 471.093 367.609 490.698 359.287 504.943C355.108 511.999 351.729 517.73 349.376 521.73C348.182 523.676 347.287 525.205 346.654 526.279L345.926 527.473C345.832 527.616 345.729 527.752 345.615 527.879Z" fill="#455A64"/>
<path d="M450.448 318.571L448.454 288.661L440.884 218.144L443.571 203.446L413.721 191.506L410.139 198.67C392.229 201.368 384.671 236.746 384.671 236.746L384.05 308.685L364.17 357.448L369.328 361.997C377.483 366.892 453.457 363.812 453.457 363.812L450.448 318.571Z" fill="#06B6D4"/>
<g opacity="0.3">
<path opacity="0.3" d="M371.776 338.738C376.984 345.328 383.047 351.194 389.805 356.182C393.519 358.964 397.912 361.603 402.485 360.875C407.058 360.146 410.199 356.516 413.1 353.09L429.422 333.842C430.448 332.832 431.179 331.56 431.536 330.165C431.618 329.245 431.448 328.319 431.044 327.489C430.64 326.658 430.017 325.952 429.243 325.449C427.683 324.451 425.897 323.864 424.049 323.741C412.587 322.38 401.363 328.075 389.841 328.171C385.901 328.171 379.477 327.419 375.752 328.72L371.776 338.738Z" fill="black"/>
</g>
<path d="M433.303 291.802C436.259 294.702 438.101 298.55 438.505 302.671C438.908 306.793 437.849 310.925 435.512 314.344L425.303 329.281L410.485 348.648C409.48 349.956 408.208 351.036 406.754 351.816C405.3 352.595 403.696 353.057 402.05 353.17C400.404 353.283 398.753 353.044 397.206 352.471C395.659 351.897 394.251 351.001 393.077 349.842L325.508 297.784C323.438 296.189 322.065 293.854 321.68 291.269C321.295 288.684 321.927 286.05 323.443 283.921L350.905 245.26C351.673 244.174 352.648 243.251 353.774 242.543C354.899 241.835 356.154 241.356 357.465 241.134C358.777 240.912 360.119 240.952 361.415 241.25C362.711 241.548 363.935 242.099 365.018 242.872L433.303 291.802Z" fill="#374C71"/>
<path d="M398.306 352.767C398.347 352.639 398.408 352.518 398.486 352.409L399.083 351.394C399.62 350.511 400.432 349.221 401.471 347.573C403.608 344.29 406.772 339.562 410.688 333.747C414.605 327.932 419.321 321.043 424.431 313.306C425.766 311.362 426.963 309.327 428.013 307.216C428.525 306.151 428.786 304.983 428.777 303.801C428.686 302.606 428.236 301.466 427.488 300.53C425.983 298.596 423.727 297.258 421.637 295.754L415.178 291.169L370.546 259.337L357.113 249.546L353.424 246.931L352.481 246.227C352.278 246.06 352.17 245.976 352.182 245.964C352.299 246.027 352.41 246.099 352.517 246.179L353.496 246.824L357.209 249.403L370.809 258.955L415.548 290.632L422.007 295.228C424.085 296.769 426.365 298.094 427.977 300.172C428.792 301.198 429.279 302.446 429.374 303.754C429.388 305.033 429.11 306.299 428.562 307.455C427.483 309.586 426.258 311.641 424.897 313.604C419.763 321.341 414.999 328.195 411.046 333.986C403.118 345.544 398.306 352.767 398.306 352.767Z" fill="#0A2961"/>
<path d="M423.954 201.07C423.954 201.07 404.766 190.921 375.788 236.89L380.922 242.86C380.922 242.86 405.124 200.305 421.112 205.452C437.1 210.598 413.625 277.677 413.625 277.677C413.625 277.677 448.801 210.813 423.954 201.07Z" fill="#0A2961"/>
<path d="M359.848 252.794C355.865 256.812 353.364 262.063 352.755 267.687C352.145 273.311 353.463 278.976 356.493 283.754C356.719 284.1 356.934 284.423 357.161 284.733L383.274 325.257L405.124 311.789L383.931 273.426C383.931 273.426 393.769 263.277 404.467 251.862C418.879 236.472 434.222 217.595 423.225 206.753C423.225 206.753 415.739 200.783 404.217 209.726C395.883 216.114 372.277 240.054 359.848 252.794Z" fill="#06B6D4"/>
<path d="M497.337 223.982L508.716 221.153C508.716 221.153 511.784 223.911 510.196 226.764C508.608 229.618 505.934 236.818 505.934 236.818L497.134 239.66L494.65 246.824L479.51 240.364L483.57 226.932L492.059 216.424L498.459 215.445L502.77 219.099C502.77 219.099 499.188 221.714 496.799 218.896L493.862 220.03L494.125 221.797C494.181 222.157 494.311 222.501 494.506 222.809C494.701 223.116 494.957 223.381 495.258 223.586C495.559 223.79 495.898 223.931 496.256 223.999C496.614 224.068 496.982 224.062 497.337 223.982Z" fill="#FFBE9D"/>
<path d="M508.644 221.618L516.083 218.036C516.558 217.889 517.063 217.86 517.553 217.954C518.042 218.048 518.501 218.26 518.888 218.574L519.259 219.35L510.351 225.176L508.644 221.618Z" fill="#FFBE9D"/>
<path d="M493.003 233.212C493.171 232.552 493.428 231.917 493.767 231.326C494.489 229.899 494.877 228.327 494.901 226.729C494.875 225.869 494.65 225.027 494.244 224.269C494.042 223.914 493.87 223.543 493.731 223.159C493.618 222.808 493.57 222.44 493.588 222.072C493.55 221.378 493.634 220.683 493.838 220.018C493.98 220.685 494.044 221.366 494.029 222.048C494.078 222.752 494.326 223.427 494.746 223.994C495.23 224.817 495.497 225.75 495.522 226.705C495.501 228.389 495.031 230.038 494.161 231.481C493.882 232.123 493.49 232.71 493.003 233.212Z" fill="#EB996E"/>
<path d="M526.673 206.061C526.781 206.275 528.321 208.568 528.321 208.568L494.388 233.546L492.262 230.836L526.673 206.061Z" fill="#374C71"/>
<path d="M505.766 236.316C505.907 236.109 506.004 235.875 506.052 235.628C506.1 235.382 506.098 235.129 506.045 234.884C505.993 234.638 505.891 234.406 505.747 234.201C505.603 233.996 505.418 233.822 505.205 233.69C504.317 233.185 503.3 232.953 502.28 233.021C500.619 232.921 498.952 233.013 497.313 233.296C496.767 233.371 496.249 233.585 495.808 233.916C495.592 234.083 495.43 234.311 495.345 234.571C495.26 234.831 495.255 235.11 495.331 235.373C495.57 236.006 496.322 236.233 496.967 236.364C498.727 236.712 500.523 236.852 502.316 236.782" fill="#FFBE9D"/>
<path d="M502.316 236.782C501.269 237.014 500.189 237.054 499.128 236.902C498.626 236.902 498.089 236.818 497.516 236.722C496.86 236.678 496.221 236.495 495.641 236.185C495.466 236.073 495.316 235.924 495.203 235.749C495.089 235.574 495.015 235.377 494.985 235.17C494.94 234.742 495.064 234.314 495.331 233.976C495.882 233.381 496.636 233.015 497.444 232.949C498.856 232.713 500.29 232.637 501.719 232.723C502.914 232.637 504.111 232.876 505.181 233.415C505.541 233.637 505.83 233.957 506.014 234.338C506.198 234.719 506.27 235.144 506.22 235.564C506.113 236.161 505.778 236.34 505.766 236.316C505.754 236.293 505.957 236.054 505.981 235.54C505.98 235.183 505.884 234.833 505.704 234.525C505.523 234.217 505.265 233.962 504.955 233.785C503.93 233.353 502.813 233.184 501.707 233.296C500.321 233.251 498.933 233.339 497.564 233.558C496.908 233.609 496.291 233.888 495.82 234.346C495.728 234.439 495.658 234.552 495.614 234.675C495.571 234.799 495.555 234.931 495.569 235.061C495.583 235.191 495.625 235.317 495.694 235.429C495.762 235.54 495.854 235.636 495.964 235.708C496.472 235.979 497.027 236.154 497.599 236.221C498.161 236.328 498.686 236.412 499.164 236.472C501.098 236.71 502.316 236.687 502.316 236.782Z" fill="#EB996E"/>
<path d="M508.644 229.367C505.934 228.711 503.999 228.436 501.289 227.767C500.428 227.458 499.491 227.433 498.614 227.696C497.767 228.042 497.241 229.224 497.862 229.893C498.096 230.116 498.378 230.284 498.686 230.382L506.781 233.558" fill="#FFBE9D"/>
<path d="M506.758 233.558C505.675 233.32 504.616 232.985 503.593 232.555L500.286 231.302L498.292 230.526C498.074 230.447 497.878 230.318 497.718 230.15C497.559 229.983 497.44 229.78 497.373 229.558C497.318 229.329 497.311 229.091 497.352 228.859C497.393 228.627 497.481 228.406 497.611 228.209C497.846 227.817 498.209 227.518 498.638 227.361C499.023 227.234 499.428 227.181 499.832 227.206C500.551 227.295 501.261 227.439 501.958 227.636L505.456 228.448C506.549 228.639 507.618 228.947 508.644 229.367C507.539 229.287 506.441 229.123 505.361 228.878C504.358 228.699 503.152 228.496 501.779 228.197C501.113 228.017 500.434 227.889 499.749 227.815C499.426 227.764 499.096 227.806 498.796 227.935C498.496 228.063 498.238 228.275 498.053 228.543C497.891 228.799 497.831 229.106 497.886 229.403C497.933 229.537 498.011 229.658 498.112 229.757C498.214 229.857 498.336 229.932 498.471 229.976L500.417 230.764L503.737 232.137C504.788 232.511 505.8 232.986 506.758 233.558Z" fill="#EB996E"/>
<path d="M510.363 225.141L503.032 223.815C502.149 223.559 501.208 223.593 500.346 223.911C499.534 224.317 499.092 225.523 499.749 226.156C499.996 226.359 500.286 226.506 500.596 226.585L508.883 229.248" fill="#FFBE9D"/>
<path d="M508.883 229.248C507.79 229.088 506.714 228.824 505.671 228.46L502.244 227.433L500.214 226.8C499.992 226.738 499.786 226.626 499.612 226.473C499.438 226.32 499.302 226.13 499.211 225.917C499.138 225.694 499.111 225.458 499.131 225.224C499.152 224.99 499.22 224.762 499.331 224.556C499.53 224.143 499.868 223.813 500.286 223.624C500.66 223.452 501.068 223.366 501.48 223.373C502.204 223.395 502.925 223.491 503.629 223.66L507.14 224.365C508.232 224.532 509.308 224.8 510.351 225.164C509.248 225.147 508.148 225.023 507.068 224.794L503.486 224.221C502.815 224.077 502.131 223.997 501.444 223.982C501.122 223.953 500.799 224.017 500.513 224.168C500.227 224.318 499.99 224.548 499.832 224.83C499.032 226.287 501.229 226.394 502.364 226.884L505.754 228.078C506.831 228.372 507.878 228.763 508.883 229.248Z" fill="#EB996E"/>
<path d="M495.51 245.785L473.421 292.972C472.39 295.178 470.819 297.088 468.853 298.524C466.886 299.96 464.589 300.876 462.173 301.186C459.075 301.582 455.932 300.962 453.216 299.421C450.499 297.88 448.355 295.5 447.105 292.637L430.628 254.907L439.989 214.192L462.078 261.677L480.179 236.03L495.51 245.785Z" fill="#06B6D4"/>
<path d="M455.63 277.605C456.373 274.752 457.327 271.958 458.484 269.247C459.437 266.476 460.582 263.775 461.911 261.164C461.166 264.016 460.213 266.81 459.057 269.522C458.104 272.292 456.959 274.993 455.63 277.605Z" fill="#374151"/>
<path d="M450.735 318.07C450.669 317.739 450.625 317.404 450.604 317.067C450.544 316.35 450.448 315.371 450.341 314.153C450.114 311.55 449.804 307.897 449.422 303.407C448.634 294.285 447.547 281.784 446.353 267.981C445.159 254.179 443.858 241.63 442.855 232.579C442.341 228.102 441.923 224.46 441.661 221.833C441.517 220.639 441.398 219.636 441.314 218.92C441.258 218.581 441.234 218.237 441.243 217.893C441.243 217.893 441.326 218.239 441.446 218.896C441.565 219.553 441.708 220.58 441.899 221.797C442.27 224.317 442.771 227.97 443.32 232.484C444.431 241.522 445.708 254.035 446.998 267.874C448.287 281.712 449.231 294.249 449.887 303.324C450.186 307.825 450.437 311.491 450.604 314.07C450.675 315.264 450.723 316.279 450.759 317.007C450.788 317.361 450.78 317.717 450.735 318.07Z" fill="#374151"/>
<path d="M400.527 314.5L403.405 320.47C403.405 320.47 409.112 321.15 411.476 322.249C413.84 323.347 422.33 330.738 422.33 330.738C422.046 331.325 421.567 331.796 420.974 332.068C420.382 332.341 419.712 332.398 419.082 332.23C417.206 331.17 415.41 329.973 413.709 328.648C413.239 328.728 412.796 328.924 412.421 329.218C412.045 329.513 411.749 329.896 411.56 330.334C411.37 330.771 411.293 331.249 411.334 331.724C411.376 332.199 411.536 332.656 411.799 333.054C413.494 335.586 415.44 338.535 415.631 339.024C415.822 339.514 419.572 341.078 422.389 342.2C422.753 342.359 423.057 342.627 423.261 342.967C423.464 343.308 423.555 343.703 423.522 344.098C423.49 344.493 423.334 344.868 423.077 345.17C422.82 345.472 422.476 345.686 422.091 345.782C421.927 345.831 421.753 345.831 421.589 345.782C421.589 345.782 422.951 348.648 418.007 347.824C418.007 347.824 414.736 350.057 412.193 348.684C412.193 348.684 407.524 349.734 405.458 349.042C403.393 348.349 394.832 336.278 394.832 336.278L387.381 322.786L400.527 314.5Z" fill="#FFBE9D"/>
<path d="M408.264 336.147C408.473 336.986 408.803 337.79 409.244 338.535C410.126 340.477 411.456 342.183 413.124 343.514C414.889 344.674 416.926 345.353 419.034 345.484C419.881 345.616 420.743 345.616 421.589 345.484C420.777 345.247 419.939 345.106 419.094 345.066C417.107 344.799 415.203 344.098 413.518 343.012C411.937 341.74 410.626 340.165 409.661 338.379C409.284 337.584 408.815 336.834 408.264 336.147Z" fill="#EB996E"/>
<path d="M405.829 338.929C405.902 339.732 406.168 340.507 406.605 341.185C406.996 341.956 407.447 342.695 407.954 343.394C408.56 344.288 409.34 345.052 410.246 345.639C411.184 346.118 412.174 346.486 413.196 346.738L415.584 347.37C416.323 347.625 417.095 347.774 417.876 347.812C417.209 347.407 416.484 347.105 415.727 346.917C415.046 346.678 414.234 346.403 413.339 346.129C412.373 345.862 411.437 345.498 410.545 345.042C409.714 344.501 408.993 343.808 408.42 343C407.901 342.345 407.422 341.66 406.987 340.947C406.247 339.729 405.96 338.905 405.829 338.929Z" fill="#EB996E"/>
<path d="M403.262 342.368C403.047 342.523 404.563 344.684 406.557 347.144C406.839 347.483 407.205 347.743 407.62 347.896C407.957 348.049 408.304 348.181 408.658 348.29C409.25 348.478 409.858 348.614 410.473 348.696C411.524 348.827 412.193 348.696 412.181 348.612C412.169 348.529 411.548 348.469 410.557 348.218C409.981 348.079 409.415 347.904 408.861 347.693C408.531 347.582 408.208 347.45 407.894 347.299C407.582 347.175 407.304 346.979 407.082 346.726C406.079 345.46 405.136 344.338 404.444 343.585C403.751 342.833 403.333 342.332 403.262 342.368Z" fill="#EB996E"/>
<path d="M438.198 201.583C438.058 203.565 437.763 205.533 437.314 207.469C437.066 209.447 436.667 211.403 436.12 213.32C436.036 211.315 436.217 209.308 436.658 207.35C436.918 205.369 437.436 203.43 438.198 201.583Z" fill="#374151"/>
<path d="M429.016 205.201C429.058 204.047 429.309 202.91 429.756 201.846C430.015 200.719 430.472 199.648 431.106 198.682C431.049 199.835 430.794 200.97 430.353 202.037C430.103 203.164 429.649 204.236 429.016 205.201Z" fill="#374151"/>
<path d="M422.258 201.882C422.461 200.823 422.866 199.813 423.452 198.908C423.847 197.908 424.435 196.995 425.183 196.222C424.985 197.282 424.579 198.292 423.989 199.195C423.587 200.192 423 201.103 422.258 201.882Z" fill="#374151"/>
<path d="M413.387 200.855C414.013 199.556 414.817 198.35 415.775 197.273C416.569 196.069 417.53 194.983 418.628 194.049C418.01 195.352 417.206 196.559 416.24 197.631C415.446 198.835 414.485 199.92 413.387 200.855Z" fill="#374151"/>
<path d="M384.05 273.808C383.364 273.363 382.702 272.88 382.068 272.363C378.856 270.109 374.992 268.972 371.071 269.128C370.279 269.224 369.481 269.268 368.683 269.259C369.438 268.924 370.247 268.73 371.071 268.686C373.079 268.489 375.106 268.68 377.041 269.247C378.975 269.818 380.779 270.759 382.355 272.017C383.026 272.504 383.6 273.111 384.05 273.808Z" fill="#374151"/>
<path d="M377.638 258.549C378.364 259.004 379.01 259.577 379.549 260.244C382.345 263.344 384.096 267.246 384.552 271.396C384.7 272.241 384.7 273.106 384.552 273.951C384.008 268.198 381.582 262.784 377.65 258.549H377.638Z" fill="#374151"/>
<path d="M405.208 311.503C405.033 311.277 404.877 311.038 404.742 310.786L403.488 308.649L398.939 300.673C395.107 293.831 389.805 284.375 383.811 273.7L383.704 273.498L383.859 273.33L388.492 268.459L413.005 242.8L420.479 235.063L422.533 232.985C422.767 232.737 423.019 232.506 423.285 232.293C423.084 232.57 422.865 232.833 422.628 233.081L420.658 235.23L413.315 243.098C407.047 249.737 398.45 258.835 388.946 268.877L384.301 273.76V273.402C390.271 284.148 395.465 293.604 399.25 300.47C401.088 303.861 402.581 306.595 403.644 308.541L404.838 310.726C404.987 310.972 405.11 311.232 405.208 311.503Z" fill="#374151"/>
<g opacity="0.3">
<path opacity="0.3" d="M393.769 263.349L402.294 269.462C403.506 268.824 404.561 267.927 405.387 266.835C411.794 257.877 416.474 247.802 419.19 237.128L393.769 263.349Z" fill="black"/>
</g>
<path d="M406.079 249.928C405.926 248.338 405.455 246.795 404.694 245.391C403.83 243.904 402.682 242.602 401.315 241.558C399.617 240.293 397.748 239.276 395.763 238.537C393.662 237.69 391.572 237.104 389.71 236.352C388.019 235.746 386.494 234.752 385.256 233.451C384.424 232.559 383.861 231.449 383.632 230.251C383.519 229.82 383.519 229.368 383.632 228.938C383.632 228.938 383.632 229.415 383.859 230.203C384.172 231.314 384.759 232.328 385.567 233.152C386.798 234.357 388.283 235.271 389.913 235.827C391.728 236.531 393.841 237.093 395.978 237.952C398.017 238.718 399.932 239.78 401.662 241.104C403.069 242.213 404.228 243.604 405.065 245.188C405.628 246.254 405.984 247.416 406.115 248.615C406.184 249.051 406.172 249.496 406.079 249.928Z" fill="#F5F5F5"/>
<path d="M445.123 255.253C444.588 255.251 444.054 255.215 443.523 255.146C442.088 255.039 440.648 255.039 439.213 255.146C437.386 255.277 435.237 255.588 432.837 255.958C430.224 256.405 427.583 256.66 424.933 256.722C422.245 256.791 419.576 256.269 417.112 255.194C415.116 254.252 413.404 252.803 412.145 250.991C411.297 249.768 410.772 248.351 410.617 246.871C410.574 246.475 410.574 246.074 410.617 245.677C410.617 245.403 410.617 245.271 410.688 245.271C410.76 245.271 410.688 245.845 410.855 246.848C411.097 248.257 411.666 249.59 412.515 250.74C413.766 252.445 415.436 253.798 417.363 254.668C419.754 255.682 422.336 256.166 424.933 256.089C427.553 256.038 430.166 255.802 432.753 255.385C435.141 255.05 437.338 254.776 439.189 254.704C440.644 254.631 442.103 254.691 443.547 254.883C444.087 254.933 444.618 255.057 445.123 255.253Z" fill="#F5F5F5"/>
<path d="M453.135 244.125C452.241 245.75 451.008 247.164 449.518 248.268C448.028 249.373 446.317 250.143 444.502 250.525C444.502 250.346 446.771 249.546 449.147 247.767C451.523 245.988 452.98 244.018 453.135 244.125Z" fill="#F5F5F5"/>
<path d="M456.538 252.173C455.295 254.173 453.666 255.905 451.744 257.266C449.823 258.628 447.649 259.591 445.35 260.101C447.414 259.1 449.413 257.967 451.332 256.71C453.165 255.314 454.904 253.798 456.538 252.173Z" fill="#F5F5F5"/>
<path d="M446.675 268.65C444.534 267.465 442.174 266.729 439.738 266.489C437.088 266.274 434.425 266.274 431.774 266.489C428.499 266.762 425.206 266.738 421.936 266.417C415.973 265.761 410.207 263.892 404.993 260.925C403.423 260.027 401.916 259.026 400.48 257.928C399.939 257.541 399.436 257.105 398.975 256.626C399.551 256.955 400.102 257.326 400.623 257.737C402.103 258.748 403.633 259.685 405.208 260.543C410.412 263.362 416.113 265.15 421.995 265.808C425.238 266.117 428.501 266.153 431.75 265.916C434.427 265.719 437.116 265.755 439.786 266.023C441.6 266.231 443.365 266.748 445.004 267.551C445.446 267.766 445.869 268.018 446.269 268.304C446.556 268.495 446.687 268.65 446.675 268.65Z" fill="#F5F5F5"/>
<path d="M401.184 254.011C401.13 254.296 401.042 254.572 400.921 254.835L400.838 255.062L400.742 254.835C399.928 253.123 398.572 251.726 396.886 250.859C395.588 250.162 394.213 249.617 392.79 249.235C391.25 248.77 389.542 248.376 387.823 247.755C384.159 246.415 380.902 244.154 378.367 241.188C377.606 240.299 376.927 239.344 376.337 238.334C376.088 237.968 375.899 237.565 375.776 237.14C375.871 237.069 376.731 238.704 378.701 240.865C381.271 243.679 384.476 245.836 388.05 247.158C389.722 247.767 391.417 248.173 392.981 248.662C394.438 249.07 395.839 249.66 397.148 250.417C398.896 251.353 400.242 252.894 400.933 254.752H400.754C401.017 254.238 401.184 254 401.184 254.011Z" fill="#F5F5F5"/>
<path d="M570.804 558.171C570.804 558.338 447.822 558.482 296.064 558.482C144.307 558.482 21.301 558.338 21.301 558.171C21.301 558.004 144.283 557.861 296.064 557.861C447.846 557.861 570.804 558.004 570.804 558.171Z" fill="#0A2961"/>
</svg>
