<svg width="1358" height="98" viewBox="0 0 1358 98" fill="none" xmlns="http://www.w3.org/2000/svg">
<rect width="1358" height="98" fill="white"/>
<path d="M152.611 38.7376C153.19 38.7365 153.762 38.8528 154.294 39.0795C154.826 39.3063 155.306 39.6387 155.706 40.0566C156.043 40.3651 156.485 40.5339 156.942 40.5287C157.399 40.5234 157.837 40.3447 158.167 40.0285C158.497 39.7124 158.695 39.2826 158.72 38.8262C158.745 38.3699 158.595 37.9211 158.302 37.5708C157.21 36.4346 155.804 35.6508 154.264 35.3201C152.723 34.9895 151.119 35.1271 149.658 35.7153C148.196 36.3035 146.944 37.3154 146.062 38.6209C145.18 39.9264 144.709 41.4658 144.709 43.0413C144.709 44.6167 145.18 46.1561 146.062 47.4616C146.944 48.7671 148.196 49.779 149.658 50.3672C151.119 50.9554 152.723 51.0931 154.264 50.7624C155.804 50.4317 157.21 49.6479 158.302 48.5117C158.595 48.1614 158.745 47.7126 158.72 47.2563C158.695 46.7999 158.497 46.3701 158.167 46.054C157.837 45.7378 157.399 45.5591 156.942 45.5538C156.485 45.5486 156.043 45.7174 155.706 46.0259C155.309 46.4474 154.829 46.7827 154.297 47.011C153.764 47.2394 153.191 47.3559 152.611 47.3533C151.502 47.3042 150.454 46.8288 149.686 46.0263C148.919 45.2238 148.49 44.1561 148.49 43.0455C148.49 41.9349 148.919 40.8671 149.686 40.0646C150.454 39.2621 151.502 38.7868 152.611 38.7376ZM197.212 46.5755V39.6592C197.212 36.683 194.946 35.3556 190.981 35.3556C186.753 35.3556 184.758 37.5032 184.758 39.1519C184.786 39.593 184.986 40.0055 185.315 40.301C185.643 40.5965 186.075 40.7516 186.516 40.733C188.165 40.733 187.92 38.5685 190.676 38.4671C192.063 38.4163 193.28 38.9744 193.28 40.1581C193.28 41.3418 192.579 41.6631 191.192 41.7561C186.854 42.0351 183.828 42.9736 183.828 46.5755C183.828 51.75 191.243 52.1727 193.526 48.8583C193.526 48.8076 193.526 48.7738 193.526 48.8583C193.524 49.1446 193.581 49.4282 193.692 49.6919C193.804 49.9556 193.968 50.194 194.174 50.3924C194.38 50.5909 194.625 50.7453 194.893 50.8464C195.161 50.9475 195.446 50.9932 195.732 50.9806C196.671 50.9383 197.339 50.6424 197.339 50.0759C197.339 49.5094 197.212 48.3257 197.212 46.6008V46.5755ZM193.28 44.8845C193.304 45.2862 193.242 45.6885 193.098 46.0644C192.955 46.4404 192.733 46.7816 192.447 47.0654C192.162 47.3492 191.82 47.5691 191.443 47.7106C191.066 47.8521 190.663 47.9119 190.262 47.886C189.29 47.886 187.962 47.3702 187.962 46.195C187.962 45.0197 189.061 44.3856 190.575 44.132C192.088 43.8783 192.832 43.7008 193.28 43.2865V44.8845ZM181.392 49.9575V37.7061C181.392 36.4801 180.919 35.5247 179.27 35.5247C178.977 35.4829 178.679 35.5103 178.398 35.6047C178.118 35.6992 177.864 35.8579 177.656 36.0684C177.448 36.2788 177.292 36.535 177.201 36.8165C177.11 37.0979 177.086 37.3968 177.131 37.6892V49.9152C177.131 52.8999 175.33 52.1135 175.093 53.0774C174.755 54.4302 176.159 54.9291 177.047 54.9122C179.997 54.8868 181.392 52.4433 181.392 49.9406V49.9575ZM179.279 29.733C178.832 29.733 178.394 29.8658 178.023 30.1146C177.651 30.3635 177.362 30.717 177.191 31.1305C177.021 31.544 176.977 31.9988 177.066 32.4372C177.154 32.8755 177.371 33.2777 177.688 33.5928C178.006 33.9078 178.41 34.1215 178.849 34.2066C179.288 34.2918 179.742 34.2447 180.154 34.0712C180.567 33.8978 180.918 33.6058 181.164 33.2323C181.41 32.8589 181.54 32.4208 181.536 31.9736C181.536 31.3748 181.298 30.8006 180.875 30.3773C180.452 29.9539 179.877 29.7161 179.279 29.7161V29.733ZM170.342 48.8837C170.339 49.1696 170.395 49.453 170.505 49.7167C170.616 49.9804 170.779 50.2188 170.985 50.4173C171.19 50.6159 171.434 50.7705 171.702 50.8717C171.969 50.9729 172.254 51.0186 172.54 51.0059C173.487 50.9637 174.155 50.6677 174.155 50.1012C174.155 49.5347 173.986 48.4102 173.986 46.6431V39.6592C173.986 36.683 171.728 35.3556 167.763 35.3556C163.535 35.3556 161.54 37.5032 161.54 39.1519C161.568 39.593 161.768 40.0055 162.097 40.301C162.426 40.5965 162.857 40.7516 163.299 40.733C164.939 40.733 164.694 38.5685 167.459 38.4671C168.845 38.4163 170.063 38.9744 170.063 40.1581C170.063 41.3418 169.361 41.6631 167.966 41.7561C163.637 42.0351 160.61 42.9736 160.61 46.5755C160.61 51.75 168.025 52.1727 170.308 48.8583C170.342 48.8161 170.342 48.7822 170.342 48.8837ZM170.063 44.9267C170.085 45.3289 170.022 45.7313 169.877 46.1073C169.733 46.4833 169.51 46.8244 169.224 47.108C168.938 47.3916 168.595 47.6114 168.218 47.7528C167.841 47.8942 167.438 47.954 167.036 47.9283C166.072 47.9283 164.744 47.4125 164.744 46.2373C164.744 45.062 165.844 44.4279 167.349 44.1742C168.854 43.9206 169.606 43.743 170.063 43.3287V44.9267Z" fill="#1C2C4D"/>
<path d="M201.575 28.6338H204.297V50.5747H201.575V28.6338Z" fill="#989999"/>
<path d="M215.314 50.5746L215.094 48.6892H215.001C214.471 49.3973 213.779 49.969 212.984 50.3571C212.188 50.7452 211.312 50.9386 210.427 50.9213C209.838 50.9646 209.246 50.8852 208.689 50.6879C208.132 50.4907 207.622 50.18 207.191 49.7755C206.76 49.3709 206.418 48.8814 206.187 48.3379C205.955 47.7943 205.838 47.2086 205.845 46.6177C205.845 42.9989 209.066 41.012 214.849 41.0458V40.7329C214.849 39.4985 214.511 37.2664 211.467 37.2664C210.09 37.2748 208.742 37.6608 207.569 38.3824L206.952 36.6153C208.436 35.7203 210.14 35.2576 211.873 35.2794C216.456 35.2794 217.563 38.4078 217.563 41.4093V47.0151C217.545 48.2151 217.63 49.4145 217.817 50.6L215.314 50.5746ZM214.908 42.9651C211.941 42.9059 208.567 43.4301 208.567 46.3471C208.539 46.6905 208.584 47.0359 208.701 47.3602C208.817 47.6844 209.002 47.9799 209.242 48.2267C209.483 48.4735 209.773 48.6659 210.094 48.7909C210.415 48.9159 210.76 48.9706 211.104 48.9513C211.898 48.9695 212.678 48.7332 213.329 48.2769C213.98 47.8206 214.468 47.1681 214.722 46.4148C214.816 46.1424 214.868 45.8572 214.875 45.5692L214.908 42.9651Z" fill="#989999"/>
<path d="M219.956 50.5747C220.015 49.5601 220.083 48.0382 220.083 46.7107V28.6338H222.772V38.0358H222.831C223.347 37.1594 224.092 36.4399 224.985 35.9543C225.879 35.4688 226.888 35.2355 227.904 35.2795C231.624 35.2795 234.254 38.3825 234.22 42.9313C234.22 48.2834 230.838 50.9467 227.506 50.9467C226.489 51.0042 225.477 50.7697 224.589 50.2709C223.7 49.772 222.973 49.0296 222.493 48.1312H222.4L222.307 50.5747H219.956ZM222.772 44.5716C222.778 44.9049 222.821 45.2366 222.898 45.5608C223.129 46.4699 223.656 47.2764 224.395 47.8534C225.134 48.4305 226.044 48.7453 226.982 48.7484C229.832 48.7484 231.531 46.4317 231.531 42.999C231.531 39.9974 229.984 37.4271 227.075 37.4271C226.111 37.4441 225.179 37.7815 224.428 38.3861C223.676 38.9908 223.147 39.8283 222.924 40.7668C222.836 41.1328 222.785 41.5067 222.772 41.8829V44.5716Z" fill="#989999"/>
<path d="M134.027 60.374H134.873V66.5124H137.815V67.2565H134.027V60.374Z" fill="#1C2C4D"/>
<path d="M141.561 67.2565L141.493 66.6393C141.317 66.8732 141.088 67.0619 140.825 67.1899C140.562 67.3178 140.272 67.3812 139.98 67.3749C139.785 67.3889 139.59 67.3625 139.406 67.2973C139.222 67.2321 139.054 67.1295 138.912 66.9961C138.77 66.8626 138.657 66.7012 138.58 66.5219C138.503 66.3426 138.464 66.1494 138.466 65.9544C138.466 64.7538 139.531 64.1027 141.442 64.1112V64.0097C141.463 63.8565 141.448 63.7006 141.399 63.554C141.35 63.4074 141.268 63.274 141.159 63.1639C141.051 63.0538 140.919 62.9699 140.773 62.9187C140.627 62.8674 140.471 62.8502 140.318 62.8683C139.864 62.8669 139.419 62.9929 139.033 63.2319L138.83 62.64C139.318 62.3422 139.881 62.1897 140.453 62.2004C141.967 62.2004 142.33 63.2319 142.33 64.2211V66.0728C142.325 66.469 142.353 66.865 142.415 67.2565H141.561ZM141.425 64.72C140.445 64.72 139.337 64.8722 139.337 65.836C139.33 65.949 139.346 66.0623 139.386 66.1682C139.426 66.2742 139.488 66.3704 139.568 66.4505C139.648 66.5305 139.744 66.5926 139.85 66.6324C139.956 66.6723 140.07 66.689 140.182 66.6815C140.446 66.6873 140.704 66.6081 140.918 66.4559C141.133 66.3036 141.293 66.0863 141.375 65.836C141.408 65.7439 141.425 65.6466 141.425 65.5486V64.72Z" fill="#1C2C4D"/>
<path d="M143.708 67.2565C143.708 66.9268 143.708 66.411 143.708 65.9798V60.0021H144.554V63.1135C144.723 62.8192 144.971 62.5778 145.269 62.4165C145.568 62.2552 145.906 62.1804 146.245 62.2004C147.471 62.2004 148.342 63.2235 148.333 64.7369C148.333 66.504 147.217 67.3834 146.109 67.3834C145.768 67.4079 145.427 67.3331 145.127 67.1681C144.827 67.0031 144.581 66.7549 144.418 66.4533V67.2988L143.708 67.2565ZM144.638 65.278C144.63 65.3878 144.63 65.498 144.638 65.6078C144.722 65.9194 144.911 66.1925 145.173 66.3805C145.435 66.5686 145.754 66.66 146.076 66.6393C147.014 66.6393 147.572 65.8699 147.572 64.7369C147.572 63.7477 147.065 62.9022 146.101 62.9022C145.783 62.9082 145.477 63.0194 145.229 63.2182C144.981 63.4171 144.806 63.6925 144.731 64.0013C144.703 64.1235 144.686 64.2481 144.681 64.3733L144.638 65.278Z" fill="#1C2C4D"/>
<path d="M154.04 64.7453C154.07 65.0837 154.028 65.4247 153.917 65.7459C153.807 66.0671 153.629 66.3613 153.397 66.6094C153.165 66.8575 152.883 67.0539 152.57 67.1858C152.257 67.3176 151.92 67.3821 151.58 67.3748C151.254 67.3782 150.93 67.3135 150.63 67.185C150.33 67.0565 150.06 66.8668 149.837 66.6282C149.615 66.3896 149.444 66.1072 149.336 65.799C149.229 65.4909 149.187 65.1637 149.213 64.8383C149.183 64.5005 149.224 64.1603 149.335 63.8398C149.445 63.5192 149.622 63.2254 149.853 62.9774C150.084 62.7294 150.365 62.5329 150.677 62.4004C150.989 62.268 151.325 62.2027 151.664 62.2088C151.992 62.2029 152.317 62.2658 152.619 62.3933C152.92 62.5209 153.192 62.7103 153.416 62.9494C153.64 63.1884 153.811 63.4717 153.919 63.7811C154.026 64.0904 154.068 64.4189 154.04 64.7453ZM150.117 64.796C150.117 65.8783 150.743 66.6984 151.622 66.6984C152.502 66.6984 153.127 65.8529 153.127 64.7791C153.127 63.9336 152.704 62.8767 151.639 62.8767C150.574 62.8767 150.117 63.8575 150.117 64.796Z" fill="#1C2C4D"/>
<path d="M155.182 63.8575C155.182 63.2741 155.182 62.7752 155.182 62.3102H155.968V63.2825C156.054 62.9815 156.233 62.7152 156.479 62.521C156.725 62.3269 157.025 62.2147 157.338 62.2003C157.425 62.1867 157.513 62.1867 157.6 62.2003V63.0458C157.496 63.0314 157.391 63.0314 157.287 63.0458C156.98 63.0574 156.687 63.182 156.466 63.3957C156.244 63.6094 156.109 63.8972 156.086 64.2041C156.058 64.3404 156.044 64.4792 156.044 64.6184V67.2564H155.199L155.182 63.8575Z" fill="#1C2C4D"/>
<path d="M161.21 67.2565L161.143 66.6393C160.967 66.8732 160.738 67.062 160.475 67.1899C160.212 67.3178 159.922 67.3812 159.629 67.3749C159.435 67.3889 159.239 67.3625 159.056 67.2973C158.872 67.2321 158.704 67.1295 158.561 66.9961C158.419 66.8626 158.306 66.7012 158.229 66.5219C158.153 66.3426 158.114 66.1494 158.116 65.9544C158.116 64.7538 159.181 64.1028 161.092 64.1112V64.0098C161.112 63.8565 161.097 63.7007 161.048 63.5541C160.999 63.4075 160.917 63.274 160.809 63.1639C160.7 63.0538 160.568 62.9699 160.422 62.9187C160.276 62.8674 160.121 62.8502 159.967 62.8683C159.513 62.8669 159.068 62.9929 158.682 63.2319L158.471 62.64C158.963 62.3432 159.528 62.1909 160.103 62.2004C161.616 62.2004 161.98 63.2319 161.98 64.2211V66.0728C161.975 66.469 162.003 66.865 162.064 67.2565H161.21ZM161.075 64.72C160.094 64.72 158.987 64.8722 158.987 65.836C158.979 65.949 158.996 66.0623 159.036 66.1682C159.076 66.2742 159.138 66.3705 159.218 66.4505C159.298 66.5306 159.394 66.5926 159.5 66.6324C159.606 66.6723 159.719 66.689 159.832 66.6816C160.095 66.6873 160.353 66.6081 160.568 66.4559C160.783 66.3036 160.943 66.0863 161.024 65.836C161.058 65.7439 161.075 65.6466 161.075 65.5486V64.72Z" fill="#1C2C4D"/>
<path d="M164.44 60.8898V62.3102H165.734V62.9951H164.44V65.6669C164.44 66.2756 164.618 66.6223 165.116 66.6223C165.293 66.6266 165.469 66.6067 165.641 66.5631L165.683 67.2395C165.424 67.3249 165.152 67.365 164.88 67.3579C164.701 67.3688 164.521 67.3412 164.353 67.277C164.186 67.2129 164.034 67.1136 163.907 66.9859C163.636 66.6123 163.513 66.1515 163.561 65.6923V62.9951H162.8V62.3102H163.561V61.1265L164.44 60.8898Z" fill="#1C2C4D"/>
<path d="M171.162 64.7453C171.19 65.0842 171.147 65.4253 171.036 65.7465C170.924 66.0677 170.746 66.3618 170.513 66.6098C170.28 66.8577 169.998 67.0539 169.684 67.1857C169.371 67.3175 169.033 67.382 168.693 67.3748C168.367 67.3782 168.043 67.3136 167.743 67.185C167.443 67.0565 167.173 66.8669 166.95 66.6283C166.728 66.3896 166.557 66.1072 166.45 65.7991C166.342 65.4909 166.3 65.1637 166.326 64.8383C166.296 64.5006 166.338 64.1604 166.448 63.8398C166.558 63.5192 166.735 63.2254 166.966 62.9774C167.197 62.7295 167.478 62.5329 167.79 62.4005C168.102 62.2681 168.439 62.2028 168.778 62.2088C169.106 62.2017 169.432 62.2637 169.734 62.3908C170.037 62.5178 170.31 62.707 170.534 62.9462C170.759 63.1854 170.931 63.4691 171.039 63.7791C171.147 64.089 171.189 64.4182 171.162 64.7453ZM167.23 64.796C167.23 65.8783 167.856 66.6984 168.735 66.6984C169.615 66.6984 170.24 65.8529 170.24 64.7791C170.24 63.9336 169.818 62.8767 168.752 62.8767C167.687 62.8767 167.213 63.8575 167.213 64.796H167.23Z" fill="#1C2C4D"/>
<path d="M172.286 63.8574C172.286 63.274 172.286 62.7752 172.286 62.3102H173.073V63.2825C173.157 62.9802 173.335 62.7124 173.581 62.5178C173.827 62.3233 174.129 62.2121 174.442 62.2002C174.527 62.1875 174.612 62.1875 174.696 62.2002V63.0457C174.595 63.0318 174.493 63.0318 174.392 63.0457C174.083 63.0572 173.79 63.1815 173.567 63.395C173.344 63.6085 173.207 63.8964 173.183 64.2041C173.154 64.3404 173.14 64.4792 173.14 64.6184V67.2564H172.286V63.8574Z" fill="#1C2C4D"/>
<path d="M176.683 60.9236C176.683 61.0716 176.624 61.2135 176.52 61.3182C176.415 61.4228 176.273 61.4816 176.125 61.4816C175.977 61.4816 175.835 61.4228 175.73 61.3182C175.626 61.2135 175.567 61.0716 175.567 60.9236C175.565 60.8493 175.577 60.7753 175.605 60.7061C175.632 60.6369 175.673 60.5739 175.725 60.5209C175.777 60.468 175.839 60.4261 175.908 60.398C175.977 60.3698 176.051 60.3559 176.125 60.3571C176.2 60.3547 176.274 60.3677 176.343 60.3955C176.413 60.4232 176.476 60.465 176.528 60.5182C176.58 60.5714 176.621 60.6349 176.648 60.7047C176.675 60.7744 176.687 60.849 176.683 60.9236ZM175.668 67.2564V62.3102H176.573V67.2564H175.668Z" fill="#1C2C4D"/>
<path d="M182.551 64.7453C182.579 65.0842 182.536 65.4253 182.425 65.7465C182.313 66.0677 182.135 66.3618 181.902 66.6098C181.669 66.8577 181.387 67.0539 181.073 67.1857C180.76 67.3175 180.422 67.382 180.082 67.3748C179.756 67.3782 179.432 67.3136 179.132 67.185C178.832 67.0565 178.562 66.8669 178.339 66.6283C178.117 66.3896 177.946 66.1072 177.838 65.7991C177.731 65.4909 177.689 65.1637 177.715 64.8383C177.685 64.5006 177.727 64.1604 177.837 63.8398C177.947 63.5192 178.124 63.2254 178.355 62.9774C178.586 62.7295 178.867 62.5329 179.179 62.4005C179.491 62.2681 179.828 62.2028 180.167 62.2088C180.495 62.2017 180.821 62.2637 181.123 62.3908C181.426 62.5178 181.699 62.707 181.923 62.9462C182.148 63.1854 182.32 63.4691 182.428 63.7791C182.536 64.089 182.578 64.4182 182.551 64.7453ZM178.619 64.796C178.619 65.8783 179.245 66.6984 180.124 66.6984C181.004 66.6984 181.629 65.8529 181.629 64.7791C181.629 63.9336 181.206 62.8767 180.141 62.8767C179.076 62.8767 178.619 63.8575 178.619 64.796Z" fill="#1C2C4D"/>
<path d="M190.127 60.0021V65.9798C190.127 66.4195 190.127 66.9268 190.127 67.2565H189.323L189.281 66.411C189.118 66.715 188.874 66.9673 188.575 67.1392C188.276 67.3111 187.935 67.3957 187.59 67.3834C186.398 67.3834 185.476 66.3687 185.476 64.8468C185.476 63.2065 186.491 62.1919 187.692 62.1919C187.985 62.1766 188.277 62.2379 188.54 62.3699C188.802 62.5018 189.025 62.6998 189.188 62.9444V60.0021H190.127ZM189.197 64.3226C189.199 64.1973 189.185 64.0721 189.154 63.9506C189.094 63.653 188.931 63.3858 188.695 63.1945C188.459 63.0033 188.164 62.8999 187.861 62.9022C186.931 62.9022 186.373 63.7477 186.373 64.813C186.373 65.8783 186.871 66.6478 187.835 66.6478C188.152 66.6582 188.463 66.5561 188.712 66.3596C188.961 66.1631 189.133 65.8848 189.197 65.574C189.228 65.4468 189.242 65.316 189.239 65.185L189.197 64.3226Z" fill="#1C2C4D"/>
<path d="M192.114 64.9482C192.099 65.1742 192.132 65.4007 192.212 65.6126C192.292 65.8246 192.416 66.017 192.576 66.1771C192.736 66.3373 192.928 66.4613 193.14 66.541C193.352 66.6207 193.579 66.6542 193.805 66.6392C194.274 66.6545 194.741 66.568 195.174 66.3856L195.326 67.0282C194.808 67.2448 194.248 67.3486 193.686 67.3326C193.352 67.3556 193.016 67.3049 192.703 67.1842C192.391 67.0634 192.108 66.8754 191.876 66.6335C191.644 66.3916 191.467 66.1016 191.359 65.7842C191.251 65.4667 191.214 65.1294 191.251 64.796C191.251 63.3079 192.097 62.1327 193.568 62.1327C193.86 62.1379 194.148 62.2041 194.413 62.3271C194.678 62.4501 194.915 62.6271 195.107 62.8468C195.3 63.0665 195.444 63.3241 195.532 63.603C195.619 63.8819 195.647 64.1759 195.614 64.4663C195.626 64.6041 195.626 64.7428 195.614 64.8806L192.114 64.9482ZM194.752 64.3056C194.779 64.1257 194.768 63.9418 194.719 63.7665C194.669 63.5913 194.583 63.4287 194.465 63.2899C194.347 63.1511 194.2 63.0394 194.035 62.9622C193.87 62.8851 193.691 62.8444 193.509 62.8429C193.137 62.8684 192.789 63.0332 192.533 63.3044C192.278 63.5756 192.134 63.9331 192.13 64.3056H194.752Z" fill="#1C2C4D"/>
<path d="M199.825 60.374V67.2565H198.979V60.374H199.825Z" fill="#1C2C4D"/>
<path d="M201.448 63.6546C201.448 63.1388 201.448 62.7245 201.448 62.3102H202.243L202.293 63.1557C202.456 62.8655 202.694 62.6253 202.984 62.4614C203.273 62.2974 203.601 62.2159 203.934 62.2256C204.619 62.2256 205.675 62.6315 205.675 64.331V67.2818H204.779V64.4071C204.779 63.6123 204.483 62.9443 203.638 62.9443C203.364 62.9494 203.1 63.0414 202.882 63.2072C202.665 63.3729 202.506 63.6037 202.429 63.8659C202.385 64.0024 202.365 64.1454 202.37 64.2887V67.2564H201.465L201.448 63.6546Z" fill="#1C2C4D"/>
<path d="M207.121 63.6546C207.121 63.1388 207.121 62.7245 207.121 62.3102H207.916L207.967 63.1557C208.129 62.8655 208.368 62.6253 208.657 62.4614C208.946 62.2974 209.275 62.2159 209.607 62.2256C210.292 62.2256 211.357 62.6315 211.357 64.331V67.2818H210.453V64.4071C210.453 63.6123 210.157 62.9443 209.311 62.9443C209.038 62.9494 208.773 63.0414 208.556 63.2072C208.338 63.3729 208.179 63.6037 208.102 63.8659C208.058 64.0024 208.038 64.1454 208.043 64.2887V67.2564H207.121V63.6546Z" fill="#1C2C4D"/>
<path d="M217.276 64.7453C217.306 65.0838 217.264 65.4247 217.153 65.7459C217.042 66.0671 216.865 66.3613 216.633 66.6094C216.401 66.8575 216.119 67.0539 215.806 67.1858C215.492 67.3177 215.155 67.3821 214.815 67.3748C214.488 67.3794 214.164 67.3156 213.863 67.1876C213.562 67.0596 213.291 66.8702 213.067 66.6314C212.844 66.3927 212.672 66.1099 212.564 65.8011C212.456 65.4923 212.414 65.1644 212.44 64.8383C212.41 64.5006 212.451 64.1604 212.562 63.8398C212.672 63.5192 212.849 63.2254 213.08 62.9774C213.311 62.7295 213.592 62.5329 213.904 62.4005C214.216 62.2681 214.553 62.2028 214.891 62.2088C215.22 62.2017 215.546 62.2637 215.848 62.3908C216.151 62.5178 216.424 62.707 216.648 62.9462C216.873 63.1854 217.045 63.4691 217.153 63.7791C217.261 64.089 217.303 64.4182 217.276 64.7453ZM213.353 64.796C213.353 65.8783 213.978 66.6984 214.858 66.6984C215.737 66.6984 216.354 65.8529 216.354 64.7791C216.354 63.9336 215.94 62.8767 214.875 62.8767C213.809 62.8767 213.353 63.8575 213.353 64.796Z" fill="#1C2C4D"/>
<path d="M218.688 62.3103L219.635 65.092C219.795 65.5401 219.931 65.9375 220.032 66.3603C220.142 65.9544 220.286 65.5148 220.446 65.092L221.41 62.3103H222.349L220.48 67.2565H219.635L217.749 62.3103H218.688Z" fill="#1C2C4D"/>
<path d="M225.959 67.2565L225.883 66.6393C225.707 66.8727 225.478 67.0611 225.215 67.189C224.952 67.3168 224.662 67.3805 224.37 67.3749C224.175 67.3889 223.98 67.3625 223.796 67.2973C223.612 67.2321 223.444 67.1296 223.302 66.9961C223.16 66.8627 223.047 66.7012 222.97 66.5219C222.893 66.3427 222.855 66.1494 222.856 65.9544C222.856 64.7538 223.913 64.1028 225.832 64.1112V64.0098C225.851 63.8569 225.835 63.7017 225.785 63.5559C225.736 63.4101 225.654 63.2773 225.546 63.1676C225.438 63.0578 225.306 62.9739 225.161 62.9221C225.016 62.8703 224.861 62.8519 224.708 62.8683C224.251 62.8658 223.803 62.9918 223.414 63.2319L223.211 62.6401C223.7 62.3431 224.263 62.1907 224.835 62.2004C226.348 62.2004 226.72 63.2319 226.72 64.2212V66.0728C226.713 66.4688 226.738 66.8647 226.796 67.2565H225.959ZM225.824 64.72C224.843 64.72 223.727 64.8722 223.727 65.8361C223.72 65.949 223.736 66.0623 223.776 66.1683C223.816 66.2742 223.878 66.3705 223.958 66.4505C224.038 66.5306 224.134 66.5926 224.24 66.6325C224.346 66.6723 224.46 66.6891 224.573 66.6816C224.837 66.6891 225.097 66.6109 225.313 66.4585C225.53 66.3061 225.691 66.0877 225.773 65.8361C225.807 65.7439 225.824 65.6466 225.824 65.5486V64.72Z" fill="#1C2C4D"/>
<path d="M231.675 67.0789C231.227 67.2718 230.742 67.3669 230.254 67.3579C229.92 67.3759 229.585 67.322 229.273 67.2C228.96 67.0779 228.678 66.8905 228.444 66.6502C228.21 66.41 228.03 66.1225 227.917 65.8071C227.803 65.4916 227.758 65.1556 227.785 64.8214C227.772 64.4696 227.832 64.1189 227.962 63.7915C228.091 63.4642 228.288 63.1674 228.538 62.9201C228.789 62.6728 229.088 62.4803 229.417 62.3549C229.746 62.2295 230.097 62.174 230.449 62.1919C230.876 62.1894 231.299 62.2758 231.692 62.4455L231.489 63.1473C231.169 62.9778 230.81 62.8961 230.449 62.9105C229.986 62.9547 229.556 63.1698 229.244 63.5137C228.931 63.8577 228.758 64.3058 228.758 64.7707C228.758 65.2355 228.931 65.6836 229.244 66.0276C229.556 66.3715 229.986 66.5866 230.449 66.6308C230.829 66.6324 231.205 66.5486 231.548 66.3856L231.675 67.0789Z" fill="#1C2C4D"/>
<path d="M233.729 60.9236C233.729 61.0716 233.671 61.2135 233.566 61.3182C233.461 61.4228 233.319 61.4816 233.171 61.4816C233.023 61.4816 232.881 61.4228 232.777 61.3182C232.672 61.2135 232.613 61.0716 232.613 60.9236C232.611 60.8493 232.624 60.7753 232.651 60.7061C232.678 60.6369 232.719 60.5739 232.771 60.5209C232.823 60.468 232.886 60.4261 232.954 60.398C233.023 60.3698 233.097 60.3559 233.171 60.3571C233.246 60.3547 233.32 60.3677 233.39 60.3955C233.459 60.4232 233.522 60.465 233.574 60.5182C233.627 60.5714 233.668 60.6349 233.694 60.7047C233.721 60.7744 233.733 60.849 233.729 60.9236ZM232.723 67.2564V62.3102H233.628V67.2564H232.723Z" fill="#1C2C4D"/>
<path d="M239.597 64.7453C239.626 65.0842 239.583 65.4253 239.471 65.7465C239.359 66.0677 239.181 66.3618 238.948 66.6097C238.715 66.8577 238.433 67.0539 238.12 67.1857C237.806 67.3175 237.468 67.382 237.128 67.3748C236.802 67.3782 236.478 67.3136 236.178 67.185C235.878 67.0565 235.608 66.8669 235.386 66.6282C235.163 66.3896 234.992 66.1072 234.885 65.7991C234.777 65.4909 234.735 65.1637 234.761 64.8383C234.731 64.5006 234.773 64.1604 234.883 63.8398C234.994 63.5192 235.17 63.2254 235.401 62.9774C235.632 62.7294 235.913 62.5329 236.225 62.4005C236.537 62.268 236.874 62.2027 237.213 62.2088C237.541 62.2017 237.867 62.2637 238.17 62.3908C238.472 62.5178 238.745 62.707 238.97 62.9462C239.195 63.1854 239.367 63.4691 239.475 63.7791C239.583 64.089 239.625 64.4182 239.597 64.7453ZM235.666 64.796C235.666 65.8783 236.291 66.6984 237.171 66.6984C238.05 66.6984 238.676 65.8529 238.676 64.7791C238.676 63.9336 238.253 62.8767 237.196 62.8767C236.139 62.8767 235.699 63.8575 235.699 64.796H235.666ZM238.523 60.1796L237.272 61.6338H236.63L237.526 60.1796H238.523Z" fill="#1C2C4D"/>
<path d="M240.772 63.6546C240.772 63.1388 240.772 62.7245 240.772 62.3102H241.567L241.618 63.1557C241.78 62.8668 242.017 62.6275 242.304 62.4636C242.592 62.2997 242.919 62.2174 243.25 62.2257C243.935 62.2257 245 62.6315 245 64.331V67.2818H244.104V64.4071C244.104 63.6123 243.808 62.9443 242.954 62.9443C242.682 62.9498 242.418 63.0422 242.202 63.208C241.986 63.3739 241.829 63.6044 241.753 63.8659C241.706 64.0018 241.683 64.1449 241.686 64.2887V67.2564H240.772V63.6546Z" fill="#1C2C4D"/>
<path d="M97.1969 53.3225H86.4759V42.6184H97.1969" fill="#1C2C4D"/>
<path d="M118.681 69.4633H113.312V74.8322H118.681V69.4633Z" fill="#067AA1"/>
<path d="M113.312 69.4633H107.943V74.8322H113.312V69.4633Z" fill="#067AA1"/>
<path d="M107.943 69.4633H102.574V74.8322H107.943V69.4633Z" fill="#067AA1"/>
<path d="M102.574 69.4633H97.2054V74.8322H102.574V69.4633Z" fill="#ED6B61"/>
<path d="M86.4674 69.4633H81.0984V74.8322H86.4674V69.4633Z" fill="#F7AB31"/>
<path d="M81.0985 69.4633H75.7295V74.8322H81.0985V69.4633Z" fill="#438837"/>
<path d="M75.738 69.4633H70.369V74.8322H75.738V69.4633Z" fill="#438837"/>
<path d="M70.369 69.4633H65V74.8322H70.369V69.4633Z" fill="#438837"/>
<path d="M118.681 64.1027H113.312V69.4716H118.681V64.1027Z" fill="#067AA1"/>
<path d="M113.312 64.1027H107.943V69.4716H113.312V64.1027Z" fill="#067AA1"/>
<path d="M107.943 64.1027H102.574V69.4716H107.943V64.1027Z" fill="#ED6B61"/>
<path d="M102.574 64.1027H97.2054V69.4716H102.574V64.1027Z" fill="#ED6B61"/>
<path d="M97.2054 64.1027H91.8364V69.4716H97.2054V64.1027Z" fill="#DE0B14"/>
<path d="M91.8364 64.1027H86.4674V69.4716H91.8364V64.1027Z" fill="#DE0B14"/>
<path d="M86.4674 64.1027H81.0984V69.4716H86.4674V64.1027Z" fill="#F7AB31"/>
<path d="M81.0985 64.1027H75.7295V69.4716H81.0985V64.1027Z" fill="#F7AB31"/>
<path d="M75.738 64.1027H70.369V69.4716H75.738V64.1027Z" fill="#438837"/>
<path d="M70.369 64.1027H65V69.4716H70.369V64.1027Z" fill="#438837"/>
<path d="M118.681 58.7338H113.312V64.1027H118.681V58.7338Z" fill="#067AA1"/>
<path d="M113.312 58.7338H107.943V64.1027H113.312V58.7338Z" fill="#00B1B6"/>
<path d="M102.574 58.7338H97.2054V64.1027H102.574V58.7338Z" fill="#ED6B61"/>
<path d="M97.2054 58.7338H91.8364V64.1027H97.2054V58.7338Z" fill="#DE0B14"/>
<path d="M91.8364 58.7338H86.4674V64.1027H91.8364V58.7338Z" fill="#DE0B14"/>
<path d="M86.4674 58.7338H81.0984V64.1027H86.4674V58.7338Z" fill="#F7AB31"/>
<path d="M75.738 58.7338H70.369V64.1027H75.738V58.7338Z" fill="#00B1B6"/>
<path d="M70.369 58.7338H65V64.1027H70.369V58.7338Z" fill="#438837"/>
<path d="M118.681 53.3649H113.312V58.7338H118.681V53.3649Z" fill="#00B1B6"/>
<path d="M113.312 53.3649H107.943V58.7338H113.312V53.3649Z" fill="#00B1B6"/>
<path d="M107.943 53.3649H102.574V58.7338H107.943V53.3649Z" fill="#00B1B6"/>
<path d="M81.0985 53.3649H75.7295V58.7338H81.0985V53.3649Z" fill="#00B1B6"/>
<path d="M75.738 53.3649H70.369V58.7338H75.738V53.3649Z" fill="#00B1B6"/>
<path d="M70.369 53.3649H65V58.7338H70.369V53.3649Z" fill="#00B1B6"/>
<path d="M113.312 48.0043H107.943V53.3732H113.312V48.0043Z" fill="#438837"/>
<path d="M107.943 48.0043H102.574V53.3732H107.943V48.0043Z" fill="#438837"/>
<path d="M81.0985 48.0043H75.7295V53.3732H81.0985V48.0043Z" fill="#438837"/>
<path d="M75.738 48.0043H70.369V53.3732H75.738V48.0043Z" fill="#438837"/>
<path d="M113.312 42.6353H107.943V48.0042H113.312V42.6353Z" fill="#438837"/>
<path d="M107.943 42.6353H102.574V48.0042H107.943V42.6353Z" fill="#438837"/>
<path d="M81.0985 42.6353H75.7295V48.0042H81.0985V42.6353Z" fill="#438837"/>
<path d="M75.738 42.6353H70.369V48.0042H75.738V42.6353Z" fill="#438837"/>
<path d="M118.681 37.2664H113.312V42.6353H118.681V37.2664Z" fill="#93C130"/>
<path d="M113.312 37.2664H107.943V42.6353H113.312V37.2664Z" fill="#93C130"/>
<path d="M107.943 37.2664H102.574V42.6353H107.943V37.2664Z" fill="#93C130"/>
<path d="M81.0985 37.2664H75.7295V42.6353H81.0985V37.2664Z" fill="#93C130"/>
<path d="M75.738 37.2664H70.369V42.6353H75.738V37.2664Z" fill="#93C130"/>
<path d="M70.369 37.2664H65V42.6353H70.369V37.2664Z" fill="#93C130"/>
<path d="M118.681 31.8973H113.312V37.2663H118.681V31.8973Z" fill="#B16C3C"/>
<path d="M113.312 31.8973H107.943V37.2663H113.312V31.8973Z" fill="#93C130"/>
<path d="M102.574 31.8973H97.2054V37.2663H102.574V31.8973Z" fill="#ED6B61"/>
<path d="M97.2054 31.8973H91.8364V37.2663H97.2054V31.8973Z" fill="#DE0B14"/>
<path d="M91.8364 31.8973H86.4674V37.2663H91.8364V31.8973Z" fill="#DE0B14"/>
<path d="M86.4674 31.8973H81.0984V37.2663H86.4674V31.8973Z" fill="#F7AB31"/>
<path d="M75.738 31.8973H70.369V37.2663H75.738V31.8973Z" fill="#93C130"/>
<path d="M70.369 31.8973H65V37.2663H70.369V31.8973Z" fill="#73742E"/>
<path d="M118.681 26.5369H113.312V31.9058H118.681V26.5369Z" fill="#B16C3C"/>
<path d="M113.312 26.5369H107.943V31.9058H113.312V26.5369Z" fill="#B16C3C"/>
<path d="M107.943 26.5369H102.574V31.9058H107.943V26.5369Z" fill="#ED6B61"/>
<path d="M102.574 26.5369H97.2054V31.9058H102.574V26.5369Z" fill="#ED6B61"/>
<path d="M97.2054 26.5369H91.8364V31.9058H97.2054V26.5369Z" fill="#DE0B14"/>
<path d="M91.8364 26.5369H86.4674V31.9058H91.8364V26.5369Z" fill="#DE0B14"/>
<path d="M86.4674 26.5369H81.0984V31.9058H86.4674V26.5369Z" fill="#F7AB31"/>
<path d="M81.0985 26.5369H75.7295V31.9058H81.0985V26.5369Z" fill="#F7AB31"/>
<path d="M75.738 26.5369H70.369V31.9058H75.738V26.5369Z" fill="#73742E"/>
<path d="M70.369 26.5369H65V31.9058H70.369V26.5369Z" fill="#73742E"/>
<path d="M118.681 21.1678H113.312V26.5368H118.681V21.1678Z" fill="#B16C3C"/>
<path d="M113.312 21.1678H107.943V26.5368H113.312V21.1678Z" fill="#B16C3C"/>
<path d="M107.943 21.1678H102.574V26.5368H107.943V21.1678Z" fill="#B16C3C"/>
<path d="M102.574 21.1678H97.2054V26.5368H102.574V21.1678Z" fill="#ED6B61"/>
<path d="M86.4674 21.1678H81.0984V26.5368H86.4674V21.1678Z" fill="#F7AB31"/>
<path d="M81.0985 21.1678H75.7295V26.5368H81.0985V21.1678Z" fill="#73742E"/>
<path d="M75.738 21.1678H70.369V26.5368H75.738V21.1678Z" fill="#73742E"/>
<path d="M70.369 21.1678H65V26.5368H70.369V21.1678Z" fill="#73742E"/>
<rect y="96" width="1358" height="2" fill="#E5E7EB"/>
</svg>
