<svg width="387" height="32" viewBox="0 0 387 32" fill="none" xmlns="http://www.w3.org/2000/svg">
<path d="M12.1236 24.9432L11.902 16.7955H9.82244L9.59517 24.9432H12.1236ZM10.8622 13.1591C10.1122 13.1591 9.4929 13.767 9.49858 14.5227C9.4929 15.267 10.1122 15.875 10.8622 15.875C11.5895 15.875 12.2202 15.267 12.2259 14.5227C12.2202 13.767 11.5895 13.1591 10.8622 13.1591ZM24.7315 14.4375C24.4077 11.75 22.3736 10.2045 19.6804 10.2045C16.6065 10.2045 14.2599 12.375 14.2599 16.1818C14.2599 19.9773 16.5668 22.1591 19.6804 22.1591C22.6634 22.1591 24.4645 20.1761 24.7315 18.0341L22.2429 18.0227C22.0099 19.267 21.0327 19.983 19.7202 19.983C17.9531 19.983 16.7543 18.6705 16.7543 16.1818C16.7543 13.7614 17.9361 12.3807 19.7372 12.3807C21.0838 12.3807 22.0554 13.1591 22.2429 14.4375H24.7315ZM30.4276 22.1705C32.5866 22.1705 34.0412 21.1193 34.3821 19.5L32.1435 19.3523C31.8991 20.017 31.2741 20.3636 30.4673 20.3636C29.2571 20.3636 28.4901 19.5625 28.4901 18.2614V18.2557H34.4332V17.5909C34.4332 14.625 32.6378 13.1591 30.331 13.1591C27.7628 13.1591 26.098 14.983 26.098 17.6761C26.098 20.4432 27.7401 22.1705 30.4276 22.1705ZM28.4901 16.7557C28.5412 15.7614 29.2969 14.9659 30.3707 14.9659C31.4219 14.9659 32.1491 15.7159 32.1548 16.7557H28.4901ZM38.4332 10.3636H36.0128V22H38.4332V10.3636ZM44.3494 22.1705C46.5085 22.1705 47.9631 21.1193 48.304 19.5L46.0653 19.3523C45.821 20.017 45.196 20.3636 44.3892 20.3636C43.179 20.3636 42.4119 19.5625 42.4119 18.2614V18.2557H48.3551V17.5909C48.3551 14.625 46.5597 13.1591 44.2528 13.1591C41.6847 13.1591 40.0199 14.983 40.0199 17.6761C40.0199 20.4432 41.6619 22.1705 44.3494 22.1705ZM42.4119 16.7557C42.4631 15.7614 43.2188 14.9659 44.2926 14.9659C45.3438 14.9659 46.071 15.7159 46.0767 16.7557H42.4119ZM49.9801 22H52.3665V20.6023H52.4744C52.8097 21.3295 53.5426 22.142 54.9517 22.142C56.9403 22.142 58.4915 20.5682 58.4915 17.6477C58.4915 14.6477 56.8722 13.1591 54.9574 13.1591C53.4972 13.1591 52.7983 14.0284 52.4744 14.7386H52.4006V10.3636H49.9801V22ZM52.3494 17.6364C52.3494 16.0795 53.0085 15.0852 54.1847 15.0852C55.3835 15.0852 56.0199 16.125 56.0199 17.6364C56.0199 19.1591 55.3722 20.2159 54.1847 20.2159C53.0199 20.2159 52.3494 19.1932 52.3494 17.6364ZM60.1065 22H62.527V17.0625C62.527 15.9886 63.3111 15.25 64.3793 15.25C64.7145 15.25 65.1747 15.3068 65.402 15.3807V13.233C65.1861 13.1818 64.8849 13.1477 64.6406 13.1477C63.6634 13.1477 62.8622 13.7159 62.544 14.7955H62.4531V13.2727H60.1065V22ZM68.892 22.1648C70.1818 22.1648 71.017 21.6023 71.4432 20.7898H71.5114V22H73.8068V16.1136C73.8068 14.0341 72.0455 13.1591 70.1023 13.1591C68.0114 13.1591 66.6364 14.1591 66.3011 15.75L68.5398 15.9318C68.7045 15.3523 69.2216 14.9261 70.0909 14.9261C70.9148 14.9261 71.3864 15.3409 71.3864 16.0568V16.0909C71.3864 16.6534 70.7898 16.7273 69.2727 16.875C67.5455 17.0341 65.9943 17.6136 65.9943 19.5625C65.9943 21.2898 67.2273 22.1648 68.892 22.1648ZM69.5852 20.4943C68.8409 20.4943 68.3068 20.1477 68.3068 19.483C68.3068 18.8011 68.8693 18.4659 69.7216 18.3466C70.25 18.2727 71.1136 18.1477 71.4034 17.9545V18.8807C71.4034 19.7955 70.6477 20.4943 69.5852 20.4943ZM75.6847 22H78.1051V16.7614C78.1051 15.7955 78.7188 15.1534 79.5256 15.1534C80.321 15.1534 80.8551 15.6989 80.8551 16.5568V22H83.2017V16.6705C83.2017 15.767 83.7188 15.1534 84.5994 15.1534C85.3722 15.1534 85.9517 15.6364 85.9517 16.608V22H88.3665V16.1307C88.3665 14.2386 87.2415 13.1591 85.6165 13.1591C84.3381 13.1591 83.3438 13.8125 82.9858 14.8125H82.8949C82.6165 13.8011 81.7244 13.1591 80.5256 13.1591C79.3494 13.1591 78.4574 13.7841 78.0938 14.8125H77.9915V13.2727H75.6847V22ZM94.2216 22.1705C96.8693 22.1705 98.517 20.358 98.517 17.6705C98.517 14.9659 96.8693 13.1591 94.2216 13.1591C91.5739 13.1591 89.9261 14.9659 89.9261 17.6705C89.9261 20.358 91.5739 22.1705 94.2216 22.1705ZM94.233 20.2955C93.0114 20.2955 92.3864 19.1761 92.3864 17.6534C92.3864 16.1307 93.0114 15.0057 94.233 15.0057C95.4318 15.0057 96.0568 16.1307 96.0568 17.6534C96.0568 19.1761 95.4318 20.2955 94.233 20.2955ZM107.352 15.7614C107.136 14.1534 105.841 13.1591 103.636 13.1591C101.403 13.1591 99.9318 14.1932 99.9375 15.875C99.9318 17.1818 100.756 18.0284 102.46 18.3693L103.972 18.6705C104.733 18.8239 105.08 19.1023 105.091 19.5398C105.08 20.0568 104.517 20.4261 103.67 20.4261C102.807 20.4261 102.233 20.0568 102.085 19.3466L99.7045 19.4716C99.9318 21.142 101.352 22.1705 103.665 22.1705C105.926 22.1705 107.545 21.017 107.551 19.2955C107.545 18.0341 106.722 17.2784 105.028 16.9318L103.449 16.6136C102.636 16.4375 102.335 16.1591 102.341 15.7386C102.335 15.2159 102.926 14.875 103.676 14.875C104.517 14.875 105.017 15.3352 105.136 15.8977L107.352 15.7614ZM116.756 22.1705C118.915 22.1705 120.369 21.1193 120.71 19.5L118.472 19.3523C118.227 20.017 117.602 20.3636 116.795 20.3636C115.585 20.3636 114.818 19.5625 114.818 18.2614V18.2557H120.761V17.5909C120.761 14.625 118.966 13.1591 116.659 13.1591C114.091 13.1591 112.426 14.983 112.426 17.6761C112.426 20.4432 114.068 22.1705 116.756 22.1705ZM114.818 16.7557C114.869 15.7614 115.625 14.9659 116.699 14.9659C117.75 14.9659 118.477 15.7159 118.483 16.7557H114.818ZM129.602 15.7614C129.386 14.1534 128.091 13.1591 125.886 13.1591C123.653 13.1591 122.182 14.1932 122.188 15.875C122.182 17.1818 123.006 18.0284 124.71 18.3693L126.222 18.6705C126.983 18.8239 127.33 19.1023 127.341 19.5398C127.33 20.0568 126.767 20.4261 125.92 20.4261C125.057 20.4261 124.483 20.0568 124.335 19.3466L121.955 19.4716C122.182 21.142 123.602 22.1705 125.915 22.1705C128.176 22.1705 129.795 21.017 129.801 19.2955C129.795 18.0341 128.972 17.2784 127.278 16.9318L125.699 16.6136C124.886 16.4375 124.585 16.1591 124.591 15.7386C124.585 15.2159 125.176 14.875 125.926 14.875C126.767 14.875 127.267 15.3352 127.386 15.8977L129.602 15.7614ZM135.967 13.2727H134.325V11.1818H131.905V13.2727H130.712V15.0909H131.905V19.6364C131.893 21.3466 133.058 22.1932 134.814 22.1193C135.439 22.0966 135.882 21.9716 136.126 21.892L135.746 20.0909C135.626 20.1136 135.371 20.1705 135.143 20.1705C134.661 20.1705 134.325 19.9886 134.325 19.3182V15.0909H135.967V13.2727ZM141.428 22.1705C143.587 22.1705 145.041 21.1193 145.382 19.5L143.143 19.3523C142.899 20.017 142.274 20.3636 141.467 20.3636C140.257 20.3636 139.49 19.5625 139.49 18.2614V18.2557H145.433V17.5909C145.433 14.625 143.638 13.1591 141.331 13.1591C138.763 13.1591 137.098 14.983 137.098 17.6761C137.098 20.4432 138.74 22.1705 141.428 22.1705ZM139.49 16.7557C139.541 15.7614 140.297 14.9659 141.371 14.9659C142.422 14.9659 143.149 15.7159 143.155 16.7557H139.49ZM150.761 22H155.733C158.347 22 159.739 20.6364 159.739 18.7841C159.739 17.0625 158.506 16.0227 157.182 15.9602V15.8466C158.392 15.5739 159.284 14.7159 159.284 13.3466C159.284 11.6023 157.989 10.3636 155.42 10.3636H150.761V22ZM153.222 19.9886V16.8977H155.284C156.466 16.8977 157.199 17.5795 157.199 18.5398C157.199 19.4148 156.602 19.9886 155.227 19.9886H153.222ZM153.222 15.233V12.3523H155.091C156.182 12.3523 156.801 12.9148 156.801 13.7557C156.801 14.6761 156.051 15.233 155.045 15.233H153.222ZM161.294 22H163.714V13.2727H161.294V22ZM162.51 12.1477C163.232 12.1477 163.822 11.5966 163.822 10.9205C163.822 10.25 163.232 9.69886 162.51 9.69886C161.794 9.69886 161.203 10.25 161.203 10.9205C161.203 11.5966 161.794 12.1477 162.51 12.1477ZM169.597 22.1705C171.92 22.1705 173.381 20.8068 173.494 18.8011H171.21C171.068 19.733 170.455 20.2557 169.625 20.2557C168.494 20.2557 167.761 19.3068 167.761 17.6364C167.761 15.9886 168.5 15.0455 169.625 15.0455C170.511 15.0455 171.08 15.6307 171.21 16.5H173.494C173.392 14.483 171.864 13.1591 169.585 13.1591C166.938 13.1591 165.301 14.9943 165.301 17.6705C165.301 20.3239 166.909 22.1705 169.597 22.1705ZM179.021 22.1705C181.18 22.1705 182.635 21.1193 182.976 19.5L180.737 19.3523C180.493 20.017 179.868 20.3636 179.061 20.3636C177.851 20.3636 177.084 19.5625 177.084 18.2614V18.2557H183.027V17.5909C183.027 14.625 181.232 13.1591 178.925 13.1591C176.357 13.1591 174.692 14.983 174.692 17.6761C174.692 20.4432 176.334 22.1705 179.021 22.1705ZM177.084 16.7557C177.135 15.7614 177.891 14.9659 178.964 14.9659C180.016 14.9659 180.743 15.7159 180.749 16.7557H177.084ZM187.027 16.9545C187.033 15.8295 187.703 15.1705 188.68 15.1705C189.652 15.1705 190.237 15.8068 190.232 16.875V22H192.652V16.4432C192.652 14.4091 191.459 13.1591 189.641 13.1591C188.345 13.1591 187.408 13.7955 187.016 14.8125H186.913V13.2727H184.607V22H187.027V16.9545ZM199.202 13.2727H197.56V11.1818H195.139V13.2727H193.946V15.0909H195.139V19.6364C195.128 21.3466 196.293 22.1932 198.048 22.1193C198.673 22.0966 199.116 21.9716 199.361 21.892L198.98 20.0909C198.861 20.1136 198.605 20.1705 198.378 20.1705C197.895 20.1705 197.56 19.9886 197.56 19.3182V15.0909H199.202V13.2727ZM204.662 22.1705C206.821 22.1705 208.276 21.1193 208.616 19.5L206.378 19.3523C206.134 20.017 205.509 20.3636 204.702 20.3636C203.491 20.3636 202.724 19.5625 202.724 18.2614V18.2557H208.668V17.5909C208.668 14.625 206.872 13.1591 204.565 13.1591C201.997 13.1591 200.332 14.983 200.332 17.6761C200.332 20.4432 201.974 22.1705 204.662 22.1705ZM202.724 16.7557C202.776 15.7614 203.531 14.9659 204.605 14.9659C205.656 14.9659 206.384 15.7159 206.389 16.7557H202.724ZM212.668 16.9545C212.673 15.8295 213.344 15.1705 214.321 15.1705C215.293 15.1705 215.878 15.8068 215.872 16.875V22H218.293V16.4432C218.293 14.4091 217.099 13.1591 215.281 13.1591C213.986 13.1591 213.048 13.7955 212.656 14.8125H212.554V13.2727H210.247V22H212.668V16.9545ZM222.689 22.1648C223.979 22.1648 224.814 21.6023 225.24 20.7898H225.308V22H227.604V16.1136C227.604 14.0341 225.842 13.1591 223.899 13.1591C221.808 13.1591 220.433 14.1591 220.098 15.75L222.337 15.9318C222.501 15.3523 223.018 14.9261 223.888 14.9261C224.712 14.9261 225.183 15.3409 225.183 16.0568V16.0909C225.183 16.6534 224.587 16.7273 223.07 16.875C221.342 17.0341 219.791 17.6136 219.791 19.5625C219.791 21.2898 221.024 22.1648 222.689 22.1648ZM223.382 20.4943C222.638 20.4943 222.104 20.1477 222.104 19.483C222.104 18.8011 222.666 18.4659 223.518 18.3466C224.047 18.2727 224.911 18.1477 225.2 17.9545V18.8807C225.2 19.7955 224.445 20.4943 223.382 20.4943ZM229.482 22H231.902V17.0625C231.902 15.9886 232.686 15.25 233.754 15.25C234.089 15.25 234.55 15.3068 234.777 15.3807V13.233C234.561 13.1818 234.26 13.1477 234.016 13.1477C233.038 13.1477 232.237 13.7159 231.919 14.7955H231.828V13.2727H229.482V22ZM236.028 22H238.449V13.2727H236.028V22ZM237.244 12.1477C237.966 12.1477 238.557 11.5966 238.557 10.9205C238.557 10.25 237.966 9.69886 237.244 9.69886C236.528 9.69886 235.938 10.25 235.938 10.9205C235.938 11.5966 236.528 12.1477 237.244 12.1477ZM244.331 22.1705C246.979 22.1705 248.626 20.358 248.626 17.6705C248.626 14.9659 246.979 13.1591 244.331 13.1591C241.683 13.1591 240.036 14.9659 240.036 17.6705C240.036 20.358 241.683 22.1705 244.331 22.1705ZM244.342 20.2955C243.121 20.2955 242.496 19.1761 242.496 17.6534C242.496 16.1307 243.121 15.0057 244.342 15.0057C245.541 15.0057 246.166 16.1307 246.166 17.6534C246.166 19.1761 245.541 20.2955 244.342 20.2955ZM256.392 22.1648C257.682 22.1648 258.517 21.6023 258.943 20.7898H259.011V22H261.307V16.1136C261.307 14.0341 259.545 13.1591 257.602 13.1591C255.511 13.1591 254.136 14.1591 253.801 15.75L256.04 15.9318C256.205 15.3523 256.722 14.9261 257.591 14.9261C258.415 14.9261 258.886 15.3409 258.886 16.0568V16.0909C258.886 16.6534 258.29 16.7273 256.773 16.875C255.045 17.0341 253.494 17.6136 253.494 19.5625C253.494 21.2898 254.727 22.1648 256.392 22.1648ZM257.085 20.4943C256.341 20.4943 255.807 20.1477 255.807 19.483C255.807 18.8011 256.369 18.4659 257.222 18.3466C257.75 18.2727 258.614 18.1477 258.903 17.9545V18.8807C258.903 19.7955 258.148 20.4943 257.085 20.4943ZM269.308 16.9545C269.314 15.8295 269.984 15.1705 270.962 15.1705C271.933 15.1705 272.518 15.8068 272.513 16.875V22H274.933V16.4432C274.933 14.4091 273.74 13.1591 271.922 13.1591C270.626 13.1591 269.689 13.7955 269.297 14.8125H269.195V13.2727H266.888V22H269.308V16.9545ZM282.438 18.2841C282.443 19.4545 281.642 20.0682 280.773 20.0682C279.858 20.0682 279.267 19.4261 279.261 18.3977V13.2727H276.841V18.8295C276.847 20.8693 278.04 22.1136 279.795 22.1136C281.108 22.1136 282.051 21.4375 282.443 20.4148H282.534V22H284.858V13.2727H282.438V18.2841ZM290.771 22.1705C292.93 22.1705 294.385 21.1193 294.726 19.5L292.487 19.3523C292.243 20.017 291.618 20.3636 290.811 20.3636C289.601 20.3636 288.834 19.5625 288.834 18.2614V18.2557H294.777V17.5909C294.777 14.625 292.982 13.1591 290.675 13.1591C288.107 13.1591 286.442 14.983 286.442 17.6761C286.442 20.4432 288.084 22.1705 290.771 22.1705ZM288.834 16.7557C288.885 15.7614 289.641 14.9659 290.714 14.9659C291.766 14.9659 292.493 15.7159 292.499 16.7557H288.834ZM303.618 15.7614C303.402 14.1534 302.107 13.1591 299.902 13.1591C297.669 13.1591 296.197 14.1932 296.203 15.875C296.197 17.1818 297.021 18.0284 298.726 18.3693L300.237 18.6705C300.999 18.8239 301.345 19.1023 301.357 19.5398C301.345 20.0568 300.783 20.4261 299.936 20.4261C299.072 20.4261 298.499 20.0568 298.351 19.3466L295.97 19.4716C296.197 21.142 297.618 22.1705 299.93 22.1705C302.192 22.1705 303.811 21.017 303.817 19.2955C303.811 18.0341 302.987 17.2784 301.294 16.9318L299.714 16.6136C298.902 16.4375 298.601 16.1591 298.607 15.7386C298.601 15.2159 299.192 14.875 299.942 14.875C300.783 14.875 301.283 15.3352 301.402 15.8977L303.618 15.7614ZM309.983 13.2727H308.341V11.1818H305.92V13.2727H304.727V15.0909H305.92V19.6364C305.909 21.3466 307.074 22.1932 308.83 22.1193C309.455 22.0966 309.898 21.9716 310.142 21.892L309.761 20.0909C309.642 20.1136 309.386 20.1705 309.159 20.1705C308.676 20.1705 308.341 19.9886 308.341 19.3182V15.0909H309.983V13.2727ZM311.56 22H313.98V17.0625C313.98 15.9886 314.764 15.25 315.832 15.25C316.168 15.25 316.628 15.3068 316.855 15.3807V13.233C316.639 13.1818 316.338 13.1477 316.094 13.1477C315.116 13.1477 314.315 13.7159 313.997 14.7955H313.906V13.2727H311.56V22ZM321.643 22.1705C324.291 22.1705 325.939 20.358 325.939 17.6705C325.939 14.9659 324.291 13.1591 321.643 13.1591C318.996 13.1591 317.348 14.9659 317.348 17.6705C317.348 20.358 318.996 22.1705 321.643 22.1705ZM321.655 20.2955C320.433 20.2955 319.808 19.1761 319.808 17.6534C319.808 16.1307 320.433 15.0057 321.655 15.0057C322.854 15.0057 323.479 16.1307 323.479 17.6534C323.479 19.1761 322.854 20.2955 321.655 20.2955ZM335.193 22.1705C337.352 22.1705 338.807 21.1193 339.148 19.5L336.909 19.3523C336.665 20.017 336.04 20.3636 335.233 20.3636C334.023 20.3636 333.256 19.5625 333.256 18.2614V18.2557H339.199V17.5909C339.199 14.625 337.403 13.1591 335.097 13.1591C332.528 13.1591 330.864 14.983 330.864 17.6761C330.864 20.4432 332.506 22.1705 335.193 22.1705ZM333.256 16.7557C333.307 15.7614 334.062 14.9659 335.136 14.9659C336.188 14.9659 336.915 15.7159 336.92 16.7557H333.256ZM348.04 15.7614C347.824 14.1534 346.528 13.1591 344.324 13.1591C342.091 13.1591 340.619 14.1932 340.625 15.875C340.619 17.1818 341.443 18.0284 343.148 18.3693L344.659 18.6705C345.42 18.8239 345.767 19.1023 345.778 19.5398C345.767 20.0568 345.205 20.4261 344.358 20.4261C343.494 20.4261 342.92 20.0568 342.773 19.3466L340.392 19.4716C340.619 21.142 342.04 22.1705 344.352 22.1705C346.614 22.1705 348.233 21.017 348.239 19.2955C348.233 18.0341 347.409 17.2784 345.716 16.9318L344.136 16.6136C343.324 16.4375 343.023 16.1591 343.028 15.7386C343.023 15.2159 343.614 14.875 344.364 14.875C345.205 14.875 345.705 15.3352 345.824 15.8977L348.04 15.7614ZM354.405 13.2727H352.763V11.1818H350.342V13.2727H349.149V15.0909H350.342V19.6364C350.331 21.3466 351.496 22.1932 353.251 22.1193C353.876 22.0966 354.32 21.9716 354.564 21.892L354.183 20.0909C354.064 20.1136 353.808 20.1705 353.581 20.1705C353.098 20.1705 352.763 19.9886 352.763 19.3182V15.0909H354.405V13.2727ZM355.982 22H358.402V13.2727H355.982V22ZM357.197 12.1477C357.919 12.1477 358.51 11.5966 358.51 10.9205C358.51 10.25 357.919 9.69886 357.197 9.69886C356.482 9.69886 355.891 10.25 355.891 10.9205C355.891 11.5966 356.482 12.1477 357.197 12.1477ZM362.761 10.3636H360.341V22H362.761V10.3636ZM368.643 22.1705C371.291 22.1705 372.939 20.358 372.939 17.6705C372.939 14.9659 371.291 13.1591 368.643 13.1591C365.996 13.1591 364.348 14.9659 364.348 17.6705C364.348 20.358 365.996 22.1705 368.643 22.1705ZM368.655 20.2955C367.433 20.2955 366.808 19.1761 366.808 17.6534C366.808 16.1307 367.433 15.0057 368.655 15.0057C369.854 15.0057 370.479 16.1307 370.479 17.6534C370.479 19.1761 369.854 20.2955 368.655 20.2955ZM377.405 10.3636H374.876L375.104 18.5114H377.183L377.405 10.3636ZM376.143 22.1477C376.871 22.1477 377.501 21.5398 377.507 20.7841C377.501 20.0398 376.871 19.4318 376.143 19.4318C375.393 19.4318 374.774 20.0398 374.78 20.7841C374.774 21.5398 375.393 22.1477 376.143 22.1477Z" fill="#52575C"/>
</svg>
