<svg width="466" height="93" viewBox="0 0 466 93" fill="none" xmlns="http://www.w3.org/2000/svg">
<path d="M50.956 13H58.0696V11.75H52.3651V7.79545H57.6151V6.54545H52.3651V2.61364H57.9787V1.36364H50.956V13ZM61.6776 1.36364H60.3366V13H61.6776V1.36364ZM69.9744 7.75C69.9744 6.22727 70.946 5.36364 72.2699 5.36364C73.5312 5.36364 74.2926 6.15909 74.2926 7.54545V13H75.6335V7.45455C75.6335 5.21023 74.4403 4.15909 72.6562 4.15909C71.2812 4.15909 70.4972 4.73295 70.0881 5.63636H69.9744V1.36364H68.6335V13H69.9744V7.75ZM81.6321 13.1818C83.9957 13.1818 85.5866 11.3864 85.5866 8.68182C85.5866 5.95455 83.9957 4.15909 81.6321 4.15909C79.2685 4.15909 77.6776 5.95455 77.6776 8.68182C77.6776 11.3864 79.2685 13.1818 81.6321 13.1818ZM81.6321 11.9773C79.8366 11.9773 79.0185 10.4318 79.0185 8.68182C79.0185 6.93182 79.8366 5.36364 81.6321 5.36364C83.4276 5.36364 84.2457 6.93182 84.2457 8.68182C84.2457 10.4318 83.4276 11.9773 81.6321 11.9773ZM87.6335 13H88.9744V7.54545C88.9744 6.26705 89.9062 5.36364 90.9517 5.36364C91.9688 5.36364 92.679 6.02841 92.679 7.02273V13H94.0426V7.31818C94.0426 6.19318 94.7472 5.36364 95.9744 5.36364C96.929 5.36364 97.7472 5.86932 97.7472 7.15909V13H99.0881V7.15909C99.0881 5.10795 97.9858 4.15909 96.429 4.15909C95.179 4.15909 94.2642 4.73295 93.8153 5.63636H93.7244C93.2926 4.70455 92.5312 4.15909 91.3835 4.15909C90.2472 4.15909 89.4062 4.70455 89.0426 5.63636H88.929V4.27273H87.6335V13ZM105.199 13.1818C106.972 13.1818 108.267 12.2955 108.676 10.9773L107.381 10.6136C107.04 11.5227 106.25 11.9773 105.199 11.9773C103.625 11.9773 102.54 10.9602 102.477 9.09091H108.812V8.52273C108.812 5.27273 106.881 4.15909 105.062 4.15909C102.699 4.15909 101.131 6.02273 101.131 8.70455C101.131 11.3864 102.676 13.1818 105.199 13.1818ZM102.477 7.93182C102.568 6.57386 103.528 5.36364 105.062 5.36364C106.517 5.36364 107.449 6.45455 107.449 7.93182H102.477ZM114.398 13.1818C116.761 13.1818 118.352 11.3864 118.352 8.68182C118.352 5.95455 116.761 4.15909 114.398 4.15909C112.034 4.15909 110.443 5.95455 110.443 8.68182C110.443 11.3864 112.034 13.1818 114.398 13.1818ZM114.398 11.9773C112.602 11.9773 111.784 10.4318 111.784 8.68182C111.784 6.93182 112.602 5.36364 114.398 5.36364C116.193 5.36364 117.011 6.93182 117.011 8.68182C117.011 10.4318 116.193 11.9773 114.398 11.9773ZM124.286 4.27273H122.331V3.38636C122.331 2.52273 122.695 2.06818 123.581 2.06818C123.967 2.06818 124.195 2.15909 124.331 2.20455L124.717 1.04545C124.513 0.954545 124.104 0.818181 123.445 0.818181C122.195 0.818181 120.99 1.56818 120.99 3.06818V4.27273H119.581V5.40909H120.99V13H122.331V5.40909H124.286V4.27273ZM130.051 4.27273H128.097V3.38636C128.097 2.52273 128.46 2.06818 129.347 2.06818C129.733 2.06818 129.96 2.15909 130.097 2.20455L130.483 1.04545C130.278 0.954545 129.869 0.818181 129.21 0.818181C127.96 0.818181 126.756 1.56818 126.756 3.06818V4.27273H125.347V5.40909H126.756V13H128.097V5.40909H130.051V4.27273ZM131.93 13H133.271V4.27273H131.93V13ZM132.612 2.81818C133.135 2.81818 133.567 2.40909 133.567 1.90909C133.567 1.40909 133.135 1 132.612 1C132.089 1 131.658 1.40909 131.658 1.90909C131.658 2.40909 132.089 2.81818 132.612 2.81818ZM139.273 13.1818C141.205 13.1818 142.477 12 142.705 10.4545H141.364C141.114 11.4091 140.318 11.9773 139.273 11.9773C137.682 11.9773 136.659 10.6591 136.659 8.63636C136.659 6.65909 137.705 5.36364 139.273 5.36364C140.455 5.36364 141.159 6.09091 141.364 6.88636H142.705C142.477 5.25 141.091 4.15909 139.25 4.15909C136.886 4.15909 135.318 6.02273 135.318 8.68182C135.318 11.2955 136.818 13.1818 139.273 13.1818ZM148.324 13.1818C150.097 13.1818 151.392 12.2955 151.801 10.9773L150.506 10.6136C150.165 11.5227 149.375 11.9773 148.324 11.9773C146.75 11.9773 145.665 10.9602 145.602 9.09091H151.938V8.52273C151.938 5.27273 150.006 4.15909 148.188 4.15909C145.824 4.15909 144.256 6.02273 144.256 8.70455C144.256 11.3864 145.801 13.1818 148.324 13.1818ZM145.602 7.93182C145.693 6.57386 146.653 5.36364 148.188 5.36364C149.642 5.36364 150.574 6.45455 150.574 7.93182H145.602ZM159.818 7.75C159.818 6.22727 160.761 5.36364 162.045 5.36364C163.29 5.36364 164.045 6.17614 164.045 7.54545V13H165.386V7.45455C165.386 5.22727 164.199 4.15909 162.432 4.15909C161.114 4.15909 160.295 4.75 159.886 5.63636H159.773V4.27273H158.477V13H159.818V7.75ZM171.382 13.1818C173.746 13.1818 175.337 11.3864 175.337 8.68182C175.337 5.95455 173.746 4.15909 171.382 4.15909C169.018 4.15909 167.428 5.95455 167.428 8.68182C167.428 11.3864 169.018 13.1818 171.382 13.1818ZM171.382 11.9773C169.587 11.9773 168.768 10.4318 168.768 8.68182C168.768 6.93182 169.587 5.36364 171.382 5.36364C173.178 5.36364 173.996 6.93182 173.996 8.68182C173.996 10.4318 173.178 11.9773 171.382 11.9773ZM183.565 6.22727C183.145 4.98864 182.202 4.15909 180.474 4.15909C178.634 4.15909 177.27 5.20455 177.27 6.68182C177.27 7.88636 177.986 8.69318 179.588 9.06818L181.043 9.40909C181.923 9.61364 182.338 10.0341 182.338 10.6364C182.338 11.3864 181.543 12 180.293 12C179.196 12 178.509 11.5284 178.27 10.5909L176.997 10.9091C177.31 12.392 178.531 13.1818 180.315 13.1818C182.344 13.1818 183.724 12.0739 183.724 10.5682C183.724 9.35227 182.963 8.58523 181.406 8.20455L180.111 7.88636C179.077 7.63068 178.611 7.28409 178.611 6.61364C178.611 5.86364 179.406 5.31818 180.474 5.31818C181.645 5.31818 182.128 5.96591 182.361 6.56818L183.565 6.22727ZM193.538 13.1818C195.22 13.1818 195.788 12.1364 196.084 11.6591H196.243V13H197.538V1.36364H196.197V5.65909H196.084C195.788 5.20455 195.266 4.15909 193.561 4.15909C191.357 4.15909 189.834 5.90909 189.834 8.65909C189.834 11.4318 191.357 13.1818 193.538 13.1818ZM193.72 11.9773C192.038 11.9773 191.175 10.5 191.175 8.63636C191.175 6.79545 192.016 5.36364 193.72 5.36364C195.357 5.36364 196.22 6.68182 196.22 8.63636C196.22 10.6136 195.334 11.9773 193.72 11.9773ZM200.18 13H201.521V4.27273H200.18V13ZM200.862 2.81818C201.385 2.81818 201.817 2.40909 201.817 1.90909C201.817 1.40909 201.385 1 200.862 1C200.339 1 199.908 1.40909 199.908 1.90909C199.908 2.40909 200.339 2.81818 200.862 2.81818ZM207.523 13.1818C209.886 13.1818 211.477 11.3864 211.477 8.68182C211.477 5.95455 209.886 4.15909 207.523 4.15909C205.159 4.15909 203.568 5.95455 203.568 8.68182C203.568 11.3864 205.159 13.1818 207.523 13.1818ZM207.523 11.9773C205.727 11.9773 204.909 10.4318 204.909 8.68182C204.909 6.93182 205.727 5.36364 207.523 5.36364C209.318 5.36364 210.136 6.93182 210.136 8.68182C210.136 10.4318 209.318 11.9773 207.523 11.9773ZM219.365 1.36364H218.024V13H219.365V1.36364ZM224.389 13.2045C225.912 13.2045 226.707 12.3864 226.98 11.8182H227.048V13H228.389V7.25C228.389 4.47727 226.276 4.15909 225.162 4.15909C223.844 4.15909 222.344 4.61364 221.662 6.20455L222.935 6.65909C223.23 6.02273 223.929 5.34091 225.207 5.34091C226.44 5.34091 227.048 5.99432 227.048 7.11364V7.15909C227.048 7.80682 226.389 7.75 224.798 7.95455C223.179 8.16477 221.412 8.52273 221.412 10.5227C221.412 12.2273 222.73 13.2045 224.389 13.2045ZM224.594 12C223.526 12 222.753 11.5227 222.753 10.5909C222.753 9.56818 223.685 9.25 224.73 9.11364C225.298 9.04545 226.821 8.88636 227.048 8.61364V9.84091C227.048 10.9318 226.185 12 224.594 12ZM238.882 13.1818C241.246 13.1818 242.837 11.3864 242.837 8.68182C242.837 5.95455 241.246 4.15909 238.882 4.15909C236.518 4.15909 234.928 5.95455 234.928 8.68182C234.928 11.3864 236.518 13.1818 238.882 13.1818ZM238.882 11.9773C237.087 11.9773 236.268 10.4318 236.268 8.68182C236.268 6.93182 237.087 5.36364 238.882 5.36364C240.678 5.36364 241.496 6.93182 241.496 8.68182C241.496 10.4318 240.678 11.9773 238.882 11.9773ZM244.884 16.2727H246.224V11.6591H246.338C246.634 12.1364 247.202 13.1818 248.884 13.1818C251.065 13.1818 252.588 11.4318 252.588 8.65909C252.588 5.90909 251.065 4.15909 248.861 4.15909C247.156 4.15909 246.634 5.20455 246.338 5.65909H246.179V4.27273H244.884V16.2727ZM246.202 8.63636C246.202 6.68182 247.065 5.36364 248.702 5.36364C250.406 5.36364 251.247 6.79545 251.247 8.63636C251.247 10.5 250.384 11.9773 248.702 11.9773C247.088 11.9773 246.202 10.6136 246.202 8.63636ZM258.179 13.1818C260.543 13.1818 262.134 11.3864 262.134 8.68182C262.134 5.95455 260.543 4.15909 258.179 4.15909C255.815 4.15909 254.224 5.95455 254.224 8.68182C254.224 11.3864 255.815 13.1818 258.179 13.1818ZM258.179 11.9773C256.384 11.9773 255.565 10.4318 255.565 8.68182C255.565 6.93182 256.384 5.36364 258.179 5.36364C259.974 5.36364 260.793 6.93182 260.793 8.68182C260.793 10.4318 259.974 11.9773 258.179 11.9773ZM264.18 13H265.521V7.47727C265.521 6.29545 266.453 5.43182 267.726 5.43182C268.084 5.43182 268.453 5.5 268.544 5.52273V4.15909C268.391 4.14773 268.038 4.13636 267.839 4.13636C266.794 4.13636 265.885 4.72727 265.567 5.59091H265.476V4.27273H264.18V13ZM274.476 4.27273H272.612V2.18182H271.271V4.27273H269.953V5.40909H271.271V10.8636C271.271 12.3864 272.499 13.1136 273.635 13.1136C274.135 13.1136 274.453 13.0227 274.635 12.9545L274.362 11.75C274.249 11.7727 274.067 11.8182 273.771 11.8182C273.18 11.8182 272.612 11.6364 272.612 10.5V5.40909H274.476V4.27273ZM281.993 9.43182C281.993 11.0682 280.743 11.8182 279.743 11.8182C278.629 11.8182 277.834 11 277.834 9.72727V4.27273H276.493V9.81818C276.493 12.0455 277.675 13.1136 279.311 13.1136C280.629 13.1136 281.493 12.4091 281.902 11.5227H281.993V13H283.334V4.27273H281.993V9.43182ZM287.131 7.75C287.131 6.22727 288.074 5.36364 289.358 5.36364C290.602 5.36364 291.358 6.17614 291.358 7.54545V13H292.699V7.45455C292.699 5.22727 291.511 4.15909 289.744 4.15909C288.426 4.15909 287.608 4.75 287.199 5.63636H287.085V4.27273H285.79V13H287.131V7.75ZM295.149 13H296.49V4.27273H295.149V13ZM295.831 2.81818C296.354 2.81818 296.786 2.40909 296.786 1.90909C296.786 1.40909 296.354 1 295.831 1C295.308 1 294.876 1.40909 294.876 1.90909C294.876 2.40909 295.308 2.81818 295.831 2.81818ZM302.241 13.1818C303.923 13.1818 304.491 12.1364 304.787 11.6591H304.946V13H306.241V1.36364H304.901V5.65909H304.787C304.491 5.20455 303.969 4.15909 302.264 4.15909C300.06 4.15909 298.537 5.90909 298.537 8.65909C298.537 11.4318 300.06 13.1818 302.241 13.1818ZM302.423 11.9773C300.741 11.9773 299.878 10.5 299.878 8.63636C299.878 6.79545 300.719 5.36364 302.423 5.36364C304.06 5.36364 304.923 6.68182 304.923 8.63636C304.923 10.6136 304.037 11.9773 302.423 11.9773ZM311.452 13.2045C312.974 13.2045 313.77 12.3864 314.043 11.8182H314.111V13H315.452V7.25C315.452 4.47727 313.338 4.15909 312.224 4.15909C310.906 4.15909 309.406 4.61364 308.724 6.20455L309.997 6.65909C310.293 6.02273 310.991 5.34091 312.27 5.34091C313.503 5.34091 314.111 5.99432 314.111 7.11364V7.15909C314.111 7.80682 313.452 7.75 311.861 7.95455C310.241 8.16477 308.474 8.52273 308.474 10.5227C308.474 12.2273 309.793 13.2045 311.452 13.2045ZM311.656 12C310.588 12 309.815 11.5227 309.815 10.5909C309.815 9.56818 310.747 9.25 311.793 9.11364C312.361 9.04545 313.884 8.88636 314.111 8.61364V9.84091C314.111 10.9318 313.247 12 311.656 12ZM321.195 13.1818C322.876 13.1818 323.445 12.1364 323.74 11.6591H323.899V13H325.195V1.36364H323.854V5.65909H323.74C323.445 5.20455 322.922 4.15909 321.217 4.15909C319.013 4.15909 317.49 5.90909 317.49 8.65909C317.49 11.4318 319.013 13.1818 321.195 13.1818ZM321.376 11.9773C319.695 11.9773 318.831 10.5 318.831 8.63636C318.831 6.79545 319.672 5.36364 321.376 5.36364C323.013 5.36364 323.876 6.68182 323.876 8.63636C323.876 10.6136 322.99 11.9773 321.376 11.9773ZM335.632 13.1818C337.314 13.1818 337.882 12.1364 338.178 11.6591H338.337V13H339.632V1.36364H338.291V5.65909H338.178C337.882 5.20455 337.359 4.15909 335.655 4.15909C333.45 4.15909 331.928 5.90909 331.928 8.65909C331.928 11.4318 333.45 13.1818 335.632 13.1818ZM335.814 11.9773C334.132 11.9773 333.268 10.5 333.268 8.63636C333.268 6.79545 334.109 5.36364 335.814 5.36364C337.45 5.36364 338.314 6.68182 338.314 8.63636C338.314 10.6136 337.428 11.9773 335.814 11.9773ZM345.933 13.1818C347.706 13.1818 349.001 12.2955 349.411 10.9773L348.115 10.6136C347.774 11.5227 346.984 11.9773 345.933 11.9773C344.359 11.9773 343.274 10.9602 343.212 9.09091H349.547V8.52273C349.547 5.27273 347.615 4.15909 345.797 4.15909C343.433 4.15909 341.865 6.02273 341.865 8.70455C341.865 11.3864 343.411 13.1818 345.933 13.1818ZM343.212 7.93182C343.303 6.57386 344.263 5.36364 345.797 5.36364C347.251 5.36364 348.183 6.45455 348.183 7.93182H343.212ZM359.632 13.1818C361.564 13.1818 362.837 12 363.064 10.4545H361.723C361.473 11.4091 360.678 11.9773 359.632 11.9773C358.041 11.9773 357.018 10.6591 357.018 8.63636C357.018 6.65909 358.064 5.36364 359.632 5.36364C360.814 5.36364 361.518 6.09091 361.723 6.88636H363.064C362.837 5.25 361.45 4.15909 359.609 4.15909C357.246 4.15909 355.678 6.02273 355.678 8.68182C355.678 11.2955 357.178 13.1818 359.632 13.1818ZM368.57 13.1818C370.933 13.1818 372.524 11.3864 372.524 8.68182C372.524 5.95455 370.933 4.15909 368.57 4.15909C366.206 4.15909 364.615 5.95455 364.615 8.68182C364.615 11.3864 366.206 13.1818 368.57 13.1818ZM368.57 11.9773C366.774 11.9773 365.956 10.4318 365.956 8.68182C365.956 6.93182 366.774 5.36364 368.57 5.36364C370.365 5.36364 371.183 6.93182 371.183 8.68182C371.183 10.4318 370.365 11.9773 368.57 11.9773ZM375.912 7.75C375.912 6.22727 376.855 5.36364 378.139 5.36364C379.384 5.36364 380.139 6.17614 380.139 7.54545V13H381.48V7.45455C381.48 5.22727 380.293 4.15909 378.526 4.15909C377.207 4.15909 376.389 4.75 375.98 5.63636H375.866V4.27273H374.571V13H375.912V7.75ZM387.476 13.1818C389.839 13.1818 391.43 11.3864 391.43 8.68182C391.43 5.95455 389.839 4.15909 387.476 4.15909C385.112 4.15909 383.521 5.95455 383.521 8.68182C383.521 11.3864 385.112 13.1818 387.476 13.1818ZM387.476 11.9773C385.68 11.9773 384.862 10.4318 384.862 8.68182C384.862 6.93182 385.68 5.36364 387.476 5.36364C389.271 5.36364 390.089 6.93182 390.089 8.68182C390.089 10.4318 389.271 11.9773 387.476 11.9773ZM397.023 13.1818C398.955 13.1818 400.227 12 400.455 10.4545H399.114C398.864 11.4091 398.068 11.9773 397.023 11.9773C395.432 11.9773 394.409 10.6591 394.409 8.63636C394.409 6.65909 395.455 5.36364 397.023 5.36364C398.205 5.36364 398.909 6.09091 399.114 6.88636H400.455C400.227 5.25 398.841 4.15909 397 4.15909C394.636 4.15909 393.068 6.02273 393.068 8.68182C393.068 11.2955 394.568 13.1818 397.023 13.1818ZM406.074 13.1818C407.847 13.1818 409.142 12.2955 409.551 10.9773L408.256 10.6136C407.915 11.5227 407.125 11.9773 406.074 11.9773C404.5 11.9773 403.415 10.9602 403.352 9.09091H409.688V8.52273C409.688 5.27273 407.756 4.15909 405.938 4.15909C403.574 4.15909 402.006 6.02273 402.006 8.70455C402.006 11.3864 403.551 13.1818 406.074 13.1818ZM403.352 7.93182C403.443 6.57386 404.403 5.36364 405.938 5.36364C407.392 5.36364 408.324 6.45455 408.324 7.93182H403.352ZM411.727 13H413.068V7.47727C413.068 6.29545 414 5.43182 415.273 5.43182C415.631 5.43182 416 5.5 416.091 5.52273V4.15909C415.938 4.14773 415.585 4.13636 415.386 4.13636C414.341 4.13636 413.432 4.72727 413.114 5.59091H413.023V4.27273H411.727V13ZM9.25852 35.2727H10.5994V30.6591H10.7131C11.0085 31.1364 11.5767 32.1818 13.2585 32.1818C15.4403 32.1818 16.9631 30.4318 16.9631 27.6591C16.9631 24.9091 15.4403 23.1591 13.2358 23.1591C11.5312 23.1591 11.0085 24.2045 10.7131 24.6591H10.554V23.2727H9.25852V35.2727ZM10.5767 27.6364C10.5767 25.6818 11.4403 24.3636 13.0767 24.3636C14.7812 24.3636 15.6222 25.7955 15.6222 27.6364C15.6222 29.5 14.7585 30.9773 13.0767 30.9773C11.4631 30.9773 10.5767 29.6136 10.5767 27.6364ZM19.0085 32H20.3494V26.4773C20.3494 25.2955 21.2812 24.4318 22.554 24.4318C22.9119 24.4318 23.2812 24.5 23.3722 24.5227V23.1591C23.2188 23.1477 22.8665 23.1364 22.6676 23.1364C21.6222 23.1364 20.7131 23.7273 20.3949 24.5909H20.304V23.2727H19.0085V32ZM28.2415 32.1818C30.6051 32.1818 32.196 30.3864 32.196 27.6818C32.196 24.9545 30.6051 23.1591 28.2415 23.1591C25.8778 23.1591 24.2869 24.9545 24.2869 27.6818C24.2869 30.3864 25.8778 32.1818 28.2415 32.1818ZM28.2415 30.9773C26.446 30.9773 25.6278 29.4318 25.6278 27.6818C25.6278 25.9318 26.446 24.3636 28.2415 24.3636C30.0369 24.3636 30.8551 25.9318 30.8551 27.6818C30.8551 29.4318 30.0369 30.9773 28.2415 30.9773ZM38.1293 23.2727H36.1747V22.3864C36.1747 21.5227 36.5384 21.0682 37.4247 21.0682C37.8111 21.0682 38.0384 21.1591 38.1747 21.2045L38.5611 20.0455C38.3565 19.9545 37.9474 19.8182 37.2884 19.8182C36.0384 19.8182 34.8338 20.5682 34.8338 22.0682V23.2727H33.4247V24.4091H34.8338V32H36.1747V24.4091H38.1293V23.2727ZM43.3082 32.1818C45.081 32.1818 46.3764 31.2955 46.7855 29.9773L45.4901 29.6136C45.1491 30.5227 44.3594 30.9773 43.3082 30.9773C41.7344 30.9773 40.6491 29.9602 40.5866 28.0909H46.9219V27.5227C46.9219 24.2727 44.9901 23.1591 43.1719 23.1591C40.8082 23.1591 39.2401 25.0227 39.2401 27.7045C39.2401 30.3864 40.7855 32.1818 43.3082 32.1818ZM40.5866 26.9318C40.6776 25.5739 41.6378 24.3636 43.1719 24.3636C44.6264 24.3636 45.5582 25.4545 45.5582 26.9318H40.5866ZM55.1435 25.2273C54.723 23.9886 53.7798 23.1591 52.0526 23.1591C50.2116 23.1591 48.848 24.2045 48.848 25.6818C48.848 26.8864 49.5639 27.6932 51.1662 28.0682L52.6207 28.4091C53.5014 28.6136 53.9162 29.0341 53.9162 29.6364C53.9162 30.3864 53.1207 31 51.8707 31C50.7741 31 50.0866 30.5284 49.848 29.5909L48.5753 29.9091C48.8878 31.392 50.1094 32.1818 51.8935 32.1818C53.9219 32.1818 55.3026 31.0739 55.3026 29.5682C55.3026 28.3523 54.5412 27.5852 52.9844 27.2045L51.6889 26.8864C50.6548 26.6307 50.1889 26.2841 50.1889 25.6136C50.1889 24.8636 50.9844 24.3182 52.0526 24.3182C53.223 24.3182 53.706 24.9659 53.9389 25.5682L55.1435 25.2273ZM57.321 32H58.6619V23.2727H57.321V32ZM58.0028 21.8182C58.5256 21.8182 58.9574 21.4091 58.9574 20.9091C58.9574 20.4091 58.5256 20 58.0028 20C57.4801 20 57.0483 20.4091 57.0483 20.9091C57.0483 21.4091 57.4801 21.8182 58.0028 21.8182ZM64.6634 32.1818C67.027 32.1818 68.6179 30.3864 68.6179 27.6818C68.6179 24.9545 67.027 23.1591 64.6634 23.1591C62.2997 23.1591 60.7088 24.9545 60.7088 27.6818C60.7088 30.3864 62.2997 32.1818 64.6634 32.1818ZM64.6634 30.9773C62.8679 30.9773 62.0497 29.4318 62.0497 27.6818C62.0497 25.9318 62.8679 24.3636 64.6634 24.3636C66.4588 24.3636 67.277 25.9318 67.277 27.6818C67.277 29.4318 66.4588 30.9773 64.6634 30.9773ZM72.0057 26.75C72.0057 25.2273 72.9489 24.3636 74.233 24.3636C75.4773 24.3636 76.233 25.1761 76.233 26.5455V32H77.5739V26.4545C77.5739 24.2273 76.3864 23.1591 74.6193 23.1591C73.3011 23.1591 72.483 23.75 72.0739 24.6364H71.9602V23.2727H70.6648V32H72.0057V26.75ZM82.5923 32.2045C84.1151 32.2045 84.9105 31.3864 85.1832 30.8182H85.2514V32H86.5923V26.25C86.5923 23.4773 84.4787 23.1591 83.3651 23.1591C82.0469 23.1591 80.5469 23.6136 79.8651 25.2045L81.1378 25.6591C81.4332 25.0227 82.1321 24.3409 83.4105 24.3409C84.6435 24.3409 85.2514 24.9943 85.2514 26.1136V26.1591C85.2514 26.8068 84.5923 26.75 83.0014 26.9545C81.3821 27.1648 79.6151 27.5227 79.6151 29.5227C79.6151 31.2273 80.9332 32.2045 82.5923 32.2045ZM82.7969 31C81.7287 31 80.956 30.5227 80.956 29.5909C80.956 28.5682 81.8878 28.25 82.9332 28.1136C83.5014 28.0455 85.0241 27.8864 85.2514 27.6136V28.8409C85.2514 29.9318 84.3878 31 82.7969 31ZM90.3807 20.3636H89.0398V32H90.3807V20.3636ZM96.4957 32.1818C98.2685 32.1818 99.5639 31.2955 99.973 29.9773L98.6776 29.6136C98.3366 30.5227 97.5469 30.9773 96.4957 30.9773C94.9219 30.9773 93.8366 29.9602 93.7741 28.0909H100.109V27.5227C100.109 24.2727 98.1776 23.1591 96.3594 23.1591C93.9957 23.1591 92.4276 25.0227 92.4276 27.7045C92.4276 30.3864 93.973 32.1818 96.4957 32.1818ZM93.7741 26.9318C93.8651 25.5739 94.8253 24.3636 96.3594 24.3636C97.8139 24.3636 98.7457 25.4545 98.7457 26.9318H93.7741ZM108.331 25.2273C107.911 23.9886 106.967 23.1591 105.24 23.1591C103.399 23.1591 102.036 24.2045 102.036 25.6818C102.036 26.8864 102.751 27.6932 104.354 28.0682L105.808 28.4091C106.689 28.6136 107.104 29.0341 107.104 29.6364C107.104 30.3864 106.308 31 105.058 31C103.962 31 103.274 30.5284 103.036 29.5909L101.763 29.9091C102.075 31.392 103.297 32.1818 105.081 32.1818C107.109 32.1818 108.49 31.0739 108.49 29.5682C108.49 28.3523 107.729 27.5852 106.172 27.2045L104.876 26.8864C103.842 26.6307 103.376 26.2841 103.376 25.6136C103.376 24.8636 104.172 24.3182 105.24 24.3182C106.411 24.3182 106.893 24.9659 107.126 25.5682L108.331 25.2273ZM117.577 32.2045C119.099 32.2045 119.895 31.3864 120.168 30.8182H120.236V32H121.577V26.25C121.577 23.4773 119.463 23.1591 118.349 23.1591C117.031 23.1591 115.531 23.6136 114.849 25.2045L116.122 25.6591C116.418 25.0227 117.116 24.3409 118.395 24.3409C119.628 24.3409 120.236 24.9943 120.236 26.1136V26.1591C120.236 26.8068 119.577 26.75 117.986 26.9545C116.366 27.1648 114.599 27.5227 114.599 29.5227C114.599 31.2273 115.918 32.2045 117.577 32.2045ZM117.781 31C116.713 31 115.94 30.5227 115.94 29.5909C115.94 28.5682 116.872 28.25 117.918 28.1136C118.486 28.0455 120.009 27.8864 120.236 27.6136V28.8409C120.236 29.9318 119.372 31 117.781 31ZM129.865 20.3636H128.524V32H129.865V20.3636ZM135.866 32.1818C138.23 32.1818 139.821 30.3864 139.821 27.6818C139.821 24.9545 138.23 23.1591 135.866 23.1591C133.503 23.1591 131.912 24.9545 131.912 27.6818C131.912 30.3864 133.503 32.1818 135.866 32.1818ZM135.866 30.9773C134.071 30.9773 133.253 29.4318 133.253 27.6818C133.253 25.9318 134.071 24.3636 135.866 24.3636C137.662 24.3636 138.48 25.9318 138.48 27.6818C138.48 29.4318 137.662 30.9773 135.866 30.9773ZM147.709 20.3636H146.368V32H147.709V20.3636ZM152.733 32.2045C154.256 32.2045 155.051 31.3864 155.324 30.8182H155.392V32H156.733V26.25C156.733 23.4773 154.619 23.1591 153.506 23.1591C152.188 23.1591 150.688 23.6136 150.006 25.2045L151.278 25.6591C151.574 25.0227 152.273 24.3409 153.551 24.3409C154.784 24.3409 155.392 24.9943 155.392 26.1136V26.1591C155.392 26.8068 154.733 26.75 153.142 26.9545C151.523 27.1648 149.756 27.5227 149.756 29.5227C149.756 31.2273 151.074 32.2045 152.733 32.2045ZM152.938 31C151.869 31 151.097 30.5227 151.097 29.5909C151.097 28.5682 152.028 28.25 153.074 28.1136C153.642 28.0455 155.165 27.8864 155.392 27.6136V28.8409C155.392 29.9318 154.528 31 152.938 31ZM159.18 32H160.521V26.4773C160.521 25.2955 161.453 24.4318 162.726 24.4318C163.084 24.4318 163.453 24.5 163.544 24.5227V23.1591C163.391 23.1477 163.038 23.1364 162.839 23.1364C161.794 23.1364 160.885 23.7273 160.567 24.5909H160.476V23.2727H159.18V32ZM168.391 35.4545C170.482 35.4545 172.163 34.5 172.163 32.25V23.2727H170.868V24.6591H170.732C170.436 24.2045 169.891 23.1591 168.186 23.1591C165.982 23.1591 164.459 24.9091 164.459 27.5909C164.459 30.3182 166.05 31.8636 168.163 31.8636C169.868 31.8636 170.413 30.8636 170.709 30.3864H170.822V32.1591C170.822 33.6136 169.8 34.2727 168.391 34.2727C166.805 34.2727 166.249 33.4375 165.891 32.9545L164.822 33.7045C165.368 34.6193 166.442 35.4545 168.391 35.4545ZM168.345 30.6591C166.663 30.6591 165.8 29.3864 165.8 27.5682C165.8 25.7955 166.641 24.3636 168.345 24.3636C169.982 24.3636 170.845 25.6818 170.845 27.5682C170.845 29.5 169.959 30.6591 168.345 30.6591ZM178.163 32.1818C180.527 32.1818 182.118 30.3864 182.118 27.6818C182.118 24.9545 180.527 23.1591 178.163 23.1591C175.8 23.1591 174.209 24.9545 174.209 27.6818C174.209 30.3864 175.8 32.1818 178.163 32.1818ZM178.163 30.9773C176.368 30.9773 175.55 29.4318 175.55 27.6818C175.55 25.9318 176.368 24.3636 178.163 24.3636C179.959 24.3636 180.777 25.9318 180.777 27.6818C180.777 29.4318 179.959 30.9773 178.163 30.9773ZM191.96 32.1818C193.642 32.1818 194.21 31.1364 194.506 30.6591H194.665V32H195.96V20.3636H194.619V24.6591H194.506C194.21 24.2045 193.688 23.1591 191.983 23.1591C189.778 23.1591 188.256 24.9091 188.256 27.6591C188.256 30.4318 189.778 32.1818 191.96 32.1818ZM192.142 30.9773C190.46 30.9773 189.597 29.5 189.597 27.6364C189.597 25.7955 190.438 24.3636 192.142 24.3636C193.778 24.3636 194.642 25.6818 194.642 27.6364C194.642 29.6136 193.756 30.9773 192.142 30.9773ZM202.261 32.1818C204.034 32.1818 205.33 31.2955 205.739 29.9773L204.443 29.6136C204.102 30.5227 203.312 30.9773 202.261 30.9773C200.688 30.9773 199.602 29.9602 199.54 28.0909H205.875V27.5227C205.875 24.2727 203.943 23.1591 202.125 23.1591C199.761 23.1591 198.193 25.0227 198.193 27.7045C198.193 30.3864 199.739 32.1818 202.261 32.1818ZM199.54 26.9318C199.631 25.5739 200.591 24.3636 202.125 24.3636C203.58 24.3636 204.511 25.4545 204.511 26.9318H199.54ZM216.21 23.2727H214.347V21.1818H213.006V23.2727H211.688V24.4091H213.006V29.8636C213.006 31.3864 214.233 32.1136 215.369 32.1136C215.869 32.1136 216.188 32.0227 216.369 31.9545L216.097 30.75C215.983 30.7727 215.801 30.8182 215.506 30.8182C214.915 30.8182 214.347 30.6364 214.347 29.5V24.4091H216.21V23.2727ZM221.679 32.1818C224.043 32.1818 225.634 30.3864 225.634 27.6818C225.634 24.9545 224.043 23.1591 221.679 23.1591C219.315 23.1591 217.724 24.9545 217.724 27.6818C217.724 30.3864 219.315 32.1818 221.679 32.1818ZM221.679 30.9773C219.884 30.9773 219.065 29.4318 219.065 27.6818C219.065 25.9318 219.884 24.3636 221.679 24.3636C223.474 24.3636 224.293 25.9318 224.293 27.6818C224.293 29.4318 223.474 30.9773 221.679 30.9773ZM230.976 32.1818C232.658 32.1818 233.226 31.1364 233.521 30.6591H233.68V32H234.976V20.3636H233.635V24.6591H233.521C233.226 24.2045 232.703 23.1591 230.999 23.1591C228.794 23.1591 227.271 24.9091 227.271 27.6591C227.271 30.4318 228.794 32.1818 230.976 32.1818ZM231.158 30.9773C229.476 30.9773 228.612 29.5 228.612 27.6364C228.612 25.7955 229.453 24.3636 231.158 24.3636C232.794 24.3636 233.658 25.6818 233.658 27.6364C233.658 29.6136 232.771 30.9773 231.158 30.9773ZM241.163 32.1818C243.527 32.1818 245.118 30.3864 245.118 27.6818C245.118 24.9545 243.527 23.1591 241.163 23.1591C238.8 23.1591 237.209 24.9545 237.209 27.6818C237.209 30.3864 238.8 32.1818 241.163 32.1818ZM241.163 30.9773C239.368 30.9773 238.55 29.4318 238.55 27.6818C238.55 25.9318 239.368 24.3636 241.163 24.3636C242.959 24.3636 243.777 25.9318 243.777 27.6818C243.777 29.4318 242.959 30.9773 241.163 30.9773ZM255.324 32.1818C257.097 32.1818 258.392 31.2955 258.801 29.9773L257.506 29.6136C257.165 30.5227 256.375 30.9773 255.324 30.9773C253.75 30.9773 252.665 29.9602 252.602 28.0909H258.938V27.5227C258.938 24.2727 257.006 23.1591 255.188 23.1591C252.824 23.1591 251.256 25.0227 251.256 27.7045C251.256 30.3864 252.801 32.1818 255.324 32.1818ZM252.602 26.9318C252.693 25.5739 253.653 24.3636 255.188 24.3636C256.642 24.3636 257.574 25.4545 257.574 26.9318H252.602ZM262.318 20.3636H260.977V32H262.318V20.3636ZM269.456 32H270.865V27.75H273.411C276.121 27.75 277.342 26.1023 277.342 24.0455C277.342 21.9886 276.121 20.3636 273.388 20.3636H269.456V32ZM270.865 26.5V21.6136H273.342C275.234 21.6136 275.956 22.6477 275.956 24.0455C275.956 25.4432 275.234 26.5 273.365 26.5H270.865ZM282.996 32.1818C284.768 32.1818 286.064 31.2955 286.473 29.9773L285.178 29.6136C284.837 30.5227 284.047 30.9773 282.996 30.9773C281.422 30.9773 280.337 29.9602 280.274 28.0909H286.609V27.5227C286.609 24.2727 284.678 23.1591 282.859 23.1591C280.496 23.1591 278.928 25.0227 278.928 27.7045C278.928 30.3864 280.473 32.1818 282.996 32.1818ZM280.274 26.9318C280.365 25.5739 281.325 24.3636 282.859 24.3636C284.314 24.3636 285.246 25.4545 285.246 26.9318H280.274ZM288.649 32H289.99V26.4773C289.99 25.2955 290.922 24.4318 292.195 24.4318C292.553 24.4318 292.922 24.5 293.013 24.5227V23.1591C292.859 23.1477 292.507 23.1364 292.308 23.1364C291.263 23.1364 290.354 23.7273 290.036 24.5909H289.945V23.2727H288.649V32ZM300.102 28.4318C300.102 30.0682 298.852 30.8182 297.852 30.8182C296.739 30.8182 295.943 30 295.943 28.7273V23.2727H294.602V28.8182C294.602 31.0455 295.784 32.1136 297.42 32.1136C298.739 32.1136 299.602 31.4091 300.011 30.5227H300.102V32H301.443V23.2727H300.102V28.4318ZM297.42 22.0909H298.602L300.375 19.4545H298.807L297.42 22.0909ZM305.899 30.4091H304.445L304.376 31.0455C304.212 32.5852 303.888 34.1193 303.74 34.8409H304.763C305.036 34.0682 305.615 32.3182 305.808 31.0227L305.899 30.4091ZM48.1094 91.9545L47.9957 83.5909H46.6776L46.5639 91.9545H48.1094ZM47.3366 80.2273C46.7741 80.2273 46.3139 80.6875 46.3139 81.25C46.3139 81.8125 46.7741 82.2727 47.3366 82.2727C47.8991 82.2727 48.3594 81.8125 48.3594 81.25C48.3594 80.6875 47.8991 80.2273 47.3366 80.2273ZM50.9716 89H58.0852V87.75H52.3807V83.7955H57.6307V82.5455H52.3807V78.6136H57.9943V77.3636H50.9716V89ZM61.6932 83.75C61.6932 82.2273 62.6364 81.3636 63.9205 81.3636C65.1648 81.3636 65.9205 82.1761 65.9205 83.5455V89H67.2614V83.4545C67.2614 81.2273 66.0739 80.1591 64.3068 80.1591C62.9886 80.1591 62.1705 80.75 61.7614 81.6364H61.6477V80.2727H60.3523V89H61.6932V83.75ZM142.237 82.2273C141.817 80.9886 140.874 80.1591 139.146 80.1591C137.305 80.1591 135.942 81.2045 135.942 82.6818C135.942 83.8864 136.658 84.6932 138.26 85.0682L139.714 85.4091C140.595 85.6136 141.01 86.0341 141.01 86.6364C141.01 87.3864 140.214 88 138.964 88C137.868 88 137.18 87.5284 136.942 86.5909L135.669 86.9091C135.982 88.392 137.203 89.1818 138.987 89.1818C141.016 89.1818 142.396 88.0739 142.396 86.5682C142.396 85.3523 141.635 84.5852 140.078 84.2045L138.783 83.8864C137.749 83.6307 137.283 83.2841 137.283 82.6136C137.283 81.8636 138.078 81.3182 139.146 81.3182C140.317 81.3182 140.8 81.9659 141.033 82.5682L142.237 82.2273ZM148.074 89.1818C149.847 89.1818 151.142 88.2955 151.551 86.9773L150.256 86.6136C149.915 87.5227 149.125 87.9773 148.074 87.9773C146.5 87.9773 145.415 86.9602 145.352 85.0909H151.688V84.5227C151.688 81.2727 149.756 80.1591 147.938 80.1591C145.574 80.1591 144.006 82.0227 144.006 84.7045C144.006 87.3864 145.551 89.1818 148.074 89.1818ZM145.352 83.9318C145.443 82.5739 146.403 81.3636 147.938 81.3636C149.392 81.3636 150.324 82.4545 150.324 83.9318H145.352ZM157.25 92.4545C159.341 92.4545 161.023 91.5 161.023 89.25V80.2727H159.727V81.6591H159.591C159.295 81.2045 158.75 80.1591 157.045 80.1591C154.841 80.1591 153.318 81.9091 153.318 84.5909C153.318 87.3182 154.909 88.8636 157.023 88.8636C158.727 88.8636 159.273 87.8636 159.568 87.3864H159.682V89.1591C159.682 90.6136 158.659 91.2727 157.25 91.2727C155.665 91.2727 155.108 90.4375 154.75 89.9545L153.682 90.7045C154.227 91.6193 155.301 92.4545 157.25 92.4545ZM157.205 87.6591C155.523 87.6591 154.659 86.3864 154.659 84.5682C154.659 82.7955 155.5 81.3636 157.205 81.3636C158.841 81.3636 159.705 82.6818 159.705 84.5682C159.705 86.5 158.818 87.6591 157.205 87.6591ZM168.977 85.4318C168.977 87.0682 167.727 87.8182 166.727 87.8182C165.614 87.8182 164.818 87 164.818 85.7273V80.2727H163.477V85.8182C163.477 88.0455 164.659 89.1136 166.295 89.1136C167.614 89.1136 168.477 88.4091 168.886 87.5227H168.977V89H170.318V80.2727H168.977V85.4318ZM172.774 89H174.115V80.2727H172.774V89ZM173.456 78.8182C173.979 78.8182 174.411 78.4091 174.411 77.9091C174.411 77.4091 173.979 77 173.456 77C172.933 77 172.501 77.4091 172.501 77.9091C172.501 78.4091 172.933 78.8182 173.456 78.8182ZM176.571 89H177.912V83.5455C177.912 82.267 178.844 81.3636 179.889 81.3636C180.906 81.3636 181.616 82.0284 181.616 83.0227V89H182.98V83.3182C182.98 82.1932 183.685 81.3636 184.912 81.3636C185.866 81.3636 186.685 81.8693 186.685 83.1591V89H188.026V83.1591C188.026 81.108 186.923 80.1591 185.366 80.1591C184.116 80.1591 183.202 80.733 182.753 81.6364H182.662C182.23 80.7045 181.469 80.1591 180.321 80.1591C179.185 80.1591 178.344 80.7045 177.98 81.6364H177.866V80.2727H176.571V89ZM194.023 89.1818C196.386 89.1818 197.977 87.3864 197.977 84.6818C197.977 81.9545 196.386 80.1591 194.023 80.1591C191.659 80.1591 190.068 81.9545 190.068 84.6818C190.068 87.3864 191.659 89.1818 194.023 89.1818ZM194.023 87.9773C192.227 87.9773 191.409 86.4318 191.409 84.6818C191.409 82.9318 192.227 81.3636 194.023 81.3636C195.818 81.3636 196.636 82.9318 196.636 84.6818C196.636 86.4318 195.818 87.9773 194.023 87.9773ZM206.206 82.2273C205.786 80.9886 204.842 80.1591 203.115 80.1591C201.274 80.1591 199.911 81.2045 199.911 82.6818C199.911 83.8864 200.626 84.6932 202.229 85.0682L203.683 85.4091C204.564 85.6136 204.979 86.0341 204.979 86.6364C204.979 87.3864 204.183 88 202.933 88C201.837 88 201.149 87.5284 200.911 86.5909L199.638 86.9091C199.95 88.392 201.172 89.1818 202.956 89.1818C204.984 89.1818 206.365 88.0739 206.365 86.5682C206.365 85.3523 205.604 84.5852 204.047 84.2045L202.751 83.8864C201.717 83.6307 201.251 83.2841 201.251 82.6136C201.251 81.8636 202.047 81.3182 203.115 81.3182C204.286 81.3182 204.768 81.9659 205.001 82.5682L206.206 82.2273ZM216.179 89.1818C217.861 89.1818 218.429 88.1364 218.724 87.6591H218.884V89H220.179V77.3636H218.838V81.6591H218.724C218.429 81.2045 217.906 80.1591 216.202 80.1591C213.997 80.1591 212.474 81.9091 212.474 84.6591C212.474 87.4318 213.997 89.1818 216.179 89.1818ZM216.361 87.9773C214.679 87.9773 213.815 86.5 213.815 84.6364C213.815 82.7955 214.656 81.3636 216.361 81.3636C217.997 81.3636 218.861 82.6818 218.861 84.6364C218.861 86.6136 217.974 87.9773 216.361 87.9773ZM226.48 89.1818C228.253 89.1818 229.548 88.2955 229.957 86.9773L228.662 86.6136C228.321 87.5227 227.531 87.9773 226.48 87.9773C224.906 87.9773 223.821 86.9602 223.759 85.0909H230.094V84.5227C230.094 81.2727 228.162 80.1591 226.344 80.1591C223.98 80.1591 222.412 82.0227 222.412 84.7045C222.412 87.3864 223.957 89.1818 226.48 89.1818ZM223.759 83.9318C223.849 82.5739 224.81 81.3636 226.344 81.3636C227.798 81.3636 228.73 82.4545 228.73 83.9318H223.759ZM238.315 82.2273C237.895 80.9886 236.952 80.1591 235.224 80.1591C233.384 80.1591 232.02 81.2045 232.02 82.6818C232.02 83.8864 232.736 84.6932 234.338 85.0682L235.793 85.4091C236.673 85.6136 237.088 86.0341 237.088 86.6364C237.088 87.3864 236.293 88 235.043 88C233.946 88 233.259 87.5284 233.02 86.5909L231.747 86.9091C232.06 88.392 233.281 89.1818 235.065 89.1818C237.094 89.1818 238.474 88.0739 238.474 86.5682C238.474 85.3523 237.713 84.5852 236.156 84.2045L234.861 83.8864C233.827 83.6307 233.361 83.2841 233.361 82.6136C233.361 81.8636 234.156 81.3182 235.224 81.3182C236.395 81.3182 236.878 81.9659 237.111 82.5682L238.315 82.2273ZM244.038 89.1818C245.97 89.1818 247.243 88 247.47 86.4545H246.129C245.879 87.4091 245.084 87.9773 244.038 87.9773C242.447 87.9773 241.425 86.6591 241.425 84.6364C241.425 82.6591 242.47 81.3636 244.038 81.3636C245.22 81.3636 245.925 82.0909 246.129 82.8864H247.47C247.243 81.25 245.857 80.1591 244.016 80.1591C241.652 80.1591 240.084 82.0227 240.084 84.6818C240.084 87.2955 241.584 89.1818 244.038 89.1818ZM253.089 89.1818C254.862 89.1818 256.158 88.2955 256.567 86.9773L255.271 86.6136C254.93 87.5227 254.141 87.9773 253.089 87.9773C251.516 87.9773 250.43 86.9602 250.368 85.0909H256.703V84.5227C256.703 81.2727 254.771 80.1591 252.953 80.1591C250.589 80.1591 249.021 82.0227 249.021 84.7045C249.021 87.3864 250.567 89.1818 253.089 89.1818ZM250.368 83.9318C250.459 82.5739 251.419 81.3636 252.953 81.3636C254.408 81.3636 255.339 82.4545 255.339 83.9318H250.368ZM260.084 83.75C260.084 82.2273 261.027 81.3636 262.311 81.3636C263.555 81.3636 264.311 82.1761 264.311 83.5455V89H265.652V83.4545C265.652 81.2273 264.464 80.1591 262.697 80.1591C261.379 80.1591 260.561 80.75 260.152 81.6364H260.038V80.2727H258.743V89H260.084V83.75ZM271.898 80.2727H270.034V78.1818H268.693V80.2727H267.375V81.4091H268.693V86.8636C268.693 88.3864 269.92 89.1136 271.057 89.1136C271.557 89.1136 271.875 89.0227 272.057 88.9545L271.784 87.75C271.67 87.7727 271.489 87.8182 271.193 87.8182C270.602 87.8182 270.034 87.6364 270.034 86.5V81.4091H271.898V80.2727ZM273.915 89H275.256V83.4773C275.256 82.2955 276.188 81.4318 277.46 81.4318C277.818 81.4318 278.188 81.5 278.278 81.5227V80.1591C278.125 80.1477 277.773 80.1364 277.574 80.1364C276.528 80.1364 275.619 80.7273 275.301 81.5909H275.21V80.2727H273.915V89ZM282.436 89.2045C283.959 89.2045 284.754 88.3864 285.027 87.8182H285.095V89H286.436V83.25C286.436 80.4773 284.322 80.1591 283.209 80.1591C281.891 80.1591 280.391 80.6136 279.709 82.2045L280.982 82.6591C281.277 82.0227 281.976 81.3409 283.254 81.3409C284.487 81.3409 285.095 81.9943 285.095 83.1136V83.1591C285.095 83.8068 284.436 83.75 282.845 83.9545C281.226 84.1648 279.459 84.5227 279.459 86.5227C279.459 88.2273 280.777 89.2045 282.436 89.2045ZM282.641 88C281.572 88 280.8 87.5227 280.8 86.5909C280.8 85.5682 281.732 85.25 282.777 85.1136C283.345 85.0455 284.868 84.8864 285.095 84.6136V85.8409C285.095 86.9318 284.232 88 282.641 88ZM290.224 77.3636H288.884V89H290.224V77.3636ZM292.68 89H294.021V80.2727H292.68V89ZM293.362 78.8182C293.885 78.8182 294.317 78.4091 294.317 77.9091C294.317 77.4091 293.885 77 293.362 77C292.839 77 292.408 77.4091 292.408 77.9091C292.408 78.4091 292.839 78.8182 293.362 78.8182ZM296.227 89H303.068V87.75H298.091V87.6591L302.909 81.3409V80.2727H296.386V81.5227H301.182V81.6136L296.227 87.9773V89ZM307.702 89.2045C309.224 89.2045 310.02 88.3864 310.293 87.8182H310.361V89H311.702V83.25C311.702 80.4773 309.588 80.1591 308.474 80.1591C307.156 80.1591 305.656 80.6136 304.974 82.2045L306.247 82.6591C306.543 82.0227 307.241 81.3409 308.52 81.3409C309.753 81.3409 310.361 81.9943 310.361 83.1136V83.1591C310.361 83.8068 309.702 83.75 308.111 83.9545C306.491 84.1648 304.724 84.5227 304.724 86.5227C304.724 88.2273 306.043 89.2045 307.702 89.2045ZM307.906 88C306.838 88 306.065 87.5227 306.065 86.5909C306.065 85.5682 306.997 85.25 308.043 85.1136C308.611 85.0455 310.134 84.8864 310.361 84.6136V85.8409C310.361 86.9318 309.497 88 307.906 88ZM315.49 83.75C315.49 82.2273 316.433 81.3636 317.717 81.3636C318.962 81.3636 319.717 82.1761 319.717 83.5455V89H321.058V83.4545C321.058 81.2273 319.871 80.1591 318.104 80.1591C316.786 80.1591 315.967 80.75 315.558 81.6364H315.445V80.2727H314.149V89H315.49V83.75ZM326.804 89.1818C328.486 89.1818 329.054 88.1364 329.349 87.6591H329.509V89H330.804V77.3636H329.463V81.6591H329.349C329.054 81.2045 328.531 80.1591 326.827 80.1591C324.622 80.1591 323.099 81.9091 323.099 84.6591C323.099 87.4318 324.622 89.1818 326.804 89.1818ZM326.986 87.9773C325.304 87.9773 324.44 86.5 324.44 84.6364C324.44 82.7955 325.281 81.3636 326.986 81.3636C328.622 81.3636 329.486 82.6818 329.486 84.6364C329.486 86.6136 328.599 87.9773 326.986 87.9773ZM336.991 89.1818C339.355 89.1818 340.946 87.3864 340.946 84.6818C340.946 81.9545 339.355 80.1591 336.991 80.1591C334.628 80.1591 333.037 81.9545 333.037 84.6818C333.037 87.3864 334.628 89.1818 336.991 89.1818ZM336.991 87.9773C335.196 87.9773 334.378 86.4318 334.378 84.6818C334.378 82.9318 335.196 81.3636 336.991 81.3636C338.787 81.3636 339.605 82.9318 339.605 84.6818C339.605 86.4318 338.787 87.9773 336.991 87.9773ZM351.152 89.1818C352.925 89.1818 354.22 88.2955 354.629 86.9773L353.334 86.6136C352.993 87.5227 352.203 87.9773 351.152 87.9773C349.578 87.9773 348.493 86.9602 348.43 85.0909H354.766V84.5227C354.766 81.2727 352.834 80.1591 351.016 80.1591C348.652 80.1591 347.084 82.0227 347.084 84.7045C347.084 87.3864 348.629 89.1818 351.152 89.1818ZM348.43 83.9318C348.521 82.5739 349.482 81.3636 351.016 81.3636C352.47 81.3636 353.402 82.4545 353.402 83.9318H348.43ZM358.146 77.3636H356.805V89H358.146V77.3636ZM368.898 80.2727H367.034V78.1818H365.693V80.2727H364.375V81.4091H365.693V86.8636C365.693 88.3864 366.92 89.1136 368.057 89.1136C368.557 89.1136 368.875 89.0227 369.057 88.9545L368.784 87.75C368.67 87.7727 368.489 87.8182 368.193 87.8182C367.602 87.8182 367.034 87.6364 367.034 86.5V81.4091H368.898V80.2727ZM373.483 89.2045C375.006 89.2045 375.801 88.3864 376.074 87.8182H376.142V89H377.483V83.25C377.483 80.4773 375.369 80.1591 374.256 80.1591C372.938 80.1591 371.438 80.6136 370.756 82.2045L372.028 82.6591C372.324 82.0227 373.023 81.3409 374.301 81.3409C375.534 81.3409 376.142 81.9943 376.142 83.1136V83.1591C376.142 83.8068 375.483 83.75 373.892 83.9545C372.273 84.1648 370.506 84.5227 370.506 86.5227C370.506 88.2273 371.824 89.2045 373.483 89.2045ZM373.688 88C372.619 88 371.847 87.5227 371.847 86.5909C371.847 85.5682 372.778 85.25 373.824 85.1136C374.392 85.0455 375.915 84.8864 376.142 84.6136V85.8409C376.142 86.9318 375.278 88 373.688 88ZM381.271 77.3636H379.93V89H381.271V77.3636ZM387.386 89.1818C389.159 89.1818 390.455 88.2955 390.864 86.9773L389.568 86.6136C389.227 87.5227 388.438 87.9773 387.386 87.9773C385.812 87.9773 384.727 86.9602 384.665 85.0909H391V84.5227C391 81.2727 389.068 80.1591 387.25 80.1591C384.886 80.1591 383.318 82.0227 383.318 84.7045C383.318 87.3864 384.864 89.1818 387.386 89.1818ZM384.665 83.9318C384.756 82.5739 385.716 81.3636 387.25 81.3636C388.705 81.3636 389.636 82.4545 389.636 83.9318H384.665ZM394.381 83.75C394.381 82.2273 395.324 81.3636 396.608 81.3636C397.852 81.3636 398.608 82.1761 398.608 83.5455V89H399.949V83.4545C399.949 81.2273 398.761 80.1591 396.994 80.1591C395.676 80.1591 394.858 80.75 394.449 81.6364H394.335V80.2727H393.04V89H394.381V83.75ZM406.195 80.2727H404.331V78.1818H402.99V80.2727H401.672V81.4091H402.99V86.8636C402.99 88.3864 404.217 89.1136 405.354 89.1136C405.854 89.1136 406.172 89.0227 406.354 88.9545L406.081 87.75C405.967 87.7727 405.786 87.8182 405.49 87.8182C404.899 87.8182 404.331 87.6364 404.331 86.5V81.4091H406.195V80.2727ZM411.663 89.1818C414.027 89.1818 415.618 87.3864 415.618 84.6818C415.618 81.9545 414.027 80.1591 411.663 80.1591C409.3 80.1591 407.709 81.9545 407.709 84.6818C407.709 87.3864 409.3 89.1818 411.663 89.1818ZM411.663 87.9773C409.868 87.9773 409.05 86.4318 409.05 84.6818C409.05 82.9318 409.868 81.3636 411.663 81.3636C413.459 81.3636 414.277 82.9318 414.277 84.6818C414.277 86.4318 413.459 87.9773 411.663 87.9773ZM419.438 77.3636H417.892L418.006 85.7273H419.324L419.438 77.3636ZM418.665 89.0909C419.227 89.0909 419.688 88.6307 419.688 88.0682C419.688 87.5057 419.227 87.0455 418.665 87.0455C418.102 87.0455 417.642 87.5057 417.642 88.0682C417.642 88.6307 418.102 89.0909 418.665 89.0909Z" fill="#6B7280"/>
<path d="M316.52 32.1705C318.713 32.1705 320.111 30.8693 320.259 29.017H318.293C318.116 29.9545 317.44 30.4943 316.537 30.4943C315.253 30.4943 314.423 29.4205 314.423 27.6364C314.423 25.875 315.27 24.8182 316.537 24.8182C317.526 24.8182 318.134 25.4545 318.293 26.2955H320.259C320.116 24.4034 318.639 23.1591 316.509 23.1591C313.952 23.1591 312.338 25.0057 312.338 27.6705C312.338 30.3125 313.912 32.1705 316.52 32.1705ZM325.754 32.1705C328.311 32.1705 329.936 30.3693 329.936 27.6705C329.936 24.9659 328.311 23.1591 325.754 23.1591C323.197 23.1591 321.572 24.9659 321.572 27.6705C321.572 30.3693 323.197 32.1705 325.754 32.1705ZM325.766 30.5227C324.351 30.5227 323.658 29.2614 323.658 27.6648C323.658 26.0682 324.351 24.7898 325.766 24.7898C327.158 24.7898 327.851 26.0682 327.851 27.6648C327.851 29.2614 327.158 30.5227 325.766 30.5227ZM333.739 26.8864C333.739 25.625 334.5 24.8977 335.585 24.8977C336.648 24.8977 337.284 25.5966 337.284 26.7614V32H339.341V26.4432C339.347 24.3523 338.153 23.1591 336.352 23.1591C335.045 23.1591 334.148 23.7841 333.75 24.7557H333.648V23.2727H331.682V32H333.739V26.8864ZM345.239 32.1705C347.795 32.1705 349.42 30.3693 349.42 27.6705C349.42 24.9659 347.795 23.1591 345.239 23.1591C342.682 23.1591 341.057 24.9659 341.057 27.6705C341.057 30.3693 342.682 32.1705 345.239 32.1705ZM345.25 30.5227C343.835 30.5227 343.142 29.2614 343.142 27.6648C343.142 26.0682 343.835 24.7898 345.25 24.7898C346.642 24.7898 347.335 26.0682 347.335 27.6648C347.335 29.2614 346.642 30.5227 345.25 30.5227ZM344.449 22.125H345.989L347.733 19.5284H345.722L344.449 22.125ZM354.973 32.1705C357.166 32.1705 358.564 30.8693 358.712 29.017H356.746C356.57 29.9545 355.893 30.4943 354.99 30.4943C353.706 30.4943 352.876 29.4205 352.876 27.6364C352.876 25.875 353.723 24.8182 354.99 24.8182C355.979 24.8182 356.587 25.4545 356.746 26.2955H358.712C358.57 24.4034 357.092 23.1591 354.962 23.1591C352.405 23.1591 350.791 25.0057 350.791 27.6705C350.791 30.3125 352.365 32.1705 354.973 32.1705ZM364.264 32.1705C366.298 32.1705 367.696 31.1761 368.06 29.6591L366.139 29.4432C365.861 30.1818 365.179 30.5682 364.293 30.5682C362.963 30.5682 362.082 29.6932 362.065 28.1989H368.145V27.5682C368.145 24.5057 366.304 23.1591 364.156 23.1591C361.656 23.1591 360.026 24.9943 360.026 27.6875C360.026 30.4261 361.634 32.1705 364.264 32.1705ZM362.071 26.8125C362.134 25.6989 362.957 24.7614 364.185 24.7614C365.366 24.7614 366.162 25.625 366.173 26.8125H362.071ZM371.942 20.3636H369.885V32H371.942V20.3636ZM377.864 32.1705C380.42 32.1705 382.045 30.3693 382.045 27.6705C382.045 24.9659 380.42 23.1591 377.864 23.1591C375.307 23.1591 373.682 24.9659 373.682 27.6705C373.682 30.3693 375.307 32.1705 377.864 32.1705ZM377.875 30.5227C376.46 30.5227 375.767 29.2614 375.767 27.6648C375.767 26.0682 376.46 24.7898 377.875 24.7898C379.267 24.7898 379.96 26.0682 379.96 27.6648C379.96 29.2614 379.267 30.5227 377.875 30.5227ZM390.689 25.5795C390.405 24.1023 389.223 23.1591 387.178 23.1591C385.075 23.1591 383.643 24.1932 383.649 25.8068C383.643 27.0795 384.428 27.9205 386.104 28.267L387.592 28.5795C388.393 28.7557 388.768 29.0795 388.768 29.5739C388.768 30.1705 388.121 30.6193 387.143 30.6193C386.2 30.6193 385.587 30.2102 385.411 29.4261L383.405 29.6193C383.661 31.2216 385.007 32.1705 387.149 32.1705C389.331 32.1705 390.871 31.0398 390.876 29.3864C390.871 28.142 390.07 27.3807 388.422 27.0227L386.933 26.7045C386.047 26.5057 385.695 26.1989 385.7 25.6932C385.695 25.1023 386.348 24.6932 387.206 24.6932C388.155 24.6932 388.655 25.2102 388.814 25.7841L390.689 25.5795ZM399.78 32.1534C401.28 32.1534 401.956 31.2614 402.28 30.625H402.405V32H404.428V20.3636H402.365V24.7159H402.28C401.967 24.0852 401.325 23.1591 399.786 23.1591C397.768 23.1591 396.183 24.7386 396.183 27.6477C396.183 30.5227 397.723 32.1534 399.78 32.1534ZM400.354 30.4659C398.996 30.4659 398.28 29.2727 398.28 27.6364C398.28 26.0114 398.984 24.8466 400.354 24.8466C401.678 24.8466 402.405 25.9432 402.405 27.6364C402.405 29.3295 401.666 30.4659 400.354 30.4659ZM409.131 32.1761C410.5 32.1761 411.318 31.5341 411.693 30.8011H411.761V32H413.739V26.1591C413.739 23.8523 411.858 23.1591 410.193 23.1591C408.358 23.1591 406.949 23.9773 406.494 25.5682L408.415 25.8409C408.619 25.2443 409.199 24.733 410.205 24.733C411.159 24.733 411.682 25.2216 411.682 26.0795V26.1136C411.682 26.7045 411.062 26.733 409.523 26.8977C407.83 27.0795 406.21 27.5852 406.21 29.5511C406.21 31.267 407.466 32.1761 409.131 32.1761ZM409.665 30.6648C408.807 30.6648 408.193 30.2727 408.193 29.517C408.193 28.7273 408.881 28.3977 409.801 28.267C410.341 28.1932 411.42 28.0568 411.688 27.8409V28.8693C411.688 29.8409 410.903 30.6648 409.665 30.6648ZM409.494 22.125H411.034L412.778 19.5284H410.767L409.494 22.125ZM417.864 26.8864C417.864 25.625 418.625 24.8977 419.71 24.8977C420.773 24.8977 421.409 25.5966 421.409 26.7614V32H423.466V26.4432C423.472 24.3523 422.278 23.1591 420.477 23.1591C419.17 23.1591 418.273 23.7841 417.875 24.7557H417.773V23.2727H415.807V32H417.864V26.8864ZM428.795 32.1534C430.295 32.1534 430.972 31.2614 431.295 30.625H431.42V32H433.443V20.3636H431.381V24.7159H431.295C430.983 24.0852 430.341 23.1591 428.801 23.1591C426.784 23.1591 425.199 24.7386 425.199 27.6477C425.199 30.5227 426.739 32.1534 428.795 32.1534ZM429.369 30.4659C428.011 30.4659 427.295 29.2727 427.295 27.6364C427.295 26.0114 428 24.8466 429.369 24.8466C430.693 24.8466 431.42 25.9432 431.42 27.6364C431.42 29.3295 430.682 30.4659 429.369 30.4659ZM439.442 32.1705C441.999 32.1705 443.624 30.3693 443.624 27.6705C443.624 24.9659 441.999 23.1591 439.442 23.1591C436.885 23.1591 435.26 24.9659 435.26 27.6705C435.26 30.3693 436.885 32.1705 439.442 32.1705ZM439.453 30.5227C438.038 30.5227 437.345 29.2614 437.345 27.6648C437.345 26.0682 438.038 24.7898 439.453 24.7898C440.845 24.7898 441.538 26.0682 441.538 27.6648C441.538 29.2614 440.845 30.5227 439.453 30.5227ZM447.426 20.3636H445.369V32H447.426V20.3636ZM453.405 32.1705C455.439 32.1705 456.837 31.1761 457.2 29.6591L455.28 29.4432C455.001 30.1818 454.32 30.5682 453.433 30.5682C452.104 30.5682 451.223 29.6932 451.206 28.1989H457.286V27.5682C457.286 24.5057 455.445 23.1591 453.297 23.1591C450.797 23.1591 449.166 24.9943 449.166 27.6875C449.166 30.4261 450.774 32.1705 453.405 32.1705ZM451.212 26.8125C451.274 25.6989 452.098 24.7614 453.325 24.7614C454.507 24.7614 455.303 25.625 455.314 26.8125H451.212ZM7.83239 51.1705C10.0256 51.1705 11.4233 49.8693 11.571 48.017H9.60511C9.42898 48.9545 8.75284 49.4943 7.84943 49.4943C6.56534 49.4943 5.7358 48.4205 5.7358 46.6364C5.7358 44.875 6.58239 43.8182 7.84943 43.8182C8.83807 43.8182 9.44602 44.4545 9.60511 45.2955H11.571C11.429 43.4034 9.9517 42.1591 7.82102 42.1591C5.2642 42.1591 3.65057 44.0057 3.65057 46.6705C3.65057 49.3125 5.22443 51.1705 7.83239 51.1705ZM15.3168 39.3636H13.2599V51H15.3168V39.3636ZM17.4318 51H19.4886V42.2727H17.4318V51ZM18.4659 41.0341C19.1193 41.0341 19.6534 40.5341 19.6534 39.9205C19.6534 39.3011 19.1193 38.8011 18.4659 38.8011C17.8068 38.8011 17.2727 39.3011 17.2727 39.9205C17.2727 40.5341 17.8068 41.0341 18.4659 41.0341ZM25.4105 51.1705C27.6037 51.1705 29.0014 49.8693 29.1491 48.017H27.1832C27.0071 48.9545 26.331 49.4943 25.4276 49.4943C24.1435 49.4943 23.3139 48.4205 23.3139 46.6364C23.3139 44.875 24.1605 43.8182 25.4276 43.8182C26.4162 43.8182 27.0241 44.4545 27.1832 45.2955H29.1491C29.0071 43.4034 27.5298 42.1591 25.3991 42.1591C22.8423 42.1591 21.2287 44.0057 21.2287 46.6705C21.2287 49.3125 22.8026 51.1705 25.4105 51.1705ZM37.3182 51.1761C38.6875 51.1761 39.5057 50.5341 39.8807 49.8011H39.9489V51H41.9261V45.1591C41.9261 42.8523 40.0455 42.1591 38.3807 42.1591C36.5455 42.1591 35.1364 42.9773 34.6818 44.5682L36.6023 44.8409C36.8068 44.2443 37.3864 43.733 38.392 43.733C39.3466 43.733 39.8693 44.2216 39.8693 45.0795V45.1136C39.8693 45.7045 39.25 45.733 37.7102 45.8977C36.017 46.0795 34.3977 46.5852 34.3977 48.5511C34.3977 50.267 35.6534 51.1761 37.3182 51.1761ZM37.8523 49.6648C36.9943 49.6648 36.3807 49.2727 36.3807 48.517C36.3807 47.7273 37.0682 47.3977 37.9886 47.267C38.5284 47.1932 39.608 47.0568 39.875 46.8409V47.8693C39.875 48.8409 39.0909 49.6648 37.8523 49.6648ZM53.5256 47.3295C53.5256 48.6591 52.5767 49.3182 51.6676 49.3182C50.679 49.3182 50.0199 48.6193 50.0199 47.5114V42.2727H47.9631V47.8295C47.9631 49.9261 49.1562 51.1136 50.8722 51.1136C52.179 51.1136 53.0994 50.4261 53.4972 49.4489H53.5881V51H55.5824V42.2727H53.5256V47.3295ZM59.7543 45.8864C59.7543 44.625 60.5156 43.8977 61.6009 43.8977C62.6634 43.8977 63.2997 44.5966 63.2997 45.7614V51H65.3565V45.4432C65.3622 43.3523 64.169 42.1591 62.3679 42.1591C61.0611 42.1591 60.1634 42.7841 59.7656 43.7557H59.6634V42.2727H57.6974V51H59.7543V45.8864ZM71.2543 51.1705C73.8111 51.1705 75.4361 49.3693 75.4361 46.6705C75.4361 43.9659 73.8111 42.1591 71.2543 42.1591C68.6974 42.1591 67.0724 43.9659 67.0724 46.6705C67.0724 49.3693 68.6974 51.1705 71.2543 51.1705ZM71.2656 49.5227C69.8509 49.5227 69.1577 48.2614 69.1577 46.6648C69.1577 45.0682 69.8509 43.7898 71.2656 43.7898C72.6577 43.7898 73.3509 45.0682 73.3509 46.6648C73.3509 48.2614 72.6577 49.5227 71.2656 49.5227ZM84.3892 51.1534C85.8892 51.1534 86.5653 50.2614 86.8892 49.625H87.0142V51H89.0369V39.3636H86.9744V43.7159H86.8892C86.5767 43.0852 85.9347 42.1591 84.3949 42.1591C82.3778 42.1591 80.7926 43.7386 80.7926 46.6477C80.7926 49.5227 82.3324 51.1534 84.3892 51.1534ZM84.9631 49.4659C83.6051 49.4659 82.8892 48.2727 82.8892 46.6364C82.8892 45.0114 83.5938 43.8466 84.9631 43.8466C86.2869 43.8466 87.0142 44.9432 87.0142 46.6364C87.0142 48.3295 86.2756 49.4659 84.9631 49.4659ZM95.0923 51.1705C97.1264 51.1705 98.5241 50.1761 98.8878 48.6591L96.9673 48.4432C96.6889 49.1818 96.0071 49.5682 95.1207 49.5682C93.7912 49.5682 92.9105 48.6932 92.8935 47.1989H98.973V46.5682C98.973 43.5057 97.1321 42.1591 94.9844 42.1591C92.4844 42.1591 90.8537 43.9943 90.8537 46.6875C90.8537 49.4261 92.4616 51.1705 95.0923 51.1705ZM92.8991 45.8125C92.9616 44.6989 93.7855 43.7614 95.0128 43.7614C96.1946 43.7614 96.9901 44.625 97.0014 45.8125H92.8991ZM108.545 51.1705C110.58 51.1705 111.977 50.1761 112.341 48.6591L110.42 48.4432C110.142 49.1818 109.46 49.5682 108.574 49.5682C107.244 49.5682 106.364 48.6932 106.347 47.1989H112.426V46.5682C112.426 43.5057 110.585 42.1591 108.438 42.1591C105.938 42.1591 104.307 43.9943 104.307 46.6875C104.307 49.4261 105.915 51.1705 108.545 51.1705ZM106.352 45.8125C106.415 44.6989 107.239 43.7614 108.466 43.7614C109.648 43.7614 110.443 44.625 110.455 45.8125H106.352ZM121.064 44.5795C120.78 43.1023 119.598 42.1591 117.553 42.1591C115.45 42.1591 114.018 43.1932 114.024 44.8068C114.018 46.0795 114.803 46.9205 116.479 47.267L117.967 47.5795C118.768 47.7557 119.143 48.0795 119.143 48.5739C119.143 49.1705 118.496 49.6193 117.518 49.6193C116.575 49.6193 115.962 49.2102 115.786 48.4261L113.78 48.6193C114.036 50.2216 115.382 51.1705 117.524 51.1705C119.706 51.1705 121.246 50.0398 121.251 48.3864C121.246 47.142 120.445 46.3807 118.797 46.0227L117.308 45.7045C116.422 45.5057 116.07 45.1989 116.075 44.6932C116.07 44.1023 116.723 43.6932 117.581 43.6932C118.53 43.6932 119.03 44.2102 119.189 44.7841L121.064 44.5795ZM127.305 42.2727H125.584V40.1818H123.527V42.2727H122.288V43.8636H123.527V48.7159C123.516 50.358 124.709 51.1648 126.254 51.1193C126.839 51.1023 127.243 50.9886 127.464 50.9148L127.118 49.3068C127.004 49.3352 126.771 49.3864 126.516 49.3864C125.999 49.3864 125.584 49.2045 125.584 48.375V43.8636H127.305V42.2727ZM132.739 51.1705C135.295 51.1705 136.92 49.3693 136.92 46.6705C136.92 43.9659 135.295 42.1591 132.739 42.1591C130.182 42.1591 128.557 43.9659 128.557 46.6705C128.557 49.3693 130.182 51.1705 132.739 51.1705ZM132.75 49.5227C131.335 49.5227 130.642 48.2614 130.642 46.6648C130.642 45.0682 131.335 43.7898 132.75 43.7898C134.142 43.7898 134.835 45.0682 134.835 46.6648C134.835 48.2614 134.142 49.5227 132.75 49.5227ZM145.564 44.5795C145.28 43.1023 144.098 42.1591 142.053 42.1591C139.95 42.1591 138.518 43.1932 138.524 44.8068C138.518 46.0795 139.303 46.9205 140.979 47.267L142.467 47.5795C143.268 47.7557 143.643 48.0795 143.643 48.5739C143.643 49.1705 142.996 49.6193 142.018 49.6193C141.075 49.6193 140.462 49.2102 140.286 48.4261L138.28 48.6193C138.536 50.2216 139.882 51.1705 142.024 51.1705C144.206 51.1705 145.746 50.0398 145.751 48.3864C145.746 47.142 144.945 46.3807 143.297 46.0227L141.808 45.7045C140.922 45.5057 140.57 45.1989 140.575 44.6932C140.57 44.1023 141.223 43.6932 142.081 43.6932C143.03 43.6932 143.53 44.2102 143.689 44.7841L145.564 44.5795ZM154.655 51.1534C156.155 51.1534 156.831 50.2614 157.155 49.625H157.28V51H159.303V39.3636H157.24V43.7159H157.155C156.842 43.0852 156.2 42.1591 154.661 42.1591C152.643 42.1591 151.058 43.7386 151.058 46.6477C151.058 49.5227 152.598 51.1534 154.655 51.1534ZM155.229 49.4659C153.871 49.4659 153.155 48.2727 153.155 46.6364C153.155 45.0114 153.859 43.8466 155.229 43.8466C156.553 43.8466 157.28 44.9432 157.28 46.6364C157.28 48.3295 156.541 49.4659 155.229 49.4659ZM165.358 51.1705C167.392 51.1705 168.79 50.1761 169.153 48.6591L167.233 48.4432C166.955 49.1818 166.273 49.5682 165.386 49.5682C164.057 49.5682 163.176 48.6932 163.159 47.1989H169.239V46.5682C169.239 43.5057 167.398 42.1591 165.25 42.1591C162.75 42.1591 161.119 43.9943 161.119 46.6875C161.119 49.4261 162.727 51.1705 165.358 51.1705ZM163.165 45.8125C163.227 44.6989 164.051 43.7614 165.278 43.7614C166.46 43.7614 167.256 44.625 167.267 45.8125H163.165ZM170.979 54.2727H173.036V49.625H173.121C173.445 50.2614 174.121 51.1534 175.621 51.1534C177.678 51.1534 179.217 49.5227 179.217 46.6477C179.217 43.7386 177.632 42.1591 175.615 42.1591C174.075 42.1591 173.433 43.0852 173.121 43.7159H173.001V42.2727H170.979V54.2727ZM172.996 46.6364C172.996 44.9432 173.723 43.8466 175.047 43.8466C176.416 43.8466 177.121 45.0114 177.121 46.6364C177.121 48.2727 176.405 49.4659 175.047 49.4659C173.734 49.4659 172.996 48.3295 172.996 46.6364ZM183.49 51.1761C184.859 51.1761 185.678 50.5341 186.053 49.8011H186.121V51H188.098V45.1591C188.098 42.8523 186.217 42.1591 184.553 42.1591C182.717 42.1591 181.308 42.9773 180.854 44.5682L182.774 44.8409C182.979 44.2443 183.558 43.733 184.564 43.733C185.518 43.733 186.041 44.2216 186.041 45.0795V45.1136C186.041 45.7045 185.422 45.733 183.882 45.8977C182.189 46.0795 180.57 46.5852 180.57 48.5511C180.57 50.267 181.825 51.1761 183.49 51.1761ZM184.024 49.6648C183.166 49.6648 182.553 49.2727 182.553 48.517C182.553 47.7273 183.24 47.3977 184.161 47.267C184.7 47.1932 185.78 47.0568 186.047 46.8409V47.8693C186.047 48.8409 185.263 49.6648 184.024 49.6648ZM190.166 51H192.223V45.8693C192.223 44.7614 193.058 43.9773 194.189 43.9773C194.536 43.9773 194.967 44.0398 195.143 44.0966V42.2045C194.956 42.1705 194.632 42.1477 194.405 42.1477C193.405 42.1477 192.57 42.7159 192.251 43.7273H192.161V42.2727H190.166V51ZM201.337 42.2727H199.615V40.1818H197.558V42.2727H196.32V43.8636H197.558V48.7159C197.547 50.358 198.74 51.1648 200.286 51.1193C200.871 51.1023 201.274 50.9886 201.496 50.9148L201.149 49.3068C201.036 49.3352 200.803 49.3864 200.547 49.3864C200.03 49.3864 199.615 49.2045 199.615 48.375V43.8636H201.337V42.2727ZM205.568 51.1761C206.938 51.1761 207.756 50.5341 208.131 49.8011H208.199V51H210.176V45.1591C210.176 42.8523 208.295 42.1591 206.631 42.1591C204.795 42.1591 203.386 42.9773 202.932 44.5682L204.852 44.8409C205.057 44.2443 205.636 43.733 206.642 43.733C207.597 43.733 208.119 44.2216 208.119 45.0795V45.1136C208.119 45.7045 207.5 45.733 205.96 45.8977C204.267 46.0795 202.648 46.5852 202.648 48.5511C202.648 50.267 203.903 51.1761 205.568 51.1761ZM206.102 49.6648C205.244 49.6648 204.631 49.2727 204.631 48.517C204.631 47.7273 205.318 47.3977 206.239 47.267C206.778 47.1932 207.858 47.0568 208.125 46.8409V47.8693C208.125 48.8409 207.341 49.6648 206.102 49.6648ZM212.244 51H214.301V45.6932C214.301 44.6193 215.017 43.892 215.903 43.892C216.773 43.892 217.369 44.4773 217.369 45.375V51H219.386V45.5568C219.386 44.5739 219.972 43.892 220.966 43.892C221.795 43.892 222.455 44.3807 222.455 45.4602V51H224.517V45.142C224.517 43.1932 223.392 42.1591 221.79 42.1591C220.523 42.1591 219.557 42.7841 219.17 43.7557H219.08C218.744 42.767 217.898 42.1591 216.722 42.1591C215.551 42.1591 214.676 42.7614 214.312 43.7557H214.21V42.2727H212.244V51ZM230.467 51.1705C232.501 51.1705 233.899 50.1761 234.263 48.6591L232.342 48.4432C232.064 49.1818 231.382 49.5682 230.496 49.5682C229.166 49.5682 228.286 48.6932 228.268 47.1989H234.348V46.5682C234.348 43.5057 232.507 42.1591 230.359 42.1591C227.859 42.1591 226.229 43.9943 226.229 46.6875C226.229 49.4261 227.837 51.1705 230.467 51.1705ZM228.274 45.8125C228.337 44.6989 229.161 43.7614 230.388 43.7614C231.57 43.7614 232.365 44.625 232.376 45.8125H228.274ZM238.145 45.8864C238.145 44.625 238.906 43.8977 239.991 43.8977C241.054 43.8977 241.69 44.5966 241.69 45.7614V51H243.747V45.4432C243.753 43.3523 242.56 42.1591 240.759 42.1591C239.452 42.1591 238.554 42.7841 238.156 43.7557H238.054V42.2727H236.088V51H238.145V45.8864ZM250.196 42.2727H248.474V40.1818H246.418V42.2727H245.179V43.8636H246.418V48.7159C246.406 50.358 247.599 51.1648 249.145 51.1193C249.73 51.1023 250.134 50.9886 250.355 50.9148L250.009 49.3068C249.895 49.3352 249.662 49.3864 249.406 49.3864C248.889 49.3864 248.474 49.2045 248.474 48.375V43.8636H250.196V42.2727ZM255.629 51.1705C258.186 51.1705 259.811 49.3693 259.811 46.6705C259.811 43.9659 258.186 42.1591 255.629 42.1591C253.072 42.1591 251.447 43.9659 251.447 46.6705C251.447 49.3693 253.072 51.1705 255.629 51.1705ZM255.641 49.5227C254.226 49.5227 253.533 48.2614 253.533 46.6648C253.533 45.0682 254.226 43.7898 255.641 43.7898C257.033 43.7898 257.726 45.0682 257.726 46.6648C257.726 48.2614 257.033 49.5227 255.641 49.5227ZM268.455 44.5795C268.17 43.1023 266.989 42.1591 264.943 42.1591C262.841 42.1591 261.409 43.1932 261.415 44.8068C261.409 46.0795 262.193 46.9205 263.869 47.267L265.358 47.5795C266.159 47.7557 266.534 48.0795 266.534 48.5739C266.534 49.1705 265.886 49.6193 264.909 49.6193C263.966 49.6193 263.352 49.2102 263.176 48.4261L261.17 48.6193C261.426 50.2216 262.773 51.1705 264.915 51.1705C267.097 51.1705 268.636 50.0398 268.642 48.3864C268.636 47.142 267.835 46.3807 266.188 46.0227L264.699 45.7045C263.812 45.5057 263.46 45.1989 263.466 44.6932C263.46 44.1023 264.114 43.6932 264.972 43.6932C265.92 43.6932 266.42 44.2102 266.58 44.7841L268.455 44.5795ZM275.585 54.2727C277.188 54.2727 278.114 53.4489 278.608 52.0568L282.114 42.2841L279.915 42.2727L277.898 48.8636H277.807L275.795 42.2727H273.614L276.778 51.1818L276.602 51.6534C276.222 52.6477 275.619 52.7159 274.722 52.4545L274.244 54.0568C274.523 54.1705 275.023 54.2727 275.585 54.2727ZM291.374 51.1705C293.408 51.1705 294.805 50.1761 295.169 48.6591L293.249 48.4432C292.97 49.1818 292.288 49.5682 291.402 49.5682C290.072 49.5682 289.192 48.6932 289.175 47.1989H295.254V46.5682C295.254 43.5057 293.413 42.1591 291.266 42.1591C288.766 42.1591 287.135 43.9943 287.135 46.6875C287.135 49.4261 288.743 51.1705 291.374 51.1705ZM289.18 45.8125C289.243 44.6989 290.067 43.7614 291.294 43.7614C292.476 43.7614 293.271 44.625 293.283 45.8125H289.18ZM303.892 44.5795C303.608 43.1023 302.426 42.1591 300.381 42.1591C298.278 42.1591 296.847 43.1932 296.852 44.8068C296.847 46.0795 297.631 46.9205 299.307 47.267L300.795 47.5795C301.597 47.7557 301.972 48.0795 301.972 48.5739C301.972 49.1705 301.324 49.6193 300.347 49.6193C299.403 49.6193 298.79 49.2102 298.614 48.4261L296.608 48.6193C296.864 50.2216 298.21 51.1705 300.352 51.1705C302.534 51.1705 304.074 50.0398 304.08 48.3864C304.074 47.142 303.273 46.3807 301.625 46.0227L300.136 45.7045C299.25 45.5057 298.898 45.1989 298.903 44.6932C298.898 44.1023 299.551 43.6932 300.409 43.6932C301.358 43.6932 301.858 44.2102 302.017 44.7841L303.892 44.5795ZM309.582 51.1705C311.776 51.1705 313.173 49.8693 313.321 48.017H311.355C311.179 48.9545 310.503 49.4943 309.599 49.4943C308.315 49.4943 307.486 48.4205 307.486 46.6364C307.486 44.875 308.332 43.8182 309.599 43.8182C310.588 43.8182 311.196 44.4545 311.355 45.2955H313.321C313.179 43.4034 311.702 42.1591 309.571 42.1591C307.014 42.1591 305.401 44.0057 305.401 46.6705C305.401 49.3125 306.974 51.1705 309.582 51.1705ZM320.572 47.3295C320.572 48.6591 319.624 49.3182 318.714 49.3182C317.726 49.3182 317.067 48.6193 317.067 47.5114V42.2727H315.01V47.8295C315.01 49.9261 316.203 51.1136 317.919 51.1136C319.226 51.1136 320.146 50.4261 320.544 49.4489H320.635V51H322.629V42.2727H320.572V47.3295ZM328.551 51.1705C330.744 51.1705 332.142 49.8693 332.29 48.017H330.324C330.148 48.9545 329.472 49.4943 328.568 49.4943C327.284 49.4943 326.455 48.4205 326.455 46.6364C326.455 44.875 327.301 43.8182 328.568 43.8182C329.557 43.8182 330.165 44.4545 330.324 45.2955H332.29C332.148 43.4034 330.67 42.1591 328.54 42.1591C325.983 42.1591 324.369 44.0057 324.369 46.6705C324.369 49.3125 325.943 51.1705 328.551 51.1705ZM336.036 45.8864C336.036 44.625 336.82 43.8977 337.922 43.8977C339.001 43.8977 339.638 44.5852 339.638 45.7614V51H341.695V45.4432C341.695 43.3352 340.501 42.1591 338.689 42.1591C337.348 42.1591 336.496 42.767 336.092 43.7557H335.99V39.3636H333.979V51H336.036V45.8864ZM346.303 51.1761C347.672 51.1761 348.49 50.5341 348.865 49.8011H348.933V51H350.911V45.1591C350.911 42.8523 349.03 42.1591 347.365 42.1591C345.53 42.1591 344.121 42.9773 343.666 44.5682L345.587 44.8409C345.791 44.2443 346.371 43.733 347.376 43.733C348.331 43.733 348.854 44.2216 348.854 45.0795V45.1136C348.854 45.7045 348.234 45.733 346.695 45.8977C345.001 46.0795 343.382 46.5852 343.382 48.5511C343.382 50.267 344.638 51.1761 346.303 51.1761ZM346.837 49.6648C345.979 49.6648 345.365 49.2727 345.365 48.517C345.365 47.7273 346.053 47.3977 346.973 47.267C347.513 47.1932 348.592 47.0568 348.859 46.8409V47.8693C348.859 48.8409 348.075 49.6648 346.837 49.6648ZM363.845 44.5795C363.561 43.1023 362.379 42.1591 360.334 42.1591C358.232 42.1591 356.8 43.1932 356.805 44.8068C356.8 46.0795 357.584 46.9205 359.26 47.267L360.749 47.5795C361.55 47.7557 361.925 48.0795 361.925 48.5739C361.925 49.1705 361.277 49.6193 360.3 49.6193C359.357 49.6193 358.743 49.2102 358.567 48.4261L356.561 48.6193C356.817 50.2216 358.163 51.1705 360.305 51.1705C362.487 51.1705 364.027 50.0398 364.033 48.3864C364.027 47.142 363.226 46.3807 361.578 46.0227L360.089 45.7045C359.203 45.5057 358.851 45.1989 358.857 44.6932C358.851 44.1023 359.504 43.6932 360.362 43.6932C361.311 43.6932 361.811 44.2102 361.97 44.7841L363.845 44.5795ZM371.291 47.3295C371.291 48.6591 370.342 49.3182 369.433 49.3182C368.445 49.3182 367.786 48.6193 367.786 47.5114V42.2727H365.729V47.8295C365.729 49.9261 366.922 51.1136 368.638 51.1136C369.945 51.1136 370.865 50.4261 371.263 49.4489H371.354V51H373.348V42.2727H371.291V47.3295ZM382.361 44.5795C382.077 43.1023 380.895 42.1591 378.849 42.1591C376.747 42.1591 375.315 43.1932 375.321 44.8068C375.315 46.0795 376.099 46.9205 377.776 47.267L379.264 47.5795C380.065 47.7557 380.44 48.0795 380.44 48.5739C380.44 49.1705 379.793 49.6193 378.815 49.6193C377.872 49.6193 377.259 49.2102 377.082 48.4261L375.077 48.6193C375.332 50.2216 376.679 51.1705 378.821 51.1705C381.003 51.1705 382.543 50.0398 382.548 48.3864C382.543 47.142 381.741 46.3807 380.094 46.0227L378.605 45.7045C377.719 45.5057 377.366 45.1989 377.372 44.6932C377.366 44.1023 378.02 43.6932 378.878 43.6932C379.827 43.6932 380.327 44.2102 380.486 44.7841L382.361 44.5795ZM390.27 45.8864C390.27 44.625 391.054 43.8977 392.156 43.8977C393.236 43.8977 393.872 44.5852 393.872 45.7614V51H395.929V45.4432C395.929 43.3352 394.736 42.1591 392.923 42.1591C391.582 42.1591 390.73 42.767 390.327 43.7557H390.224V39.3636H388.213V51H390.27V45.8864ZM398.026 51H400.082V42.2727H398.026V51ZM399.06 41.0341C399.713 41.0341 400.247 40.5341 400.247 39.9205C400.247 39.3011 399.713 38.8011 399.06 38.8011C398.401 38.8011 397.866 39.3011 397.866 39.9205C397.866 40.5341 398.401 41.0341 399.06 41.0341ZM409.095 44.5795C408.811 43.1023 407.629 42.1591 405.584 42.1591C403.482 42.1591 402.05 43.1932 402.055 44.8068C402.05 46.0795 402.834 46.9205 404.51 47.267L405.999 47.5795C406.8 47.7557 407.175 48.0795 407.175 48.5739C407.175 49.1705 406.527 49.6193 405.55 49.6193C404.607 49.6193 403.993 49.2102 403.817 48.4261L401.811 48.6193C402.067 50.2216 403.413 51.1705 405.555 51.1705C407.737 51.1705 409.277 50.0398 409.283 48.3864C409.277 47.142 408.476 46.3807 406.828 46.0227L405.339 45.7045C404.453 45.5057 404.101 45.1989 404.107 44.6932C404.101 44.1023 404.754 43.6932 405.612 43.6932C406.561 43.6932 407.061 44.2102 407.22 44.7841L409.095 44.5795ZM415.337 42.2727H413.615V40.1818H411.558V42.2727H410.32V43.8636H411.558V48.7159C411.547 50.358 412.74 51.1648 414.286 51.1193C414.871 51.1023 415.274 50.9886 415.496 50.9148L415.149 49.3068C415.036 49.3352 414.803 49.3864 414.547 49.3864C414.03 49.3864 413.615 49.2045 413.615 48.375V43.8636H415.337V42.2727ZM420.77 51.1705C423.327 51.1705 424.952 49.3693 424.952 46.6705C424.952 43.9659 423.327 42.1591 420.77 42.1591C418.213 42.1591 416.588 43.9659 416.588 46.6705C416.588 49.3693 418.213 51.1705 420.77 51.1705ZM420.781 49.5227C419.366 49.5227 418.673 48.2614 418.673 46.6648C418.673 45.0682 419.366 43.7898 420.781 43.7898C422.173 43.7898 422.866 45.0682 422.866 46.6648C422.866 48.2614 422.173 49.5227 420.781 49.5227ZM426.697 51H428.754V45.8693C428.754 44.7614 429.589 43.9773 430.72 43.9773C431.067 43.9773 431.499 44.0398 431.675 44.0966V42.2045C431.487 42.1705 431.163 42.1477 430.936 42.1477C429.936 42.1477 429.101 42.7159 428.783 43.7273H428.692V42.2727H426.697V51ZM433.041 51H435.098V42.2727H433.041V51ZM434.075 41.0341C434.729 41.0341 435.263 40.5341 435.263 39.9205C435.263 39.3011 434.729 38.8011 434.075 38.8011C433.416 38.8011 432.882 39.3011 432.882 39.9205C432.882 40.5341 433.416 41.0341 434.075 41.0341ZM439.724 51.1761C441.094 51.1761 441.912 50.5341 442.287 49.8011H442.355V51H444.332V45.1591C444.332 42.8523 442.452 42.1591 440.787 42.1591C438.952 42.1591 437.543 42.9773 437.088 44.5682L439.009 44.8409C439.213 44.2443 439.793 43.733 440.798 43.733C441.753 43.733 442.276 44.2216 442.276 45.0795V45.1136C442.276 45.7045 441.656 45.733 440.116 45.8977C438.423 46.0795 436.804 46.5852 436.804 48.5511C436.804 50.267 438.06 51.1761 439.724 51.1761ZM440.259 49.6648C439.401 49.6648 438.787 49.2727 438.787 48.517C438.787 47.7273 439.474 47.3977 440.395 47.267C440.935 47.1932 442.014 47.0568 442.281 46.8409V47.8693C442.281 48.8409 441.497 49.6648 440.259 49.6648ZM453.298 44.5795C453.014 43.1023 451.832 42.1591 449.787 42.1591C447.685 42.1591 446.253 43.1932 446.259 44.8068C446.253 46.0795 447.037 46.9205 448.713 47.267L450.202 47.5795C451.003 47.7557 451.378 48.0795 451.378 48.5739C451.378 49.1705 450.73 49.6193 449.753 49.6193C448.81 49.6193 448.196 49.2102 448.02 48.4261L446.014 48.6193C446.27 50.2216 447.616 51.1705 449.759 51.1705C451.94 51.1705 453.48 50.0398 453.486 48.3864C453.48 47.142 452.679 46.3807 451.031 46.0227L449.543 45.7045C448.656 45.5057 448.304 45.1989 448.31 44.6932C448.304 44.1023 448.957 43.6932 449.815 43.6932C450.764 43.6932 451.264 44.2102 451.423 44.7841L453.298 44.5795ZM456.33 51.0909C456.892 51.0909 457.352 50.6307 457.352 50.0682C457.352 49.5057 456.892 49.0455 456.33 49.0455C455.767 49.0455 455.307 49.5057 455.307 50.0682C455.307 50.6307 455.767 51.0909 456.33 51.0909Z" fill="#0A3FA8"/>
<path d="M84.0923 81.2898C83.7344 78.7045 81.7457 77.2045 79.1662 77.2045C76.1264 77.2045 73.8366 79.4205 73.8366 83.1818C73.8366 86.9375 76.098 89.1591 79.1662 89.1591C81.9332 89.1591 83.7685 87.3693 84.0923 85.1477L81.9673 85.1364C81.7003 86.5 80.5866 87.267 79.1946 87.267C77.3082 87.267 75.956 85.8523 75.956 83.1818C75.956 80.5568 77.2969 79.0966 79.2003 79.0966C80.6151 79.0966 81.723 79.8977 81.9673 81.2898H84.0923ZM88.4432 89.1761C89.8125 89.1761 90.6307 88.5341 91.0057 87.8011H91.0739V89H93.0511V83.1591C93.0511 80.8523 91.1705 80.1591 89.5057 80.1591C87.6705 80.1591 86.2614 80.9773 85.8068 82.5682L87.7273 82.8409C87.9318 82.2443 88.5114 81.733 89.517 81.733C90.4716 81.733 90.9943 82.2216 90.9943 83.0795V83.1136C90.9943 83.7045 90.375 83.733 88.8352 83.8977C87.142 84.0795 85.5227 84.5852 85.5227 86.5511C85.5227 88.267 86.7784 89.1761 88.4432 89.1761ZM88.9773 87.6648C88.1193 87.6648 87.5057 87.2727 87.5057 86.517C87.5057 85.7273 88.1932 85.3977 89.1136 85.267C89.6534 85.1932 90.733 85.0568 91 84.8409V85.8693C91 86.8409 90.2159 87.6648 88.9773 87.6648ZM95.1193 80.2727V89.4716C95.1193 90.2045 94.8068 90.5966 94.017 90.5966C93.9148 90.5966 93.8352 90.5909 93.7216 90.5852V92.2614C93.8693 92.2727 93.9943 92.2727 94.142 92.2727C96.0682 92.2727 97.1761 91.3864 97.1761 89.5V80.2727H95.1193ZM96.142 79.0341C96.7955 79.0341 97.3295 78.5341 97.3295 77.9205C97.3295 77.3011 96.7955 76.8011 96.142 76.8011C95.483 76.8011 94.9489 77.3011 94.9489 77.9205C94.9489 78.5341 95.483 79.0341 96.142 79.0341ZM101.803 89.1761C103.172 89.1761 103.99 88.5341 104.365 87.8011H104.433V89H106.411V83.1591C106.411 80.8523 104.53 80.1591 102.865 80.1591C101.03 80.1591 99.6207 80.9773 99.1662 82.5682L101.087 82.8409C101.291 82.2443 101.871 81.733 102.876 81.733C103.831 81.733 104.354 82.2216 104.354 83.0795V83.1136C104.354 83.7045 103.734 83.733 102.195 83.8977C100.501 84.0795 98.8821 84.5852 98.8821 86.5511C98.8821 88.267 100.138 89.1761 101.803 89.1761ZM102.337 87.6648C101.479 87.6648 100.865 87.2727 100.865 86.517C100.865 85.7273 101.553 85.3977 102.473 85.267C103.013 85.1932 104.092 85.0568 104.359 84.8409V85.8693C104.359 86.8409 103.575 87.6648 102.337 87.6648ZM110.536 77.3636H108.479V89H110.536V77.3636ZM115.162 89.1761C116.531 89.1761 117.349 88.5341 117.724 87.8011H117.793V89H119.77V83.1591C119.77 80.8523 117.889 80.1591 116.224 80.1591C114.389 80.1591 112.98 80.9773 112.526 82.5682L114.446 82.8409C114.651 82.2443 115.23 81.733 116.236 81.733C117.19 81.733 117.713 82.2216 117.713 83.0795V83.1136C117.713 83.7045 117.094 83.733 115.554 83.8977C113.861 84.0795 112.241 84.5852 112.241 86.5511C112.241 88.267 113.497 89.1761 115.162 89.1761ZM115.696 87.6648C114.838 87.6648 114.224 87.2727 114.224 86.517C114.224 85.7273 114.912 85.3977 115.832 85.267C116.372 85.1932 117.452 85.0568 117.719 84.8409V85.8693C117.719 86.8409 116.935 87.6648 115.696 87.6648ZM121.929 89H123.952V87.625H124.071C124.395 88.2614 125.071 89.1534 126.571 89.1534C128.628 89.1534 130.168 87.5227 130.168 84.6477C130.168 81.7386 128.582 80.1591 126.565 80.1591C125.026 80.1591 124.384 81.0852 124.071 81.7159H123.986V77.3636H121.929V89ZM123.946 84.6364C123.946 82.9432 124.673 81.8466 125.997 81.8466C127.366 81.8466 128.071 83.0114 128.071 84.6364C128.071 86.2727 127.355 87.4659 125.997 87.4659C124.685 87.4659 123.946 86.3295 123.946 84.6364Z" fill="#4B5563"/>
</svg>
