<svg width="180" height="54" viewBox="0 0 180 54" fill="none" xmlns="http://www.w3.org/2000/svg">
<path d="M87.6114 17.7376C88.1897 17.7365 88.7621 17.8528 89.2941 18.0795C89.826 18.3063 90.3064 18.6387 90.706 19.0566C91.0432 19.3651 91.4851 19.5339 91.9421 19.5287C92.3992 19.5234 92.8371 19.3447 93.1672 19.0285C93.4973 18.7124 93.6949 18.2826 93.7198 17.8262C93.7448 17.3699 93.5953 16.9211 93.3017 16.5708C92.2104 15.4346 90.8041 14.6508 89.2638 14.3201C87.7234 13.9895 86.1194 14.1271 84.6579 14.7153C83.1964 15.3035 81.9442 16.3154 81.0623 17.6209C80.1805 18.9264 79.7093 20.4658 79.7093 22.0413C79.7093 23.6167 80.1805 25.1561 81.0623 26.4616C81.9442 27.7671 83.1964 28.779 84.6579 29.3672C86.1194 29.9554 87.7234 30.0931 89.2638 29.7624C90.8041 29.4317 92.2104 28.6479 93.3017 27.5117C93.5953 27.1614 93.7448 26.7126 93.7198 26.2563C93.6949 25.7999 93.4973 25.3701 93.1672 25.054C92.8371 24.7378 92.3992 24.5591 91.9421 24.5538C91.4851 24.5486 91.0432 24.7174 90.706 25.0259C90.3086 25.4474 89.8289 25.7827 89.2966 26.011C88.7642 26.2394 88.1907 26.3559 87.6114 26.3533C86.5019 26.3042 85.4542 25.8288 84.6865 25.0263C83.9187 24.2238 83.4902 23.1561 83.4902 22.0455C83.4902 20.9349 83.9187 19.8671 84.6865 19.0646C85.4542 18.2621 86.5019 17.7868 87.6114 17.7376ZM132.212 25.5755V18.6592C132.212 15.683 129.946 14.3556 125.981 14.3556C121.753 14.3556 119.758 16.5032 119.758 18.1519C119.786 18.593 119.986 19.0055 120.315 19.301C120.643 19.5965 121.075 19.7516 121.516 19.733C123.165 19.733 122.92 17.5685 125.676 17.4671C127.063 17.4163 128.28 17.9744 128.28 19.1581C128.28 20.3418 127.579 20.6631 126.192 20.7561C121.854 21.0351 118.828 21.9736 118.828 25.5755C118.828 30.75 126.243 31.1727 128.526 27.8583C128.526 27.8076 128.526 27.7738 128.526 27.8583C128.524 28.1446 128.581 28.4282 128.692 28.6919C128.804 28.9556 128.968 29.194 129.174 29.3924C129.38 29.5909 129.625 29.7453 129.893 29.8464C130.161 29.9475 130.446 29.9932 130.732 29.9806C131.671 29.9383 132.339 29.6424 132.339 29.0759C132.339 28.5094 132.212 27.3257 132.212 25.6008V25.5755ZM128.28 23.8845C128.304 24.2862 128.242 24.6885 128.098 25.0644C127.955 25.4404 127.733 25.7816 127.447 26.0654C127.162 26.3492 126.82 26.5691 126.443 26.7106C126.066 26.8521 125.663 26.9119 125.262 26.886C124.29 26.886 122.962 26.3702 122.962 25.195C122.962 24.0197 124.061 23.3856 125.575 23.132C127.088 22.8783 127.832 22.7008 128.28 22.2865V23.8845ZM116.392 28.9575V16.7061C116.392 15.4801 115.919 14.5247 114.27 14.5247C113.977 14.4829 113.679 14.5103 113.398 14.6047C113.118 14.6992 112.864 14.8579 112.656 15.0684C112.448 15.2788 112.292 15.535 112.201 15.8165C112.11 16.0979 112.086 16.3968 112.131 16.6892V28.9152C112.131 31.8999 110.33 31.1135 110.093 32.0774C109.755 33.4302 111.159 33.9291 112.047 33.9122C114.997 33.8868 116.392 31.4433 116.392 28.9406V28.9575ZM114.279 8.73297C113.832 8.73299 113.394 8.86583 113.023 9.11464C112.651 9.36345 112.362 9.71703 112.191 10.1305C112.021 10.544 111.977 10.9988 112.066 11.4372C112.154 11.8755 112.371 12.2777 112.688 12.5928C113.006 12.9078 113.41 13.1215 113.849 13.2066C114.288 13.2918 114.742 13.2447 115.154 13.0712C115.567 12.8978 115.918 12.6058 116.164 12.2323C116.41 11.8589 116.54 11.4208 116.536 10.9736C116.536 10.3748 116.298 9.80064 115.875 9.37727C115.452 8.95391 114.877 8.71606 114.279 8.71606V8.73297ZM105.342 27.8837C105.339 28.1696 105.395 28.453 105.505 28.7167C105.616 28.9804 105.779 29.2188 105.985 29.4173C106.19 29.6159 106.434 29.7705 106.702 29.8717C106.969 29.9729 107.254 30.0186 107.54 30.0059C108.487 29.9637 109.155 29.6677 109.155 29.1012C109.155 28.5347 108.986 27.4102 108.986 25.6431V18.6592C108.986 15.683 106.728 14.3556 102.763 14.3556C98.5354 14.3556 96.54 16.5032 96.54 18.1519C96.5683 18.593 96.7683 19.0055 97.097 19.301C97.4257 19.5965 97.857 19.7516 98.2986 19.733C99.9389 19.733 99.6937 17.5685 102.459 17.4671C103.845 17.4163 105.063 17.9744 105.063 19.1581C105.063 20.3418 104.361 20.6631 102.966 20.7561C98.6368 21.0351 95.6099 21.9736 95.6099 25.5755C95.6099 30.75 103.025 31.1727 105.308 27.8583C105.342 27.8161 105.342 27.7822 105.342 27.8837ZM105.063 23.9267C105.085 24.3289 105.022 24.7313 104.877 25.1073C104.733 25.4833 104.51 25.8244 104.224 26.108C103.938 26.3916 103.595 26.6114 103.218 26.7528C102.841 26.8942 102.438 26.954 102.036 26.9283C101.072 26.9283 99.7445 26.4125 99.7445 25.2373C99.7445 24.062 100.844 23.4279 102.349 23.1742C103.854 22.9206 104.606 22.743 105.063 22.3287V23.9267Z" fill="#1C2C4D"/>
<path d="M136.575 7.63379H139.297V29.5747H136.575V7.63379Z" fill="#989999"/>
<path d="M150.314 29.5746L150.094 27.6892H150.001C149.471 28.3973 148.779 28.969 147.984 29.3571C147.188 29.7452 146.312 29.9386 145.427 29.9213C144.838 29.9646 144.246 29.8852 143.689 29.6879C143.132 29.4907 142.622 29.18 142.191 28.7755C141.76 28.3709 141.418 27.8814 141.187 27.3379C140.955 26.7943 140.838 26.2086 140.845 25.6177C140.845 21.9989 144.066 20.012 149.849 20.0458V19.7329C149.849 18.4985 149.511 16.2664 146.467 16.2664C145.09 16.2748 143.742 16.6608 142.569 17.3824L141.952 15.6153C143.436 14.7203 145.14 14.2576 146.873 14.2794C151.456 14.2794 152.563 17.4078 152.563 20.4093V26.0151C152.545 27.2151 152.63 28.4145 152.817 29.6L150.314 29.5746ZM149.908 21.9651C146.941 21.9059 143.567 22.4301 143.567 25.3471C143.539 25.6905 143.584 26.0359 143.701 26.3602C143.817 26.6844 144.002 26.9799 144.242 27.2267C144.483 27.4735 144.773 27.6659 145.094 27.7909C145.415 27.9159 145.76 27.9706 146.104 27.9513C146.898 27.9695 147.678 27.7332 148.329 27.2769C148.98 26.8206 149.468 26.1681 149.722 25.4148C149.816 25.1424 149.868 24.8572 149.875 24.5692L149.908 21.9651Z" fill="#989999"/>
<path d="M154.956 29.5747C155.015 28.5601 155.083 27.0382 155.083 25.7107V7.63379H157.772V17.0358H157.831C158.347 16.1594 159.092 15.4399 159.985 14.9543C160.879 14.4688 161.888 14.2355 162.904 14.2795C166.624 14.2795 169.254 17.3825 169.22 21.9313C169.22 27.2834 165.838 29.9467 162.506 29.9467C161.489 30.0042 160.477 29.7697 159.589 29.2709C158.7 28.772 157.973 28.0296 157.493 27.1312H157.4L157.307 29.5747H154.956ZM157.772 23.5716C157.778 23.9049 157.821 24.2366 157.898 24.5608C158.129 25.4699 158.656 26.2764 159.395 26.8534C160.134 27.4305 161.044 27.7453 161.982 27.7484C164.832 27.7484 166.531 25.4317 166.531 21.999C166.531 18.9974 164.984 16.4271 162.075 16.4271C161.111 16.4441 160.179 16.7815 159.428 17.3861C158.676 17.9908 158.147 18.8283 157.924 19.7668C157.836 20.1328 157.785 20.5067 157.772 20.8829V23.5716Z" fill="#989999"/>
<path d="M69.0272 39.374H69.8727V45.5124H72.8151V46.2565H69.0272V39.374Z" fill="#1C2C4D"/>
<path d="M76.5607 46.2565L76.493 45.6393C76.3173 45.8732 76.0883 46.0619 75.8251 46.1899C75.562 46.3178 75.2721 46.3812 74.9796 46.3749C74.7851 46.3889 74.5898 46.3625 74.406 46.2973C74.2222 46.2321 74.0539 46.1295 73.9118 45.9961C73.7696 45.8626 73.6566 45.7012 73.5799 45.5219C73.5032 45.3426 73.4644 45.1494 73.4661 44.9544C73.4661 43.7538 74.5315 43.1027 76.4423 43.1112V43.0097C76.4627 42.8565 76.4478 42.7006 76.3987 42.554C76.3497 42.4074 76.2678 42.274 76.1593 42.1639C76.0508 42.0538 75.9186 41.9699 75.7728 41.9187C75.6269 41.8674 75.4713 41.8502 75.3178 41.8683C74.8638 41.8669 74.4186 41.9929 74.0326 42.2319L73.8297 41.64C74.318 41.3422 74.8811 41.1897 75.4531 41.2004C76.9665 41.2004 77.3301 42.2319 77.3301 43.2211V45.0728C77.325 45.469 77.3533 45.865 77.4146 46.2565H76.5607ZM76.4254 43.72C75.4446 43.72 74.337 43.8722 74.337 44.836C74.3295 44.949 74.3463 45.0623 74.3861 45.1682C74.426 45.2742 74.488 45.3704 74.568 45.4505C74.6481 45.5305 74.7443 45.5926 74.8503 45.6324C74.9563 45.6723 75.0695 45.689 75.1825 45.6815C75.4456 45.6873 75.7036 45.6081 75.9183 45.4559C76.133 45.3036 76.293 45.0863 76.3747 44.836C76.4081 44.7439 76.4253 44.6466 76.4254 44.5486V43.72Z" fill="#1C2C4D"/>
<path d="M78.7083 46.2565C78.7083 45.9268 78.7083 45.411 78.7083 44.9798V39.0021H79.5538V42.1135C79.7229 41.8192 79.9707 41.5778 80.2694 41.4165C80.5681 41.2552 80.9059 41.1804 81.2448 41.2004C82.4708 41.2004 83.3416 42.2235 83.3332 43.7369C83.3332 45.504 82.2171 46.3834 81.1095 46.3834C80.768 46.4079 80.4266 46.3331 80.1266 46.1681C79.8266 46.0031 79.5807 45.7549 79.4185 45.4533V46.2988L78.7083 46.2565ZM79.6383 44.278C79.6301 44.3878 79.6301 44.498 79.6383 44.6078C79.7217 44.9194 79.9105 45.1925 80.1726 45.3805C80.4346 45.5686 80.7538 45.66 81.0757 45.6393C82.0142 45.6393 82.5722 44.8699 82.5722 43.7369C82.5722 42.7477 82.0649 41.9022 81.101 41.9022C80.7833 41.9082 80.4766 42.0194 80.2288 42.2182C79.981 42.4171 79.806 42.6925 79.7313 43.0013C79.7032 43.1235 79.6862 43.2481 79.6806 43.3733L79.6383 44.278Z" fill="#1C2C4D"/>
<path d="M89.0404 43.7453C89.0701 44.0837 89.0283 44.4247 88.9174 44.7459C88.8066 45.0671 88.6294 45.3613 88.3972 45.6094C88.1651 45.8575 87.8833 46.0539 87.5701 46.1858C87.257 46.3176 86.9196 46.3821 86.5799 46.3748C86.2535 46.3782 85.93 46.3135 85.63 46.185C85.33 46.0565 85.06 45.8668 84.8373 45.6282C84.6146 45.3896 84.444 45.1072 84.3364 44.799C84.2289 44.4909 84.1867 44.1637 84.2125 43.8383C84.1828 43.5005 84.2245 43.1603 84.3348 42.8398C84.4451 42.5192 84.6216 42.2254 84.8528 41.9774C85.084 41.7294 85.3648 41.5329 85.6769 41.4004C85.989 41.268 86.3255 41.2027 86.6645 41.2088C86.9919 41.2029 87.317 41.2658 87.6187 41.3933C87.9203 41.5209 88.1918 41.7103 88.4157 41.9494C88.6396 42.1884 88.8109 42.4717 88.9185 42.7811C89.0261 43.0904 89.0676 43.4189 89.0404 43.7453ZM85.1172 43.796C85.1172 44.8783 85.7429 45.6984 86.6222 45.6984C87.5015 45.6984 88.1272 44.8529 88.1272 43.7791C88.1272 42.9336 87.7045 41.8767 86.6391 41.8767C85.5738 41.8767 85.1172 42.8575 85.1172 43.796Z" fill="#1C2C4D"/>
<path d="M90.1818 42.8575C90.1818 42.2741 90.1818 41.7752 90.1818 41.3102H90.9681V42.2825C91.0545 41.9815 91.2331 41.7152 91.4788 41.521C91.7245 41.3269 92.025 41.2147 92.3378 41.2003C92.4246 41.1867 92.5131 41.1867 92.5999 41.2003V42.0458C92.4961 42.0314 92.3909 42.0314 92.2871 42.0458C91.9795 42.0574 91.6871 42.182 91.4656 42.3957C91.2441 42.6094 91.1091 42.8972 91.0865 43.2041C91.0581 43.3404 91.0439 43.4792 91.0442 43.6184V46.2564H90.1987L90.1818 42.8575Z" fill="#1C2C4D"/>
<path d="M96.2102 46.2565L96.1426 45.6393C95.9668 45.8732 95.7379 46.062 95.4747 46.1899C95.2115 46.3178 94.9217 46.3812 94.6291 46.3749C94.4346 46.3889 94.2394 46.3625 94.0556 46.2973C93.8718 46.2321 93.7035 46.1295 93.5613 45.9961C93.4191 45.8626 93.3061 45.7012 93.2294 45.5219C93.1527 45.3426 93.114 45.1494 93.1157 44.9544C93.1157 43.7538 94.181 43.1028 96.0919 43.1112V43.0098C96.1123 42.8565 96.0974 42.7007 96.0483 42.5541C95.9993 42.4075 95.9174 42.274 95.8089 42.1639C95.7004 42.0538 95.5682 41.9699 95.4223 41.9187C95.2765 41.8674 95.1209 41.8502 94.9673 41.8683C94.5134 41.8669 94.0681 41.9929 93.6822 42.2319L93.4708 41.64C93.9627 41.3432 94.5282 41.1909 95.1026 41.2004C96.6161 41.2004 96.9796 42.2319 96.9796 43.2211V45.0728C96.9746 45.469 97.0029 45.865 97.0642 46.2565H96.2102ZM96.075 43.72C95.0942 43.72 93.9866 43.8722 93.9866 44.836C93.9791 44.949 93.9958 45.0623 94.0357 45.1682C94.0755 45.2742 94.1376 45.3705 94.2176 45.4505C94.2977 45.5306 94.3939 45.5926 94.4999 45.6324C94.6058 45.6723 94.7191 45.689 94.8321 45.6816C95.0952 45.6873 95.3532 45.6081 95.5679 45.4559C95.7826 45.3036 95.9426 45.0863 96.0242 44.836C96.0577 44.7439 96.0748 44.6466 96.075 44.5486V43.72Z" fill="#1C2C4D"/>
<path d="M99.4401 39.8898V41.3102H100.734V41.9951H99.4401V44.6669C99.4401 45.2756 99.6176 45.6223 100.116 45.6223C100.293 45.6266 100.469 45.6067 100.641 45.5631L100.683 46.2395C100.424 46.3249 100.152 46.365 99.8798 46.3579C99.7005 46.3688 99.5211 46.3412 99.3534 46.277C99.1857 46.2129 99.0336 46.1136 98.9074 45.9859C98.636 45.6123 98.5125 45.1515 98.5608 44.6923V41.9951H97.7998V41.3102H98.5608V40.1265L99.4401 39.8898Z" fill="#1C2C4D"/>
<path d="M106.162 43.7453C106.19 44.0842 106.147 44.4253 106.036 44.7465C105.924 45.0677 105.746 45.3618 105.513 45.6098C105.28 45.8577 104.998 46.0539 104.684 46.1857C104.371 46.3175 104.033 46.382 103.693 46.3748C103.367 46.3782 103.043 46.3136 102.743 46.185C102.443 46.0565 102.173 45.8669 101.95 45.6283C101.728 45.3896 101.557 45.1072 101.45 44.7991C101.342 44.4909 101.3 44.1637 101.326 43.8383C101.296 43.5006 101.338 43.1604 101.448 42.8398C101.558 42.5192 101.735 42.2254 101.966 41.9774C102.197 41.7295 102.478 41.5329 102.79 41.4005C103.102 41.2681 103.439 41.2028 103.778 41.2088C104.106 41.2017 104.432 41.2637 104.734 41.3908C105.037 41.5178 105.31 41.707 105.534 41.9462C105.759 42.1854 105.931 42.4691 106.039 42.7791C106.147 43.089 106.189 43.4182 106.162 43.7453ZM102.23 43.796C102.23 44.8783 102.856 45.6984 103.735 45.6984C104.615 45.6984 105.24 44.8529 105.24 43.7791C105.24 42.9336 104.818 41.8767 103.752 41.8767C102.687 41.8767 102.213 42.8575 102.213 43.796H102.23Z" fill="#1C2C4D"/>
<path d="M107.286 42.8574C107.286 42.274 107.286 41.7752 107.286 41.3102H108.073V42.2825C108.157 41.9802 108.335 41.7124 108.581 41.5178C108.827 41.3233 109.129 41.2121 109.442 41.2002C109.527 41.1875 109.612 41.1875 109.696 41.2002V42.0457C109.595 42.0318 109.493 42.0318 109.392 42.0457C109.083 42.0572 108.79 42.1815 108.567 42.395C108.344 42.6085 108.207 42.8964 108.183 43.2041C108.154 43.3404 108.14 43.4792 108.14 43.6184V46.2564H107.286V42.8574Z" fill="#1C2C4D"/>
<path d="M111.683 39.9236C111.683 40.0716 111.624 40.2135 111.52 40.3182C111.415 40.4228 111.273 40.4816 111.125 40.4816C110.977 40.4816 110.835 40.4228 110.73 40.3182C110.626 40.2135 110.567 40.0716 110.567 39.9236C110.565 39.8493 110.577 39.7753 110.605 39.7061C110.632 39.6369 110.673 39.5739 110.725 39.5209C110.777 39.468 110.839 39.4261 110.908 39.398C110.977 39.3698 111.051 39.3559 111.125 39.3571C111.2 39.3547 111.274 39.3677 111.343 39.3955C111.413 39.4232 111.476 39.465 111.528 39.5182C111.58 39.5714 111.621 39.6349 111.648 39.7047C111.675 39.7744 111.687 39.849 111.683 39.9236ZM110.668 46.2564V41.3102H111.573V46.2564H110.668Z" fill="#1C2C4D"/>
<path d="M117.551 43.7453C117.579 44.0842 117.536 44.4253 117.425 44.7465C117.313 45.0677 117.135 45.3618 116.902 45.6098C116.669 45.8577 116.387 46.0539 116.073 46.1857C115.76 46.3175 115.422 46.382 115.082 46.3748C114.756 46.3782 114.432 46.3136 114.132 46.185C113.832 46.0565 113.562 45.8669 113.339 45.6283C113.117 45.3896 112.946 45.1072 112.838 44.7991C112.731 44.4909 112.689 44.1637 112.715 43.8383C112.685 43.5006 112.727 43.1604 112.837 42.8398C112.947 42.5192 113.124 42.2254 113.355 41.9774C113.586 41.7295 113.867 41.5329 114.179 41.4005C114.491 41.2681 114.828 41.2028 115.167 41.2088C115.495 41.2017 115.821 41.2637 116.123 41.3908C116.426 41.5178 116.699 41.707 116.923 41.9462C117.148 42.1854 117.32 42.4691 117.428 42.7791C117.536 43.089 117.578 43.4182 117.551 43.7453ZM113.619 43.796C113.619 44.8783 114.245 45.6984 115.124 45.6984C116.004 45.6984 116.629 44.8529 116.629 43.7791C116.629 42.9336 116.206 41.8767 115.141 41.8767C114.076 41.8767 113.619 42.8575 113.619 43.796Z" fill="#1C2C4D"/>
<path d="M125.127 39.0021V44.9798C125.127 45.4195 125.127 45.9268 125.127 46.2565H124.323L124.281 45.411C124.118 45.715 123.874 45.9673 123.575 46.1392C123.276 46.3111 122.935 46.3957 122.59 46.3834C121.398 46.3834 120.476 45.3687 120.476 43.8468C120.476 42.2065 121.491 41.1919 122.692 41.1919C122.985 41.1766 123.277 41.2379 123.54 41.3699C123.802 41.5018 124.025 41.6998 124.188 41.9444V39.0021H125.127ZM124.197 43.3226C124.199 43.1973 124.185 43.0721 124.154 42.9506C124.094 42.653 123.931 42.3858 123.695 42.1945C123.459 42.0033 123.164 41.8999 122.861 41.9022C121.931 41.9022 121.373 42.7477 121.373 43.813C121.373 44.8783 121.871 45.6478 122.835 45.6478C123.152 45.6582 123.463 45.5561 123.712 45.3596C123.961 45.1631 124.133 44.8848 124.197 44.574C124.228 44.4468 124.242 44.316 124.239 44.185L124.197 43.3226Z" fill="#1C2C4D"/>
<path d="M127.114 43.9482C127.099 44.1742 127.132 44.4007 127.212 44.6126C127.292 44.8246 127.416 45.017 127.576 45.1771C127.736 45.3373 127.928 45.4613 128.14 45.541C128.352 45.6207 128.579 45.6542 128.805 45.6392C129.274 45.6545 129.741 45.568 130.174 45.3856L130.326 46.0282C129.808 46.2448 129.248 46.3486 128.686 46.3326C128.352 46.3556 128.016 46.3049 127.703 46.1842C127.391 46.0634 127.108 45.8754 126.876 45.6335C126.644 45.3916 126.467 45.1016 126.359 44.7842C126.251 44.4667 126.214 44.1294 126.251 43.796C126.251 42.3079 127.097 41.1327 128.568 41.1327C128.86 41.1379 129.148 41.2041 129.413 41.3271C129.678 41.4501 129.915 41.6271 130.107 41.8468C130.3 42.0665 130.444 42.3241 130.532 42.603C130.619 42.8819 130.647 43.1759 130.614 43.4663C130.626 43.6041 130.626 43.7428 130.614 43.8806L127.114 43.9482ZM129.752 43.3056C129.779 43.1257 129.768 42.9418 129.719 42.7665C129.669 42.5913 129.583 42.4287 129.465 42.2899C129.347 42.1511 129.2 42.0394 129.035 41.9622C128.87 41.8851 128.691 41.8444 128.509 41.8429C128.137 41.8684 127.789 42.0332 127.533 42.3044C127.278 42.5756 127.134 42.9331 127.13 43.3056H129.752Z" fill="#1C2C4D"/>
<path d="M134.825 39.374V46.2565H133.979V39.374H134.825Z" fill="#1C2C4D"/>
<path d="M136.448 42.6546C136.448 42.1388 136.448 41.7245 136.448 41.3102H137.243L137.293 42.1557C137.456 41.8655 137.694 41.6253 137.984 41.4614C138.273 41.2974 138.601 41.2159 138.934 41.2256C139.619 41.2256 140.675 41.6315 140.675 43.331V46.2818H139.779V43.4071C139.779 42.6123 139.483 41.9443 138.638 41.9443C138.364 41.9494 138.1 42.0414 137.882 42.2072C137.665 42.3729 137.506 42.6037 137.429 42.8659C137.385 43.0024 137.365 43.1454 137.37 43.2887V46.2564H136.465L136.448 42.6546Z" fill="#1C2C4D"/>
<path d="M142.121 42.6546C142.121 42.1388 142.121 41.7245 142.121 41.3102H142.916L142.967 42.1557C143.129 41.8655 143.368 41.6253 143.657 41.4614C143.946 41.2974 144.275 41.2159 144.607 41.2256C145.292 41.2256 146.357 41.6315 146.357 43.331V46.2818H145.453V43.4071C145.453 42.6123 145.157 41.9443 144.311 41.9443C144.038 41.9494 143.773 42.0414 143.556 42.2072C143.338 42.3729 143.179 42.6037 143.102 42.8659C143.058 43.0024 143.038 43.1454 143.043 43.2887V46.2564H142.121V42.6546Z" fill="#1C2C4D"/>
<path d="M152.276 43.7453C152.306 44.0838 152.264 44.4247 152.153 44.7459C152.042 45.0671 151.865 45.3613 151.633 45.6094C151.401 45.8575 151.119 46.0539 150.806 46.1858C150.492 46.3177 150.155 46.3821 149.815 46.3748C149.488 46.3794 149.164 46.3156 148.863 46.1876C148.562 46.0596 148.291 45.8702 148.067 45.6314C147.844 45.3927 147.672 45.1099 147.564 44.8011C147.456 44.4923 147.414 44.1644 147.44 43.8383C147.41 43.5006 147.451 43.1604 147.562 42.8398C147.672 42.5192 147.849 42.2254 148.08 41.9774C148.311 41.7295 148.592 41.5329 148.904 41.4005C149.216 41.2681 149.553 41.2028 149.891 41.2088C150.22 41.2017 150.546 41.2637 150.848 41.3908C151.151 41.5178 151.424 41.707 151.648 41.9462C151.873 42.1854 152.045 42.4691 152.153 42.7791C152.261 43.089 152.303 43.4182 152.276 43.7453ZM148.353 43.796C148.353 44.8783 148.978 45.6984 149.858 45.6984C150.737 45.6984 151.354 44.8529 151.354 43.7791C151.354 42.9336 150.94 41.8767 149.875 41.8767C148.809 41.8767 148.353 42.8575 148.353 43.796Z" fill="#1C2C4D"/>
<path d="M153.688 41.3103L154.635 44.092C154.795 44.5401 154.931 44.9375 155.032 45.3603C155.142 44.9544 155.286 44.5148 155.446 44.092L156.41 41.3103H157.349L155.48 46.2565H154.635L152.749 41.3103H153.688Z" fill="#1C2C4D"/>
<path d="M160.959 46.2565L160.883 45.6393C160.707 45.8727 160.478 46.0611 160.215 46.189C159.952 46.3168 159.662 46.3805 159.37 46.3749C159.175 46.3889 158.98 46.3625 158.796 46.2973C158.612 46.2321 158.444 46.1296 158.302 45.9961C158.16 45.8627 158.047 45.7012 157.97 45.5219C157.893 45.3427 157.855 45.1494 157.856 44.9544C157.856 43.7538 158.913 43.1028 160.832 43.1112V43.0098C160.851 42.8569 160.835 42.7017 160.785 42.5559C160.736 42.4101 160.654 42.2773 160.546 42.1676C160.438 42.0578 160.306 41.9739 160.161 41.9221C160.016 41.8703 159.861 41.8519 159.708 41.8683C159.251 41.8658 158.803 41.9918 158.414 42.2319L158.211 41.6401C158.7 41.3431 159.263 41.1907 159.835 41.2004C161.348 41.2004 161.72 42.2319 161.72 43.2212V45.0728C161.713 45.4688 161.738 45.8647 161.796 46.2565H160.959ZM160.824 43.72C159.843 43.72 158.727 43.8722 158.727 44.8361C158.72 44.949 158.736 45.0623 158.776 45.1683C158.816 45.2742 158.878 45.3705 158.958 45.4505C159.038 45.5306 159.134 45.5926 159.24 45.6325C159.346 45.6723 159.46 45.6891 159.573 45.6816C159.837 45.6891 160.097 45.6109 160.313 45.4585C160.53 45.3061 160.691 45.0877 160.773 44.8361C160.807 44.7439 160.824 44.6466 160.824 44.5486V43.72Z" fill="#1C2C4D"/>
<path d="M166.675 46.0789C166.227 46.2718 165.742 46.3669 165.254 46.3579C164.92 46.3759 164.585 46.322 164.273 46.2C163.96 46.0779 163.678 45.8905 163.444 45.6502C163.21 45.41 163.03 45.1225 162.917 44.8071C162.803 44.4916 162.758 44.1556 162.785 43.8214C162.772 43.4696 162.832 43.1189 162.962 42.7915C163.091 42.4642 163.288 42.1674 163.538 41.9201C163.789 41.6728 164.088 41.4803 164.417 41.3549C164.746 41.2295 165.097 41.174 165.449 41.1919C165.876 41.1894 166.299 41.2758 166.692 41.4455L166.489 42.1473C166.169 41.9778 165.81 41.8961 165.449 41.9105C164.986 41.9547 164.556 42.1698 164.244 42.5137C163.931 42.8577 163.758 43.3058 163.758 43.7707C163.758 44.2355 163.931 44.6836 164.244 45.0276C164.556 45.3715 164.986 45.5866 165.449 45.6308C165.829 45.6324 166.205 45.5486 166.548 45.3856L166.675 46.0789Z" fill="#1C2C4D"/>
<path d="M168.729 39.9236C168.729 40.0716 168.671 40.2135 168.566 40.3182C168.461 40.4228 168.319 40.4816 168.171 40.4816C168.023 40.4816 167.881 40.4228 167.777 40.3182C167.672 40.2135 167.613 40.0716 167.613 39.9236C167.611 39.8493 167.624 39.7753 167.651 39.7061C167.678 39.6369 167.719 39.5739 167.771 39.5209C167.823 39.468 167.886 39.4261 167.954 39.398C168.023 39.3698 168.097 39.3559 168.171 39.3571C168.246 39.3547 168.32 39.3677 168.39 39.3955C168.459 39.4232 168.522 39.465 168.574 39.5182C168.627 39.5714 168.668 39.6349 168.694 39.7047C168.721 39.7744 168.733 39.849 168.729 39.9236ZM167.723 46.2564V41.3102H168.628V46.2564H167.723Z" fill="#1C2C4D"/>
<path d="M174.597 43.7453C174.626 44.0842 174.583 44.4253 174.471 44.7465C174.359 45.0677 174.181 45.3618 173.948 45.6097C173.715 45.8577 173.433 46.0539 173.12 46.1857C172.806 46.3175 172.468 46.382 172.128 46.3748C171.802 46.3782 171.478 46.3136 171.178 46.185C170.878 46.0565 170.608 45.8669 170.386 45.6282C170.163 45.3896 169.992 45.1072 169.885 44.7991C169.777 44.4909 169.735 44.1637 169.761 43.8383C169.731 43.5006 169.773 43.1604 169.883 42.8398C169.994 42.5192 170.17 42.2254 170.401 41.9774C170.632 41.7294 170.913 41.5329 171.225 41.4005C171.537 41.268 171.874 41.2027 172.213 41.2088C172.541 41.2017 172.867 41.2637 173.17 41.3908C173.472 41.5178 173.745 41.707 173.97 41.9462C174.195 42.1854 174.367 42.4691 174.475 42.7791C174.583 43.089 174.625 43.4182 174.597 43.7453ZM170.666 43.796C170.666 44.8783 171.291 45.6984 172.171 45.6984C173.05 45.6984 173.676 44.8529 173.676 43.7791C173.676 42.9336 173.253 41.8767 172.196 41.8767C171.139 41.8767 170.699 42.8575 170.699 43.796H170.666ZM173.523 39.1796L172.272 40.6338H171.63L172.526 39.1796H173.523Z" fill="#1C2C4D"/>
<path d="M175.772 42.6546C175.772 42.1388 175.772 41.7245 175.772 41.3102H176.567L176.618 42.1557C176.78 41.8668 177.017 41.6275 177.304 41.4636C177.592 41.2997 177.919 41.2174 178.25 41.2257C178.935 41.2257 180 41.6315 180 43.331V46.2818H179.104V43.4071C179.104 42.6123 178.808 41.9443 177.954 41.9443C177.682 41.9498 177.418 42.0422 177.202 42.208C176.986 42.3739 176.829 42.6044 176.753 42.8659C176.706 43.0018 176.683 43.1449 176.686 43.2887V46.2564H175.772V42.6546Z" fill="#1C2C4D"/>
<path d="M32.1969 32.3225H21.4759V21.6184H32.1969" fill="#1C2C4D"/>
<path d="M53.6813 48.4633H48.3123V53.8322H53.6813V48.4633Z" fill="#067AA1"/>
<path d="M48.3123 48.4633H42.9433V53.8322H48.3123V48.4633Z" fill="#067AA1"/>
<path d="M42.9433 48.4633H37.5743V53.8322H42.9433V48.4633Z" fill="#067AA1"/>
<path d="M37.5744 48.4633H32.2054V53.8322H37.5744V48.4633Z" fill="#ED6B61"/>
<path d="M21.4674 48.4633H16.0984V53.8322H21.4674V48.4633Z" fill="#F7AB31"/>
<path d="M16.0985 48.4633H10.7295V53.8322H16.0985V48.4633Z" fill="#438837"/>
<path d="M10.738 48.4633H5.36902V53.8322H10.738V48.4633Z" fill="#438837"/>
<path d="M5.36897 48.4633H0V53.8322H5.36897V48.4633Z" fill="#438837"/>
<path d="M53.6813 43.1027H48.3123V48.4716H53.6813V43.1027Z" fill="#067AA1"/>
<path d="M48.3123 43.1027H42.9433V48.4716H48.3123V43.1027Z" fill="#067AA1"/>
<path d="M42.9433 43.1027H37.5743V48.4716H42.9433V43.1027Z" fill="#ED6B61"/>
<path d="M37.5744 43.1027H32.2054V48.4716H37.5744V43.1027Z" fill="#ED6B61"/>
<path d="M32.2054 43.1027H26.8364V48.4716H32.2054V43.1027Z" fill="#DE0B14"/>
<path d="M26.8364 43.1027H21.4674V48.4716H26.8364V43.1027Z" fill="#DE0B14"/>
<path d="M21.4674 43.1027H16.0984V48.4716H21.4674V43.1027Z" fill="#F7AB31"/>
<path d="M16.0985 43.1027H10.7295V48.4716H16.0985V43.1027Z" fill="#F7AB31"/>
<path d="M10.738 43.1027H5.36902V48.4716H10.738V43.1027Z" fill="#438837"/>
<path d="M5.36897 43.1027H0V48.4716H5.36897V43.1027Z" fill="#438837"/>
<path d="M53.6813 37.7338H48.3123V43.1027H53.6813V37.7338Z" fill="#067AA1"/>
<path d="M48.3123 37.7338H42.9433V43.1027H48.3123V37.7338Z" fill="#00B1B6"/>
<path d="M37.5744 37.7338H32.2054V43.1027H37.5744V37.7338Z" fill="#ED6B61"/>
<path d="M32.2054 37.7338H26.8364V43.1027H32.2054V37.7338Z" fill="#DE0B14"/>
<path d="M26.8364 37.7338H21.4674V43.1027H26.8364V37.7338Z" fill="#DE0B14"/>
<path d="M21.4674 37.7338H16.0984V43.1027H21.4674V37.7338Z" fill="#F7AB31"/>
<path d="M10.738 37.7338H5.36902V43.1027H10.738V37.7338Z" fill="#00B1B6"/>
<path d="M5.36897 37.7338H0V43.1027H5.36897V37.7338Z" fill="#438837"/>
<path d="M53.6813 32.3649H48.3123V37.7338H53.6813V32.3649Z" fill="#00B1B6"/>
<path d="M48.3123 32.3649H42.9433V37.7338H48.3123V32.3649Z" fill="#00B1B6"/>
<path d="M42.9433 32.3649H37.5743V37.7338H42.9433V32.3649Z" fill="#00B1B6"/>
<path d="M16.0985 32.3649H10.7295V37.7338H16.0985V32.3649Z" fill="#00B1B6"/>
<path d="M10.738 32.3649H5.36902V37.7338H10.738V32.3649Z" fill="#00B1B6"/>
<path d="M5.36897 32.3649H0V37.7338H5.36897V32.3649Z" fill="#00B1B6"/>
<path d="M48.3123 27.0043H42.9433V32.3732H48.3123V27.0043Z" fill="#438837"/>
<path d="M42.9433 27.0043H37.5743V32.3732H42.9433V27.0043Z" fill="#438837"/>
<path d="M16.0985 27.0043H10.7295V32.3732H16.0985V27.0043Z" fill="#438837"/>
<path d="M10.738 27.0043H5.36902V32.3732H10.738V27.0043Z" fill="#438837"/>
<path d="M48.3123 21.6353H42.9433V27.0042H48.3123V21.6353Z" fill="#438837"/>
<path d="M42.9433 21.6353H37.5743V27.0042H42.9433V21.6353Z" fill="#438837"/>
<path d="M16.0985 21.6353H10.7295V27.0042H16.0985V21.6353Z" fill="#438837"/>
<path d="M10.738 21.6353H5.36902V27.0042H10.738V21.6353Z" fill="#438837"/>
<path d="M53.6813 16.2664H48.3123V21.6353H53.6813V16.2664Z" fill="#93C130"/>
<path d="M48.3123 16.2664H42.9433V21.6353H48.3123V16.2664Z" fill="#93C130"/>
<path d="M42.9433 16.2664H37.5743V21.6353H42.9433V16.2664Z" fill="#93C130"/>
<path d="M16.0985 16.2664H10.7295V21.6353H16.0985V16.2664Z" fill="#93C130"/>
<path d="M10.738 16.2664H5.36902V21.6353H10.738V16.2664Z" fill="#93C130"/>
<path d="M5.36897 16.2664H0V21.6353H5.36897V16.2664Z" fill="#93C130"/>
<path d="M53.6813 10.8973H48.3123V16.2663H53.6813V10.8973Z" fill="#B16C3C"/>
<path d="M48.3123 10.8973H42.9433V16.2663H48.3123V10.8973Z" fill="#93C130"/>
<path d="M37.5744 10.8973H32.2054V16.2663H37.5744V10.8973Z" fill="#ED6B61"/>
<path d="M32.2054 10.8973H26.8364V16.2663H32.2054V10.8973Z" fill="#DE0B14"/>
<path d="M26.8364 10.8973H21.4674V16.2663H26.8364V10.8973Z" fill="#DE0B14"/>
<path d="M21.4674 10.8973H16.0984V16.2663H21.4674V10.8973Z" fill="#F7AB31"/>
<path d="M10.738 10.8973H5.36902V16.2663H10.738V10.8973Z" fill="#93C130"/>
<path d="M5.36897 10.8973H0V16.2663H5.36897V10.8973Z" fill="#73742E"/>
<path d="M53.6813 5.53687H48.3123V10.9058H53.6813V5.53687Z" fill="#B16C3C"/>
<path d="M48.3123 5.53687H42.9433V10.9058H48.3123V5.53687Z" fill="#B16C3C"/>
<path d="M42.9433 5.53687H37.5743V10.9058H42.9433V5.53687Z" fill="#ED6B61"/>
<path d="M37.5744 5.53687H32.2054V10.9058H37.5744V5.53687Z" fill="#ED6B61"/>
<path d="M32.2054 5.53687H26.8364V10.9058H32.2054V5.53687Z" fill="#DE0B14"/>
<path d="M26.8364 5.53687H21.4674V10.9058H26.8364V5.53687Z" fill="#DE0B14"/>
<path d="M21.4674 5.53687H16.0984V10.9058H21.4674V5.53687Z" fill="#F7AB31"/>
<path d="M16.0985 5.53687H10.7295V10.9058H16.0985V5.53687Z" fill="#F7AB31"/>
<path d="M10.738 5.53687H5.36902V10.9058H10.738V5.53687Z" fill="#73742E"/>
<path d="M5.36897 5.53687H0V10.9058H5.36897V5.53687Z" fill="#73742E"/>
<path d="M53.6813 0.167847H48.3123V5.53682H53.6813V0.167847Z" fill="#B16C3C"/>
<path d="M48.3123 0.167847H42.9433V5.53682H48.3123V0.167847Z" fill="#B16C3C"/>
<path d="M42.9433 0.167847H37.5743V5.53682H42.9433V0.167847Z" fill="#B16C3C"/>
<path d="M37.5744 0.167847H32.2054V5.53682H37.5744V0.167847Z" fill="#ED6B61"/>
<path d="M21.4674 0.167847H16.0984V5.53682H21.4674V0.167847Z" fill="#F7AB31"/>
<path d="M16.0985 0.167847H10.7295V5.53682H16.0985V0.167847Z" fill="#73742E"/>
<path d="M10.738 0.167847H5.36902V5.53682H10.738V0.167847Z" fill="#73742E"/>
<path d="M5.36897 0.167847H0V5.53682H5.36897V0.167847Z" fill="#73742E"/>
</svg>
